<?xml version="1.0" standalone="no"?>
<!DOCTYPE svg PUBLIC "-//W3C//DTD SVG 20010904//EN"
 "http://www.w3.org/TR/2001/REC-SVG-20010904/DTD/svg10.dtd">
<svg version="1.0" xmlns="http://www.w3.org/2000/svg"
 width="625.000000pt" height="625.000000pt" viewBox="0 0 625.000000 625.000000"
 preserveAspectRatio="xMidYMid meet">
<metadata>
Created by potrace 1.14, written by Peter Selinger 2001-2017
</metadata>
<g transform="translate(0.000000,625.000000) scale(0.100000,-0.100000)"
fill="#000000" stroke="none">
<path d="M0 3125 l0 -3125 3125 0 3125 0 0 3125 0 3125 -3125 0 -3125 0 0
-3125z m2300 1875 c-6 -11 -13 -20 -15 -20 -3 0 -5 9 -5 20 0 11 7 20 15 20
13 0 14 -4 5 -20z m1758 3 c-2 -10 -10 -18 -18 -18 -8 0 -16 8 -18 18 -2 12 3
17 18 17 15 0 20 -5 18 -17z m-1902 -98 c15 -23 15 -27 0 -50 -30 -45 -89 -28
-89 25 0 53 59 70 89 25z m1285 -44 c198 -43 380 -118 545 -227 122 -80 304
-261 383 -383 65 -100 76 -142 42 -161 -36 -19 -52 -10 -114 57 -102 111 -198
201 -262 244 -33 22 -49 31 -35 19 130 -112 236 -236 296 -346 41 -75 41 -75
-56 6 -30 25 -118 95 -195 155 -164 128 -415 370 -375 362 14 -2 34 -8 45 -11
11 -4 4 2 -15 13 -19 11 -83 36 -142 56 -264 86 -531 95 -804 25 -306 -79
-568 -248 -815 -527 -58 -66 -93 -80 -119 -48 -20 24 -5 70 53 158 214 327
578 553 1002 622 132 21 438 14 566 -14z m-1456 -116 c16 -15 25 -36 25 -55 0
-39 -39 -80 -75 -80 -16 0 -39 12 -57 30 -35 36 -33 71 8 108 33 29 69 28 99
-3z m2312 9 c-3 -3 -12 -4 -19 -1 -8 3 -5 6 6 6 11 1 17 -2 13 -5z m-2667
-724 c41 -41 12 -120 -45 -120 -14 0 -34 9 -45 20 -41 41 -12 120 45 120 14 0
34 -9 45 -20z m3072 3 c41 -37 9 -123 -45 -123 -33 0 -67 35 -67 70 0 58 70
92 112 53z m-2097 -243 c-17 -7 -17 -9 -2 -9 18 -1 25 -21 7 -21 -5 0 -10 -9
-10 -20 0 -11 -5 -20 -12 -20 -7 0 -6 -6 3 -17 8 -10 21 -31 29 -48 8 -16 23
-40 34 -53 11 -13 21 -33 22 -45 2 -53 33 -88 69 -78 6 1 7 0 3 -4 -4 -4 -3
-12 3 -19 5 -6 18 -22 29 -36 11 -14 19 -18 18 -10 -2 8 3 15 10 14 6 -1 21
-2 33 -2 11 -1 17 -6 14 -12 -3 -5 0 -8 7 -5 18 6 66 -38 74 -69 3 -14 10 -26
15 -26 5 0 7 -42 6 -94 -3 -92 -4 -97 -42 -151 -90 -131 -229 -205 -385 -205
-133 0 -248 48 -342 143 -248 248 -148 663 187 779 53 18 272 26 230 8z m797
-133 c-21 -25 -25 -93 -8 -128 13 -26 14 -34 4 -41 -7 -4 -8 -8 -3 -8 6 0 22
-11 36 -24 20 -18 30 -41 38 -87 11 -65 28 -92 73 -115 68 -35 142 0 170 81
l17 50 7 -34 c6 -27 9 -30 16 -17 9 15 11 15 26 -2 9 -10 13 -12 8 -5 -7 10
-4 12 10 7 10 -4 25 -11 32 -17 8 -6 12 -5 12 3 0 9 5 8 18 -3 10 -10 26 -17
35 -17 9 0 17 -4 17 -8 0 -5 11 -15 25 -22 14 -8 23 -20 21 -27 -4 -9 4 -13
25 -13 24 0 30 -4 25 -16 -3 -8 -2 -13 2 -10 4 2 23 1 42 -3 31 -6 35 -10 36
-41 1 -19 5 -51 8 -71 4 -26 1 -40 -12 -55 -10 -11 -17 -24 -15 -29 4 -15 -99
-86 -165 -114 -48 -21 -73 -25 -167 -25 -131 0 -191 18 -289 88 -184 131 -247
379 -147 580 28 55 100 148 110 140 2 -2 -1 -9 -7 -17z m1283 -58 c48 -42 47
-63 -2 -54 -53 9 -97 37 -101 63 -3 19 1 22 32 22 25 0 45 -9 71 -31z m-1078
-115 c-3 -3 -12 -4 -19 -1 -8 3 -5 6 6 6 11 1 17 -2 13 -5z m93 -125 c0 -16
-4 -29 -10 -29 -5 0 -10 16 -10 36 0 21 4 33 10 29 6 -3 10 -19 10 -36z
m-1929 -310 c11 -46 28 -107 39 -136 29 -78 108 -232 145 -283 18 -25 42 -62
54 -83 l22 -39 -42 24 c-57 31 -158 143 -198 217 -71 134 -99 280 -67 355 9
22 19 37 22 34 3 -3 14 -43 25 -89z m-147 -28 c25 -27 17 -72 -15 -90 -24 -13
-29 -13 -53 2 -17 12 -26 26 -26 44 0 55 59 83 94 44z m1734 -323 c7 -7 12
-24 12 -38 0 -48 -9 -50 -240 -50 -231 0 -240 2 -240 50 0 14 5 31 12 38 17
17 439 17 456 0z m1054 -1 c18 15 20 16 12 1 -31 -57 -168 -188 -197 -188 -5
0 4 15 19 34 16 19 44 53 63 76 24 29 39 40 52 37 20 -5 26 7 9 18 -6 4 -5 11
3 20 10 11 13 11 15 -2 3 -12 7 -11 24 4z m-2252 -428 c9 -16 8 -26 -5 -45
-30 -46 -85 -15 -71 39 5 22 12 27 36 27 19 0 33 -7 40 -21z m2004 5 c17 -45
-12 -82 -54 -69 -25 8 -37 50 -20 70 17 20 66 19 74 -1z m-2663 -214 c79 -17
261 -29 652 -45 370 -15 496 -28 594 -61 173 -58 295 -170 348 -319 24 -65 31
-72 39 -39 27 107 131 247 224 301 58 35 169 71 269 88 49 9 250 21 481 30
404 15 548 26 659 49 56 12 63 12 67 -3 3 -9 26 -115 52 -236 43 -204 49 -222
75 -243 16 -13 29 -32 29 -43 0 -16 -7 -19 -42 -18 l-43 2 40 8 c22 4 -89 7
-250 6 -159 0 -528 3 -818 8 -502 8 -529 9 -541 27 -13 19 -15 19 -86 -3 -90
-27 -200 -23 -273 9 l-48 21 -10 -23 -11 -23 -569 -7 c-314 -4 -579 -9 -590
-11 -66 -13 -489 1 -489 17 0 4 165 8 368 9 265 1 356 4 327 11 -24 6 -166 8
-360 6 -176 -3 -313 -3 -304 -1 16 4 30 57 100 395 21 99 24 107 43 103 12 -3
42 -9 67 -15z m1464 -565 c54 -27 70 -30 161 -30 94 0 105 2 162 32 61 31 79
31 44 0 -61 -55 -199 -79 -302 -53 -66 17 -140 58 -140 77 0 6 3 9 8 7 4 -2
34 -17 67 -33z"/>
<path d="M2574 3446 c-30 -30 -34 -40 -34 -86 0 -43 4 -56 29 -80 51 -52 126
-52 175 -1 76 80 20 201 -94 201 -34 0 -48 -6 -76 -34z m5 -109 c1 -19 -3 -27
-11 -25 -15 5 -23 52 -13 76 6 15 8 15 15 -3 5 -11 9 -33 9 -48z"/>
<path d="M4060 3170 c0 -5 5 -10 11 -10 5 0 7 5 4 10 -3 6 -8 10 -11 10 -2 0
-4 -4 -4 -10z"/>
<path d="M4535 1570 c-16 -4 69 -7 190 -7 175 0 200 2 125 7 -123 10 -277 10
-315 0z"/>
</g>
</svg>
