<?xml version="1.0" encoding="UTF-8"?>
<svg id="Layer_2" data-name="Layer 2" xmlns="http://www.w3.org/2000/svg" viewBox="0 0 625 625">
  <defs>
    <style>
      .cls-1 {
        fill: #ed5e26;
      }

      .cls-2 {
        fill: #4d4f71;
      }

      .cls-3 {
        fill: #272369;
      }

      .cls-4 {
        fill: #3f2e8a;
      }

      .cls-5 {
        fill: #1a2847;
      }

      .cls-6 {
        fill: #392d85;
      }

      .cls-7 {
        fill: #1f1956;
      }

      .cls-8 {
        fill: #151021;
      }

      .cls-9 {
        fill: #2f2a7a;
      }

      .cls-10 {
        fill: #292670;
      }

      .cls-11 {
        fill: #f58234;
      }

      .cls-12 {
        fill: #7286a2;
      }

      .cls-13 {
        fill: #edf0f5;
      }

      .cls-14 {
        fill: #141531;
      }

      .cls-15 {
        fill: #332c80;
      }

      .cls-16 {
        fill: #55c7e7;
      }
    </style>
  </defs>
  <g id="Layer_1-2" data-name="Layer 1">
    <g>
      <path class="cls-9" d="m623.75,624.91h-146.68c-.24-1.73-1.61-1.63-2.89-2.07-4.21-1.41-10.54,1.18-11.77-6.17-.18-1.07-2.13-.95-3.18-.65-2.33.66-4.57.23-6.85-.08-3.09-.42-8.78-5.83-8.04-8.1,1.22-3.69,4.88-3.29,7.86-3.87.64-.12,1.33.05,1.99-.04,2.17-.28,5.05,1.09,6.17-1.81,1.09-2.82-1.02-4.79-2.51-7.04-5.17-7.84-13.29-12.63-19.44-19.4-5.46-6.02-10.69-12.16-18.92-14.61-1.32-.39-2.32-1.8-3.48-2.73-4.9-3.92-9.44-8.47-14.82-11.56-4.91-2.83-8.47-6.92-12.5-10.53-3.24-2.9-2.37-9.26.56-8.89,7.12.89,13.47-2.42,20.33-2.68,19.68-.75,39.35-1.59,59.02-2.63,6.34-.34,11.86-2.71,17.21-6.63,6.31-4.62,9.9-11.15,14.17-17.09,4.61-6.39,8.31-13.76,4.03-22.14.32-.68.65-1.35.97-2.03-.44-5.19-1-5.54-6.04-3.89-1.29-1.02-2.59-2.05-3.88-3.07-.6-1.36-1.95-.87-2.96-1.2-.21-6.38-2.35-12.41-3.3-18.66.83.06,1.92-.21,2.44.22,7.06,5.85,13.51-.12,19.71-1.69,6.57-1.67,9.22-9.25,7.54-16.36-.69-2.93-.47-5.21,1.97-7.1,2.43-1.88,4.14-.92,5.94,1.12,1.16,1.32,2.8.85,4.02-.27,1.18-1.09,2.75-2.03,2.23-4.09-1.17-4.64.38-9.16,1-13.64.42-3.06,3.28-5.29,6.18-6.73.74-.37,1.57.48,1.82,1.33.96,3.34-.73,5.73-2.91,7.97-.89.92-2.46,2.19-1.24,3.29,1.59,1.45,2.69-.63,3.41-1.64,9.58-13.36,18.4-27.11,23.03-43.16,3.87-13.44,8.67-26.61,12.15-40.17.66-2.56,1.72-5.01,2.48-7.54.48-1.6.31-3.07-1.8-3.28-2.72-.27-6.22-.36-7.06,2.27-.83,2.58-3.86,6.12.46,8.81,2.42,1.51,1.8,3.58.77,5.69-1.59,3.27-4.14,1.16-6.12.91-2.7-.34-1.71-2.61-1.56-4.37.66-7.32,4.1-13.9,5.65-21.02.89-4.09-.95-7.89.29-11.74,1.56-4.81,1.58-10.11,1.22-14.74-.72-9.41,1.57-18.72-.35-28.17-1.64-8.07,2.67-16.1,1.69-24.39-.21-1.8.2-3.65-1.08-5.18-.7-.83-1.5-.5-2.14.13-3.09,3-3.4.55-3.6-1.87-.11-1.34.07-2.92-.94-3.78-5.5-4.69-3.92-12.36-7.63-17.79-.5-.73-.45-1.94-.4-2.91.12-2.16.42-4.35,3.5-2.66,1.38.76,2.34.56,2.36-1.1.07-5.1,1.1-10.46-2.57-14.84-1.55-1.85-2.3-3.96-3.24-6.08-2.53-5.71-4.07-12.16-10.74-15.41-.13,1.07-.2,1.88-.33,2.68-.22,1.34.58,3.4-1.74,3.42-1.95.02-1.94-1.83-2.38-3.26-1.05-3.42-.69-6.81-.51-10.32.25-5.18.81-10.73-1.59-15.45-2.14-4.21-5.44-7.87-8.48-11.57-1.89-2.29-4.45-3.72-8.88-3.61,4.23,5.29,7.51,10.12,10.66,15.03,1.01,1.58,2.14,2.91,1.94,4.9-.1,1-.09,2.1-1.32,2.38-.88.2-1.67-.22-2.13-.97-2.14-3.54-4.75-6.9-6.19-10.71-1.41-3.74-3.46-6.67-6.46-9.08-1.96-1.57-3.15-3.32-2.35-5.99.75-2.51.08-3.3-2.89-3.47-4.5-.26-4.52-5.48-7-8.14-1.53-1.64,1.89-2.83,3.29-4.78-5.51.66-8.15-2.21-10.97-6.16-3.79-5.31-8.45-10.21-13.5-14.35-3.2-2.62-5.86-4.65-4.57-9.01-1.84-.75-2.48,1.35-3.9.98-2.02-.52-4.75-1.89-2.93-3.7,3-2.98.74-4.91-.73-6.14-4.14-3.46-8.72-6.4-13.19-9.45-.95-.65-2.55-1.06-3.18.05-.99,1.74,1.01,2.01,1.96,2.75,1.06.82,3.52,1.03,2.4,2.95-.86,1.48-2.73.26-4.11-.2-2.4-.8-4.55-2.02-6.03-4.14-.7-1.01-1.46-1.93-2.74-1.9-3.22.08-4.91-2.06-6.96-4.14,5.18-2.25,5.08-2.18,2.03-6.44-1.94-2.71-4.66-4.11-7.54-5.41-6.3-2.85-12.53-5.88-18.89-8.59-6.93-2.95-13.36-6.67-21.55-6.74-8.48-.07-17.26-2.17-25.15-4.78-9.3-3.08-18.34-4.61-27.95-5.09-4.11-.21-8.67,1.15-12.34-1.15-1.86-1.17-3.47-1.46-5.43-1.69-13.44-1.59-26.65,1.61-39.91,2.51-17.18,1.16-34.2,5.42-50.29,12.12-12.48,5.2-25.01,10.42-37,16.63-17.67,9.16-34.5,19.88-49.4,33.14-10.73,9.54-21.2,19.45-29.7,31.22-8.02,11.1-16.34,21.88-22.98,34.02-8.93,16.32-18.59,32.21-22.04,50.78-1.55,8.33-7.09,15.72-5.41,24.82.8,4.29-.18,8.33-2.93,12.18-2.74,3.84-.44,16.73,3.68,18.98,7.09,3.87,6.71,10.38,7.77,16.75,1.32,7.98,2.72,16.03,5.11,23.73,2.37,7.6,6.45,14.65,9.03,22.21,6.52,19.14,15.96,36.85,27.26,53.41,8.67,12.71,20.42,22.8,32.34,32.65,8.58,7.09,17.03,13.92,27.18,18.74,3.75,1.78,8.78,3.81,8.66,9.85-.03,1.63,1.96,1.53,3.25,1.45,8.65-.5,17.18,1.64,25.83,1.07,1.66-.11,3.83-.78,4.56,1.79-16.27-.62-32.6-.59-48.78-2.12-8.48-.8-17.28-.44-25.51-3.65-2.3-.9-3.93.58-4.5,3.08-.67,2.95-.55,6.11-2.18,8.83-1.81.17-2.59-.79-3.19-2.42-.62-1.69-1.3-3.89-2.65-4.69-9.67-5.75-14.6-15.6-20.95-24.11-7.27-9.75-13.52-20.24-20.38-30.29-7.7-11.28-16.89-21.48-24.02-33.19-1.23-2.02-3.19-3.98-2.34-6.27,1.75-4.68-.15-6.46-4.38-7.78-2.19-.68-5.08-2.44-3.27-5.55,3.02-5.2.44-7.24-4.11-8.59-.6-.18-1.45-.51-1.64-.99-2.24-5.69-6.03-11.41-6.08-17.15-.05-5.91-1.92-10.36-4.16-15.35-1.95-4.36-5.88-6.94-8.04-11.09-2.75-5.28-6.81-9.64-11.94-13.05-3.31-2.21-5.91-1.98-9.08-.08-3.65,2.19-7.54,3.98-11.33,5.95,0-84.84,0-169.68,0-254.52,205.87,0,411.74.04,617.61-.1,5,0,6.14,1.14,6.14,6.14-.14,205.93-.11,411.85-.1,617.78Zm-45.83-356.58c-.46-3.23-.81-5.85-1.23-8.46-.14-.83-.6-1.63-1.55-1.69-1.08-.07-1.22.93-1.48,1.68-1.31,3.72-1.11,7.56-.38,11.3,1,5.13.52,10.24.38,15.37-.03,1.17-1.63,2.88.28,3.33,1.79.42,2.66-1.85,2.44-3.05-1.18-6.53-.55-12.85,1.55-18.48Zm-3.98,35.75c-1.45.56-1,1.86-1.03,2.92-.03,1,.16,2.21,1.42,2.17,1.59-.05,1.52-1.46,1.46-2.6-.06-1.17-.31-2.29-1.84-2.49Z"/>
      <path class="cls-3" d="m307.43,624.91c-101.02,0-202.05-.02-303.07.09-3.53,0-4.37-.65-4.36-4.31.13-84.1.1-168.2.1-252.3,4.04-.7,6.77,1.37,8.64,4.54,1.47,2.5,3.62,4.35,6.15,4.68,5.34.7,8.94,4.08,12.73,7.18,2.14,1.75,3.49,4.62,5.78,6.04,10.32,6.45,19.2,14.59,28.35,22.5,4.24,3.67,7.63,8.44,12.01,11.41,6.38,4.32,12.88,8.5,19.11,13.07,6.9,5.05,13.92,9.94,20.85,14.96,2.33,1.69,4.71,3.82,4.63,6.77-.18,6.99,4.45,7.44,9.47,7.71-.06.34-.11.67-.17,1.01-1.13-.33-1.74.72-2.64,1.01-2.96-.06-5.86.72-6.66,3.72-.87,3.25,2.25,4.06,4.49,5.18.26,1.96-.62,3.76-.31,5.86,2.14,14.56,14.83,23.24,27.79,26.15,13.3,2.99,26.7,1.71,39.81.41,10.05-1,20.03.07,30.08-1.19,12.45-1.56,25.17-.64,37.77-1.02,21-.64,42.04-.48,63.04-1.44,5.62-.26,11.68,1.31,16.63-.27,9.85-3.15,19.92-2.54,29.75-3.19,18.27-1.2,36.64-.69,54.97-2.16,13.81-1.11,27.76.36,41.65-1.11,8.72-.92,16.29-4.09,23.39-8.96,4.96-3.41,5.74-8.6,6.51-13.88,2.03-.05,4.05-.11,6.08-.16-.6,3.17,1.83,6.17.69,9.31-3.34,9.14-9.48,16.34-18.2,20.08-14.78,6.35-30.73,7.98-46.64,7.19-6.36-.32-12.49.06-18.65.88-3.83.51-7.66.75-11.4.23-10.78-1.48-21.4.83-32.1.79-7.73-.03-15.35,2.21-23.2.6-3.46-.71-7.81-1.52-10.72.52-3.92,2.75-7.73,2.39-11.82,1.92-.99-.11-1.93-.43-2.89.06-6.46,3.33-13.68,1.83-20.47,3.2-5.25,1.06-10.82-2.04-15.73-.52-5.8,1.8-11.46,1.63-17.19,1.53-12.67-.23-25.29.45-37.92,1.24-9.4.59-18.8,1.19-28.19,1.84-1.69.12-3.99-.83-4.7,1.61-.71,2.44.25,4.18,2.4,5.92,2.09,1.69,4.71,2.32,6.64,4.25,10.25,10.27,20.24,20.87,31.16,30.39,3.31,2.88,4.81,7.67,8.73,9.06,9.94,3.52,14.9,13.4,23.99,17.84.93.46,1.65,1.28,1.27,2.42-1.19,3.59,1.36,5.77,3.4,7.65,6.2,5.74,13.3,10.24,21.24,13.24,3.37,1.27,5.97,3.31,7.73,6.42Z"/>
      <path class="cls-10" d="m307.43,624.91c-1.77-3.12-4.37-5.15-7.73-6.42-7.94-3-15.04-7.5-21.24-13.24-2.03-1.88-4.59-4.06-3.4-7.65.38-1.14-.34-1.96-1.27-2.42-9.09-4.43-14.05-14.31-23.99-17.84-3.92-1.39-5.43-6.18-8.73-9.06-10.92-9.51-20.91-20.11-31.16-30.39-1.93-1.93-4.54-2.56-6.64-4.25-2.15-1.74-3.12-3.47-2.4-5.92.71-2.44,3.01-1.49,4.7-1.61,9.39-.65,18.79-1.25,28.19-1.84,12.63-.8,25.25-1.47,37.92-1.24,5.73.1,11.39.27,17.19-1.53,4.91-1.52,10.48,1.58,15.73.52,6.79-1.37,14.01.13,20.47-3.2.96-.49,1.89-.17,2.89-.06,4.09.46,7.9.82,11.82-1.92,2.91-2.04,7.26-1.22,10.72-.52,7.85,1.61,15.46-.63,23.2-.6,10.69.04,21.32-2.28,32.1-.79,3.74.51,7.57.28,11.4-.23,6.17-.83,12.29-1.2,18.65-.88,15.9.79,31.85-.84,46.64-7.19,8.72-3.75,14.86-10.94,18.2-20.08,1.15-3.13-1.28-6.14-.69-9.31,1.34-.35,2.67-.71,4.01-1.06,4.29,8.39.58,15.75-4.03,22.14-4.28,5.94-7.86,12.47-14.17,17.09-5.36,3.92-10.87,6.29-17.21,6.63-19.66,1.04-39.34,1.89-59.02,2.63-6.86.26-13.21,3.57-20.33,2.68-2.94-.37-3.8,5.99-.56,8.89,4.03,3.61,7.59,7.7,12.5,10.53,5.38,3.1,9.92,7.64,14.82,11.56,1.16.93,2.17,2.34,3.48,2.73,8.23,2.45,13.46,8.6,18.92,14.61,6.15,6.77,14.28,11.56,19.44,19.4,1.48,2.25,3.6,4.22,2.51,7.04-1.12,2.9-4,1.53-6.17,1.81-.65.09-1.35-.09-1.99.04-2.98.58-6.64.18-7.86,3.87-.75,2.26,4.94,7.67,8.04,8.1,2.28.31,4.52.74,6.85.08,1.05-.3,3-.42,3.18.65,1.24,7.35,7.57,4.76,11.77,6.17,1.29.43,2.65.33,2.89,2.07h-169.63Z"/>
      <path class="cls-10" d="m127.81,467.26c-5.01-.27-9.64-.72-9.47-7.71.07-2.94-2.3-5.08-4.63-6.77-6.93-5.02-13.95-9.91-20.85-14.96-6.24-4.57-12.74-8.75-19.11-13.07-4.38-2.97-7.77-7.74-12.01-11.41-9.14-7.91-18.03-16.05-28.35-22.5-2.29-1.43-3.63-4.29-5.78-6.04-3.79-3.1-7.39-6.48-12.73-7.18-2.53-.33-4.68-2.18-6.15-4.68-1.87-3.17-4.6-5.23-8.64-4.54,0-37.6,0-75.19,0-112.79,3.79-1.96,7.68-3.76,11.33-5.95,3.17-1.9,5.77-2.13,9.08.08,5.13,3.42,9.19,7.78,11.94,13.05,2.16,4.15,6.09,6.73,8.04,11.09,2.23,4.99,4.1,9.44,4.16,15.35.05,5.74,3.84,11.46,6.08,17.15.19.48,1.03.81,1.64.99,4.55,1.35,7.12,3.39,4.11,8.59-1.81,3.11,1.08,4.87,3.27,5.55,4.23,1.31,6.13,3.1,4.38,7.78-.86,2.29,1.11,4.24,2.34,6.27,7.13,11.71,16.32,21.91,24.02,33.19,6.86,10.05,13.12,20.55,20.38,30.29,6.34,8.51,11.28,18.37,20.95,24.11,1.35.8,2.03,3,2.65,4.69.6,1.63,1.38,2.59,3.19,2.42.94,2.05-.59,3.76-.95,5.57-1.86,9.16-2.98,18.48-5.84,27.42-2.11.46-2.74,2.06-3,3.94l-.06.06Z"/>
      <path class="cls-13" d="m623.75,624.91c0-205.93-.04-411.85.1-617.78,0-5-1.14-6.15-6.14-6.14C411.84,1.13,205.97,1.1.1,1.09.32.78-.4.05.6.08c1.33.04,2.66.01,3.99.01C209.81.09,415.03.11,620.26,0c3.74,0,4.59.84,4.58,4.58-.11,205.28-.09,410.55-.16,615.83,0,1.46,1.15,3.38-.94,4.49Z"/>
      <path class="cls-15" d="m218.64,424.13c-.73-2.57-2.91-1.9-4.56-1.79-8.66.57-17.19-1.58-25.83-1.07-1.29.08-3.28.18-3.25-1.45.11-6.04-4.91-8.07-8.66-9.85-10.15-4.82-18.61-11.66-27.18-18.74-11.92-9.85-23.67-19.94-32.34-32.65-11.3-16.56-20.73-34.27-27.26-53.41-2.57-7.55-6.66-14.61-9.03-22.21-2.4-7.7-3.79-15.75-5.11-23.73-1.06-6.38-.68-12.88-7.77-16.75-4.12-2.25-6.43-15.14-3.68-18.98,2.75-3.84,3.73-7.88,2.93-12.18-1.69-9.11,3.86-16.49,5.41-24.82,3.45-18.57,13.11-34.46,22.04-50.78,6.64-12.14,14.97-22.92,22.98-34.02,8.5-11.78,18.98-21.68,29.7-31.22,14.9-13.26,31.73-23.99,49.4-33.14,11.99-6.21,24.52-11.44,37-16.63,16.09-6.7,33.11-10.96,50.29-12.12,13.26-.9,26.47-4.1,39.91-2.51,1.96.23,3.57.52,5.43,1.69,3.66,2.3,8.23.94,12.34,1.15,9.61.48,18.65,2.02,27.95,5.09,7.9,2.61,16.68,4.71,25.15,4.78,8.19.07,14.62,3.79,21.55,6.74,6.36,2.71,12.59,5.74,18.89,8.59,2.88,1.3,5.6,2.7,7.54,5.41,3.05,4.26,3.15,4.19-2.03,6.44,2.05,2.07,3.74,4.21,6.96,4.14,1.27-.03,2.03.89,2.74,1.9,1.47,2.12,3.63,3.35,6.03,4.14,1.37.46,3.25,1.68,4.11.2,1.12-1.92-1.34-2.13-2.4-2.95-.96-.74-2.95-1.01-1.96-2.75.63-1.12,2.23-.7,3.18-.05,4.47,3.05,9.06,5.99,13.19,9.45,1.46,1.23,3.72,3.16.73,6.14-1.82,1.81.91,3.18,2.93,3.7,1.42.37,2.07-1.72,3.9-.98-1.29,4.36,1.37,6.38,4.57,9.01,5.05,4.14,9.71,9.04,13.5,14.35,2.82,3.95,5.46,6.82,10.97,6.16-1.39,1.95-4.82,3.14-3.29,4.78,2.48,2.66,2.49,7.88,7,8.14,2.96.17,3.64.96,2.89,3.47-.8,2.68.39,4.43,2.35,5.99,3,2.41,5.05,5.34,6.46,9.08,1.44,3.81,4.05,7.17,6.19,10.71.45.75,1.25,1.18,2.13.97,1.23-.29,1.22-1.38,1.32-2.38.2-1.99-.92-3.32-1.94-4.9-3.15-4.91-6.43-9.74-10.66-15.03,4.43-.11,7,1.31,8.88,3.61,3.04,3.69,6.34,7.36,8.48,11.57,2.4,4.72,1.84,10.27,1.59,15.45-.17,3.51-.54,6.9.51,10.32.44,1.43.42,3.28,2.38,3.26,2.32-.02,1.53-2.09,1.74-3.42.13-.8.2-1.6.33-2.68,6.67,3.24,8.21,9.7,10.74,15.41.94,2.12,1.69,4.23,3.24,6.08,3.67,4.38,2.64,9.74,2.57,14.84-.02,1.65-.98,1.86-2.36,1.1-3.07-1.7-3.37.5-3.5,2.66-.06.97-.1,2.18.4,2.91,3.71,5.43,2.13,13.1,7.63,17.79,1.02.87.84,2.44.94,3.78.2,2.43.51,4.87,3.6,1.87.64-.63,1.44-.97,2.14-.13,1.28,1.52.87,3.38,1.08,5.18.98,8.29-3.33,16.33-1.69,24.39,1.92,9.44-.38,18.76.35,28.17.36,4.63.33,9.93-1.22,14.74-1.24,3.85.6,7.65-.29,11.74-1.55,7.12-4.99,13.7-5.65,21.02-.16,1.76-1.15,4.03,1.56,4.37,1.98.25,4.53,2.35,6.12-.91,1.03-2.11,1.65-4.17-.77-5.69-4.32-2.69-1.28-6.23-.46-8.81.84-2.64,4.34-2.55,7.06-2.27,2.11.21,2.28,1.68,1.8,3.28-.76,2.53-1.83,4.98-2.48,7.54-3.48,13.57-8.27,26.73-12.15,40.17-4.63,16.05-13.45,29.8-23.03,43.16-.72,1.01-1.83,3.08-3.41,1.64-1.21-1.11.35-2.38,1.24-3.29,2.18-2.23,3.87-4.62,2.91-7.97-.25-.85-1.08-1.7-1.82-1.33-2.9,1.44-5.76,3.67-6.18,6.73-.62,4.48-2.17,9-1,13.64.52,2.07-1.05,3.01-2.23,4.09-1.21,1.12-2.85,1.58-4.02.27-1.8-2.04-3.51-3-5.94-1.12-2.43,1.89-2.66,4.17-1.97,7.1,1.68,7.11-.97,14.69-7.54,16.36-6.19,1.57-12.65,7.55-19.71,1.69-.52-.43-1.61-.16-2.44-.22-3.05-7.51-3.64-15.63-5.56-23.42-1.44-5.83-1.5-6.35-7.53-4.91-8.07,1.93-16.27,3.02-24.58,3.14.86-2.84,3.25-1.66,5.05-1.83,3.76-.37,5.55-3.32,5.3-6.06-.31-3.39-3.39-1.04-5.26-.95-2.47.13-4.99-.35-7.41.63-.73.3-1.71.51-2.08-.57-.33-.95.4-1.79,1.08-2.01,4.14-1.35,8.46-3.88,12.49-3.51,9.51.88,25.66-6.57,29.19-17.45.89-2.73,2.6-4.99,3.78-7.52,3.13-6.72,7.3-12.91,9.33-20.23,1.64-5.9,2.62-12.2,7.4-16.94,1.95-1.93,1.65-4.65-1.16-6.28-1.45-.84-3.23-1.53-2.64-3.66,1.07-3.83,2.13-7.71,4.36-11.08.73-1.1,1.7-2.32,3.22-1.83,1.68.54,1.2,2.17,1.17,3.43-.07,2.49-2.01,4.96.24,8.16,2.44-5.24,4.93-9.98,6.84-14.93,1.18-3.04,3.18-5.94,2.93-9.42-.33-4.5,1.23-8.55,3.04-12.45,2.3-4.97,2.42-10.05,2.19-15.39-.29-6.77-.4-13.54.33-20.37.66-6.15,2.73-13-3.62-17.99-1.42-1.12-.59-2.69,0-4.12,1.71-4.18,1.77-8.45-.16-12.54-3.54-7.51-5.92-15.59-8.09-23.4-3.67-13.2-9.35-25.38-15.07-37.59-3.84-8.19-8.92-15.83-13.38-23.72-9.28-16.43-22.39-29.02-36.91-40.41-4.32-3.39-7.29-8.24-12.32-10.77-5.7-2.87-11.75-5.19-16.09-10.23-1.77-2.06-5.48-2.8-3.98-6.94.41-1.14-1.06-2.72-2.42-2.62-1.87.14-.97,1.68-.67,2.7.48,1.67-.02,2.61-1.82,2.63-2.91.03-5.33-4.04-3.73-6.55,1.02-1.59.27-2.4-.64-3.43-2.44-2.77-5.47-4.84-8.49-6.85-1.42-.94-3.61-2.15-4.57.41-.74,1.97-.91,4.56,1.96,5.31,1.92.5,3.41,1.15,4.13,3.1.29.79.68,1.62.08,2.34-.82.99-1.79.58-2.65,0-9.42-6.47-21.21-6.76-31.14-12-3.07-1.62-7.1-.39-10.23-1.49-12.27-4.33-24.91-4.57-37.66-4.74-11.13-.15-22.05,1.11-33.05,2.85-12.25,1.93-24.22,4.26-35.85,8.76-14.5,5.61-28.16,12.78-41.64,20.41-8.52,4.82-16.71,10.09-24.49,16.03-6.71,5.12-12.46,11.29-18.73,16.89-11.84,10.57-21.61,22.79-28.1,37.32-4.03,9.02-6.62,18.73-11.12,27.47-3.88,7.55-5.03,15.8-7.95,23.57-4.79,12.74-7.33,26.21-8.62,39.96-.95,10.07,4.57,17.71,6.85,26.53,1.44,5.57,2.43,11.22,5.37,16.28.18.31-.14.97-.35,1.42-.73,1.56-.17,2.91.58,4.25,4.45,8,8.28,16.19,7.93,25.69-.07,1.87,1.56,2.72,2.59,4,3.26,4.03,8.26,6.43,9.05,12.8.63,5.1,4.07,9.74,8.05,13.43,8.14,7.54,16.01,15.39,22.71,24.23,4.48,5.91,11.42,8.57,16.35,13.76.85.89,2.23,1.03,3.3.66,7.89-2.74,11.9,4.35,17.69,6.88-3.83-.1-7.11.95-6.83,5.47.26,4.11,3.69,3.78,6.68,3.61,2.15.97,3.46,3.96,6.45,2.83,4.1-1.56,7.67-.34,11.35,1.54,7.41,3.8,7.97,3.56,12.38-3.37.63.37,1.26.74,1.88,1.1,2.06,5.95,6.45,10.17,10.72,14.49,1.33,1.34,3.41,2.25,3.25,4.67-13.61-.78-27.23-1.57-40.84-2.35Z"/>
      <path class="cls-13" d="m218.64,424.13c13.61.78,27.23,1.57,40.84,2.35,4.05.93,8.14,1.71,12.14,2.83,18.25,5.09,31.59,15.69,37.73,34.17.5,1.52.75,3.02,2.35,3.89,7.34-20.07,14.29-29.21,34.33-36.88,5.53-2.11,11.55-2.94,17.34-4.35,12.65-.26,25.18-2.58,37.87-2.07,6.78.73,13.5-.52,20.24-.6,9.25-.12,18.44-.89,27.65-1.38.66.02,1.33.03,1.99.05,8.31-.12,16.51-1.22,24.58-3.14,6.03-1.44,6.09-.92,7.53,4.91,1.92,7.79,2.51,15.9,5.56,23.42.95,6.25,3.09,12.28,3.3,18.66-.44.35-.87.7-1.31,1.05-.81,0-1.63,0-2.44-.01-.37-.44-.75-.49-1.14-.02-16.67-.73-33.35-.6-50.03-.26-6.42-.87-12.88-.35-19.32-.36-28.8-.05-57.6.03-86.39.06-1.22-.62-2.25.14-3.28.54-11.55,4.45-23,4.42-34.32-.78-1.2-.55-2.23-.3-3.28.28-1.65-.1-3.29-.3-4.94-.3-23.37,0-46.73.01-70.1.08-5.29.01-10.58.24-15.87.37-17-.44-33.99-.35-50.99.04-.61,0-1.21.01-1.82.02-1.07.01-2.14.03-3.2.04-2.56-.51-5.12-.67-7.65.19-1.7-.23-3.41-.46-5.11-.69.13-.03.26-.05.4-.08-.1-.21-.19-.42-.29-.63-.05-.75-.1-1.5-.15-2.25,2.86-8.94,3.98-18.27,5.84-27.42.37-1.81,1.89-3.52.95-5.57,1.63-2.72,1.51-5.87,2.18-8.83.57-2.5,2.2-3.97,4.5-3.08,8.24,3.22,17.04,2.85,25.51,3.65,16.18,1.52,32.51,1.5,48.78,2.12Z"/>
      <path class="cls-11" d="m331.45,466.44c28.8-.03,57.6-.11,86.39-.06,6.44.01,12.89-.51,19.32.36-2.18,3.27-6,.15-9,2.39,21.53,0,42.56,0,63.59-.01,1.26,0,2.81.32,3.02-1.67l.28-.26c1.29,1.02,2.59,2.05,3.88,3.07-.27.69-.53,1.39-.8,2.08-.17.23-.3.49-.39.76-5.14-.02-10.28-.05-15.42-.07,4.43-2.12,9.55.47,14.38-1.79-4.2,0-7.94.02-11.67,0-29.83-.19-59.67.29-89.5-.89-18.89-.75-37.82-.26-56.74-.13-3.35.02-5.77-.79-7.33-3.77Z"/>
      <path class="cls-15" d="m577.92,268.33c-2.09,5.63-2.73,11.95-1.55,18.48.22,1.2-.65,3.47-2.44,3.05-1.91-.45-.31-2.16-.28-3.33.14-5.13.61-10.24-.38-15.37-.73-3.75-.93-7.58.38-11.3.26-.75.4-1.75,1.48-1.68.95.06,1.41.85,1.55,1.69.43,2.61.77,5.23,1.23,8.46Z"/>
      <path class="cls-4" d="m498.13,472.34c.27-.69.53-1.39.8-2.08,5.05-1.65,5.6-1.3,6.04,3.89-2.44,0-5.04.62-6.84-1.81Z"/>
      <path class="cls-15" d="m498.13,472.34c1.8,2.43,4.4,1.82,6.84,1.81-.32.68-.65,1.35-.97,2.03-1.34.35-2.67.7-4.01,1.06-2.03.05-4.05.11-6.08.16l.07-.15c.02-.68.04-1.36.05-2.04,1.4-.19,3.11.46,3.88-1.42-.03-.24-.09-.47-.18-.69.09-.28.22-.53.39-.76Z"/>
      <path class="cls-15" d="m573.94,304.07c1.53.2,1.79,1.32,1.84,2.49.05,1.14.13,2.55-1.46,2.6-1.25.04-1.45-1.17-1.42-2.17.04-1.06-.41-2.36,1.03-2.92Z"/>
      <path class="cls-11" d="m490.78,467.03c.44-.35.87-.7,1.31-1.05,1.01.33,2.36-.16,2.96,1.2,0,0-.28.26-.28.25-1.33-.14-2.66-.27-3.99-.41Z"/>
      <path class="cls-7" d="m493.91,477.39c-.76,5.28-1.55,10.47-6.51,13.88-7.1,4.88-14.67,8.04-23.39,8.96-13.89,1.46-27.84,0-41.65,1.11-18.33,1.47-36.7.96-54.97,2.16-9.83.65-19.9.04-29.75,3.19-4.95,1.58-11.01.02-16.63.27-21,.96-42.04.8-63.04,1.44-12.61.38-25.33-.54-37.77,1.02-10.05,1.26-20.03.19-30.08,1.19-13.11,1.3-26.51,2.58-39.81-.41-12.96-2.91-25.65-11.59-27.79-26.15-.31-2.11.58-3.9.31-5.86,4.65-.02,9.29-.04,13.94-.06,1.19,5.52,6.79,9.93,12.47,11.12,12.44,2.6,24.99,1.55,37.5,1.87,25.24.64,50.45-1.68,75.69-.97,4.32.12,8.65.14,12.96-.03,3.59-.14,6.99-1.17,10.8-.38,7.17,1.48,14.61,1.14,21.91,1.9,4.72.5,10.32-.5,15.47-1.12,13.44-1.61,27.07-1.86,40.63-2.24,4.58-.13,9.26,1.69,13.83.74,5.63-1.18,11.29-1.19,16.86-.73,9.72.8,19.42-.62,28.96-1.15,13.19-.73,26.51.07,39.64-1.95,5.34-.82,10.71-1.53,14.55-5.99.33-.42.66-.83.99-1.25,1.04.05,2.08.1,3.12.15.27.59.54.59.82,0,3.71.25,7.41.25,11.01-.86l-.07.15Z"/>
      <path class="cls-11" d="m199.68,466.62c5.29-.13,10.58-.35,15.87-.37,23.37-.06,46.73-.07,70.1-.08,1.65,0,3.29.19,4.94.3-.51,3.13-2.56,3.71-5.42,3.7-28.67-.07-57.34.22-86,.9-23.68.56-47.38.11-71.52.11,1.32,1.61,3.31.54,4.16,1.95-1.68,1.85-3.87.54-5.78.92-1.14-1.42-1.37-3.04-1.02-4.78.9-.29,1.51-1.33,2.64-1.01,2.73,1.91,5.81.89,8.71.9,22.01.09,44.02.05,66.31.05-.81-1.54-2.94-.81-2.98-2.6Z"/>
      <path class="cls-9" d="m125.01,469.28c-.35,1.74-.13,3.36,1.01,4.78,1.36,1.83,3.35,1.09,5.06,1.09,18.21.06,36.42.05,54.63.06.33.73.67,1.46,1,2.19-2.05.89-4.22.6-6.35.61-12.2.08-24.4.13-36.6.2-2.33-.03-4.66-.05-7-.08-4.65.02-9.29.04-13.94.06-2.23-1.12-5.36-1.93-4.49-5.18.81-3,3.7-3.78,6.66-3.72Z"/>
      <path class="cls-1" d="m199.68,466.62c.04,1.78,2.17,1.06,2.98,2.6-22.28,0-44.3.04-66.31-.05-2.9-.01-5.98,1.01-8.71-.9.05-.34.11-.67.17-1.01,0,0,.06-.06.05-.06.6,0,1.19,0,1.79.01.37-.31.74-.61,1.11-.92l.08-.09.06.02c1.7.23,3.41.46,5.11.69,2.57.63,5.12.82,7.65-.19,1.07-.01,2.14-.03,3.2-.04.61.71,1.22.7,1.82-.02,17-.39,33.99-.48,50.99-.04Z"/>
      <path class="cls-3" d="m129.66,467.21c-.6,0-1.19,0-1.79-.01.26-1.87.89-3.47,3-3.94.05.75.1,1.5.15,2.25-.16.2-.22.43-.17.69,0,0-.08.09-.08.09-.37.31-.74.61-1.11.92Z"/>
      <path class="cls-6" d="m451.12,422.13c-.66-.02-1.33-.03-1.99-.05-.38-2.05-1.8-3.49-3.02-5.01-.32-.39-1.22-.55-1.78-.45-.74.14-.97.84-.56,1.53,2.36,4.02-1.02,3.14-2.81,3.09-11.9-.34-23.72,1.74-35.62,1.08-1.55-.09-3.46-.54-4.09,1.74-12.69-.51-25.22,1.81-37.87,2.07,5.01-5.29,10.29-10.37,13.92-16.81,1.22,2.56,1.26,7.77,5.64,5.24,5.64-3.26,11.36-3.6,17.29-3.15,5.36.41,10.36-1.44,15.62-1.73,3.43-.19,6.2-3.21,8.87-5.87,4.95-4.93,11.83-7.11,17.66-10.9,12.42-8.1,19.74-20.19,27.1-32.36.54-.89.49-1.83.14-2.86-1.54-4.62.86-9.64,5.81-11.2,3.53-1.12,4.83-3.27,4.62-6.64-.22-3.43.29-6.45,2.77-9.17,1.4-1.54,2.17-3.74,2.91-5.76,6.07-16.54,10.22-33.65,14.81-50.62,2.48-9.17,1.19-18.59.65-27.93-.5-8.56-3.87-16.39-5.87-24.56-2.03-8.3-5.03-16.28-7.64-24.36-4.25-13.13-11.82-24.8-19-36.53-5.61-9.17-12.4-17.56-18.99-26.07-4.82-6.21-9.12-12.82-14.07-18.91-7.34-9.02-18.01-13.87-27.37-20.18-12.14-8.18-25.18-15.22-39.73-18.56-4.24-.97-7.76-3.81-12.15-4.29-7.94-.86-15.9-1.65-23.83-2.38-9.56-.88-18.92-.17-28.21.82-4.49.48-8.81-.27-13.21-.05-10.25.52-18.82,5.91-28.31,8.5-7.93,2.17-16.26,4.55-23.41,9.11-8.65,5.51-19.48,7.05-26.79,14.97-2.25,2.44-5.69,3.23-5.55,8.23.09,3.08-7.13,1.37-8.97,5.19-4.83,10.09-14.08,16.48-20.86,24.98-10.33,12.95-16.96,27.74-24.83,41.96-3.17,5.73-3.61,12.6-8.01,17.74-.42.49-.5,1.74-.17,2.31,2.29,4,.96,8.37.27,12.13-1.34,7.36-5.81,14.03-5.22,21.93-7.08,9.73-2.05,20.73-3.25,31.08-.03.29.24.87.35.87,3.88-.2,5.22,5.18,9.4,4.26-.29,1.02-.58,2.04-.87,3.05.09.7.17,1.39.26,2.09-.89,4.66-.61,9.22,1.07,13.68-.1,3.75,2.19,5.81,5.21,7.35,0,0,.08.1.08.09,1.1,3.8,4.83,5.17,7.2,7.8-.05,1.7,1.21,2.13,2.32,3.1,2.64,2.31,7.56.34,8.77,4.89.11,4.27-.39,8.52.38,12.81,2.12,11.91,7.32,22.45,14.94,31.58,5.48,6.57,11.2,13.37,20.32,15.37.3.12.61.22.93.29.75.15,1.51.3,2.26.44.33.09.65.18.98.26,7.34,7.49,14.59,15.02,23.72,20.56,3.68,2.23,7.63,4.56,10.28,8.27-4.41,6.93-4.97,7.17-12.38,3.38-3.68-1.88-7.25-3.1-11.35-1.54-2.99,1.14-4.31-1.86-6.45-2.83,3-2.98,3.66-6,.15-9.08-5.8-2.53-9.8-9.62-17.69-6.88-1.08.37-2.46.24-3.3-.66-4.93-5.2-11.87-7.86-16.35-13.76-6.7-8.84-14.56-16.68-22.71-24.23-3.98-3.69-7.42-8.33-8.05-13.43-.79-6.37-5.79-8.77-9.05-12.8-1.03-1.27-2.66-2.12-2.59-4,.35-9.5-3.48-17.68-7.93-25.69-.74-1.34-1.31-2.7-.58-4.25.21-.44.53-1.11.35-1.42-2.93-5.06-3.92-10.71-5.37-16.28-2.28-8.82-7.8-16.46-6.85-26.53,1.29-13.75,3.83-27.23,8.62-39.96,2.92-7.77,4.06-16.02,7.95-23.57,4.5-8.75,7.09-18.46,11.12-27.47,6.5-14.53,16.26-26.75,28.1-37.32,6.27-5.6,12.02-11.77,18.73-16.89,7.78-5.94,15.98-11.21,24.49-16.03,13.48-7.63,27.14-14.8,41.64-20.41,11.63-4.5,23.6-6.83,35.85-8.76,11-1.74,21.91-2.99,33.05-2.85,12.75.17,25.39.41,37.66,4.74,3.13,1.1,7.16-.13,10.23,1.49,9.93,5.24,21.72,5.52,31.14,12,.86.59,1.83,1,2.65,0,.6-.73.21-1.55-.08-2.34-.71-1.95-2.21-2.6-4.13-3.1-2.87-.75-2.7-3.35-1.96-5.31.96-2.56,3.15-1.35,4.57-.41,3.03,2.01,6.05,4.08,8.49,6.85.91,1.03,1.65,1.84.64,3.43-1.61,2.51.82,6.58,3.73,6.55,1.8-.02,2.3-.96,1.82-2.63-.29-1.02-1.2-2.56.67-2.7,1.36-.1,2.83,1.49,2.42,2.62-1.5,4.13,2.21,4.88,3.98,6.94,4.34,5.05,10.39,7.36,16.09,10.23,5.03,2.53,8,7.39,12.32,10.77,14.52,11.4,27.63,23.98,36.91,40.41,4.45,7.89,9.54,15.53,13.38,23.72,5.72,12.2,11.41,24.39,15.07,37.59,2.17,7.81,4.55,15.89,8.09,23.4,1.93,4.1,1.87,8.36.16,12.54-.59,1.43-1.41,3.01,0,4.12,6.35,4.99,4.28,11.84,3.62,17.99-.73,6.83-.62,13.6-.33,20.37.23,5.33.11,10.42-2.19,15.39-1.81,3.9-3.37,7.95-3.04,12.45.25,3.48-1.75,6.38-2.93,9.42-1.92,4.95-4.4,9.69-6.84,14.93-2.25-3.2-.31-5.67-.24-8.16.03-1.26.5-2.89-1.17-3.43-1.52-.49-2.49.73-3.22,1.83-2.23,3.38-3.28,7.25-4.36,11.08-.59,2.12,1.19,2.82,2.64,3.66,2.81,1.63,3.11,4.35,1.16,6.28-4.78,4.74-5.76,11.04-7.4,16.94-2.04,7.31-6.2,13.5-9.33,20.23-1.18,2.53-2.89,4.79-3.78,7.52-3.53,10.88-19.67,18.34-29.19,17.45-4.03-.37-8.34,2.16-12.49,3.51-.68.22-1.4,1.06-1.08,2.01.37,1.08,1.34.86,2.08.57,2.42-.97,4.94-.5,7.41-.63,1.88-.1,4.95-2.45,5.26.95.25,2.74-1.54,5.7-5.3,6.06-1.8.17-4.19-1.01-5.05,1.83Zm-292.82-88.73c4.05.19,5.32-2.33,5.48-5.77.19-4.04-1.9-6.19-5.87-6.07-3.56.1-6.36,1.34-6.16,5.76.19,4.26,2.43,6.14,6.55,6.09Z"/>
      <path class="cls-8" d="m377.29,409.32c-3.64,6.44-8.91,11.52-13.92,16.81-5.79,1.41-11.81,2.24-17.34,4.35-20.04,7.66-26.98,16.8-34.33,36.88-1.6-.87-1.85-2.37-2.35-3.89-6.13-18.48-19.47-29.08-37.73-34.17-4-1.11-8.09-1.89-12.14-2.83.17-2.42-1.92-3.33-3.25-4.67-4.27-4.32-8.66-8.54-10.72-14.49.93.29,1.89.5,2.78.88,16.42,6.99,32.86,13.85,51.24,13.22,1.28.29,2.55.79,3.84.85,11.77.56,23.5.03,35.05-2.26,8.23-1.63,16.51-3.34,23.91-7.68,2.28.19,3.97-1.44,5.99-1.93,2.98-.72,5.38-4.03,8.95-2.09,0,.34,0,.68.01,1.02Z"/>
      <path class="cls-7" d="m299.53,421.41c-18.38.63-34.82-6.23-51.24-13.22-.89-.38-1.85-.59-2.78-.88-.63-.37-1.26-.74-1.88-1.1-2.65-3.71-6.6-6.04-10.28-8.27-9.13-5.54-16.37-13.07-23.72-20.56,1.18-1.35,2.39-2.17,4.21-.89,4.59,3.21,9.72,5.83,13.77,9.61,6.39,5.97,14.15,10.04,21.65,13.49,15.08,6.94,30.07,14.46,46.33,18.62,1.77.45,3.6.94,3.95,3.2Z"/>
      <path class="cls-16" d="m213.6,396.13c3.51,3.09,2.85,6.11-.15,9.08-2.99.16-6.42.5-6.68-3.61-.28-4.53,3-5.57,6.83-5.47Z"/>
      <path class="cls-1" d="m131.81,473.14c-.85-1.41-2.84-.35-4.16-1.95,24.14,0,47.84.45,71.52-.11,28.67-.68,57.33-.97,86-.9,2.85,0,4.9-.57,5.42-3.7,1.05-.58,2.08-.83,3.28-.28,11.32,5.2,22.76,5.23,34.32.78,1.02-.39,2.06-1.15,3.28-.54,1.56,2.98,3.99,3.79,7.33,3.77,18.91-.13,37.85-.62,56.74.13,29.84,1.18,59.67.7,89.5.89,3.73.02,7.47,0,11.67,0-4.83,2.26-9.95-.33-14.39,1.79-.69.16-1.38.32-2.07.48-9.28-.09-18.56-.26-27.84-.27-22.7,0-45.41.07-68.11.11-10.63.02-21.26.04-31.89.05-5.02-.02-10.03-.05-15.05-.07l-.96-.04c-.64-.05-1.28-.11-1.93-.16-.84-.68-1.59-.17-2.27.25-13.63,8.55-27.27,7.61-40.9.03-1.02-.56-1.87-1.51-3.05-.38-12.54.12-25.09.25-37.64.37-.66-.09-1.31-.25-1.97-.25-33.25.04-66.49.08-99.74.15-1.1,0-2.37-.38-3.19.82-4.63-.41-9.39,1.05-13.91-.98Z"/>
      <path class="cls-1" d="m490.78,467.03c1.33.13,2.66.27,3.99.41-.21,1.99-1.76,1.67-3.02,1.67-21.03.02-42.05.01-63.59.01,3-2.24,6.82.87,9-2.39,16.68-.33,33.36-.46,50.03.26.38,0,.76.02,1.14.02.81,0,1.63,0,2.44.01Z"/>
      <path class="cls-15" d="m401.23,424.07c.63-2.28,2.54-1.83,4.09-1.74,11.91.66,23.72-1.43,35.62-1.08,1.79.05,5.17.93,2.81-3.09-.41-.69-.18-1.39.56-1.53.56-.1,1.46.06,1.78.45,1.23,1.52,2.64,2.97,3.02,5.01-9.21.49-18.41,1.26-27.65,1.38-6.74.09-13.46,1.33-20.24.6Z"/>
      <path class="cls-11" d="m143.67,466.71c-2.53,1.01-5.08.82-7.65.19,2.53-.86,5.09-.71,7.65-.19Z"/>
      <path class="cls-11" d="m148.7,466.65c-.6.72-1.21.73-1.82.02.61,0,1.21-.01,1.82-.02Z"/>
      <path class="cls-11" d="m488.34,467.02c-.38,0-.76-.02-1.14-.02.39-.46.77-.42,1.14.02Z"/>
      <path class="cls-11" d="m130.85,466.2c-.05-.26,0-.49.17-.69.1.21.19.42.29.63-.13.03-.26.05-.4.08,0,0-.06-.02-.06-.02Z"/>
      <path class="cls-12" d="m480.25,473.51c.69-.16,1.37-.32,2.07-.48,5.14.02,10.29.05,15.43.07.09.22.15.45.18.69-5.87.07-11.74.15-17.62.22,0,0-.06-.49-.06-.49Z"/>
      <path class="cls-9" d="m493.98,477.24c-3.61,1.11-7.3,1.11-11.01.86-.27,0-.54,0-.82,0-1.04-.05-2.08-.1-3.12-.14-1.34-1.06-2.66-1.12-3.94.1-3,.06-6,.12-9,.18-16.38-.06-32.75-.1-49.13-.2-11.9-.07-23.8-.23-35.7-.34-.41-2.44,2.13-2.3,3.09-3.54,20.27.06,40.55.12,60.82.18,1.58,1.33,3.48.82,5.24.83,14.54.04,29.08.03,43.63.04-.02.68-.04,1.36-.05,2.04Z"/>
      <path class="cls-3" d="m494.04,475.21c-14.54,0-29.08,0-43.63-.04-1.77,0-3.67.5-5.24-.83,11.71-.11,23.43-.23,35.14-.34,5.87-.07,11.74-.14,17.62-.22-.78,1.89-2.48,1.24-3.88,1.42Z"/>
      <path class="cls-5" d="m466.09,478.24c3-.06,6-.12,9-.18.62,1.31,1.85,1.08,2.95,1.14-3.84,4.46-9.2,5.17-14.55,5.99-13.13,2.02-26.45,1.22-39.64,1.95-9.54.53-19.24,1.95-28.96,1.15-5.57-.46-11.23-.45-16.86.73-4.57.95-9.24-.87-13.83-.74-13.56.38-27.19.63-40.63,2.24-5.16.62-10.75,1.61-15.47,1.12-7.3-.77-14.74-.42-21.91-1.9-3.81-.79-7.21.24-10.8.38-4.32.17-8.65.15-12.96.03-25.25-.71-50.45,1.61-75.69.97-12.5-.32-25.06.73-37.5-1.87-5.68-1.19-11.29-5.6-12.47-11.12,2.33.03,4.66.05,7,.08-.02,2.01.53,3.44,2.82,3.99,6.23,1.5,12.28,3.44,18.92,3.1,9.21-.47,18.47-.12,27.71-.12,19.4,0,38.8,0,58.2,0,8.62,0,17.24.07,25.86-.03,4.28-.05,8.63-2.07,12.77-.7,4.45,1.47,8.96,1.09,13.42,1.69,1.65.01,3.3.03,4.95.04,1.66,1.47,3.33,1.47,5,.01,1.65-.02,3.29-.04,4.94-.06,1.46.07,2.44-.62,3.06-1.91.98-.01,1.97-.03,2.95-.04,9.29-1.99,18.7-2.02,28.15-2.01,36.35.04,72.7.47,109.04-.96,2.1-.08,4.62.5,4.51-2.95Z"/>
      <path class="cls-3" d="m478.04,479.2c-1.11-.07-2.33.17-2.95-1.14,1.28-1.22,2.6-1.16,3.94-.1-.33.41-.66.83-.99,1.24Z"/>
      <path class="cls-3" d="m482.15,478.1c.27.01.55.01.82,0-.28.58-.55.58-.82,0Z"/>
      <path class="cls-10" d="m131.81,473.14c4.52,2.03,9.28.57,13.91.98,13.67.12,27.34.23,41.01.35-.01.24-.02.49-.02.73-.33,0-.66,0-.99.01-18.21,0-36.42,0-54.63-.06-1.71,0-3.7.74-5.06-1.09,1.92-.38,4.1.94,5.78-.92Z"/>
      <path class="cls-14" d="m303.48,486.12c-4.46-.59-8.97-.22-13.42-1.69-4.14-1.36-8.49.65-12.77.7-8.62.1-17.24.03-25.86.03-19.4,0-38.8,0-58.2,0-9.24,0-18.5-.35-27.71.12-6.65.34-12.69-1.6-18.92-3.1-2.29-.55-2.84-1.98-2.82-3.99,12.2-.06,24.4-.11,36.6-.2,2.13-.01,4.3.28,6.35-.61,34.2,1.13,68.42.66,102.63.43.65.25,1.29.49,1.94.74.36,2.52,1.35,3.45,4.3,3.28,3.07-.17,6.65.33,7.89,4.28Z"/>
      <path class="cls-15" d="m289.34,477.82c-34.21.23-68.42.7-102.63-.43-.33-.73-.67-1.46-1-2.19.33,0,.66-.01.99-.01,7.08,0,14.16.12,21.24-.06,3.21-.08,6.57.95,9.63-.88,10.95-.04,21.9-.08,32.86-.12,12.3.02,24.6.05,36.9.07.55.68,1.24,1.04,2.14.9,0,0,.08.08.08.08-.07.88-.13,1.75-.2,2.63Z"/>
      <path class="cls-11" d="m129.66,467.21c.37-.31.74-.61,1.11-.92-.37.31-.74.61-1.11.92Z"/>
      <path class="cls-4" d="m377.29,409.32c0-.34,0-.68-.01-1.02,1.68-2.25,3.99-3.66,6.21-5.32,7.29-5.44,15.69-9.46,21.8-16.46.91-.76,1.82-1.53,2.73-2.29,2.02.12,2.96-.97,3.2-2.86,1.56-2.25,3.6-3.93,6.06-5.11,1.16.19,2.11-.06,3.24-.63,18.2-9.27,26.92-25.33,31.8-44.16,3.38-1,2.93-4.22,3.3-6.54.77-4.85-1.46-10.34,3.44-14.21.17-.14.07-.63.1-.96,11.17-3.75,17.73-11.24,18.76-23.2,0-1.66-.01-3.33-.02-4.99.5-3.19-1.73-5.44-2.76-8.11-.53-2.56-1.7-4.69-4.09-5.98-3.34-3.96-7.31-6.6-12.79-6.01-.31-.62-.61-1.24-.92-1.86-.39-1.58-.95-3.13-1.14-4.73-1.71-14.3-6.79-27.49-13.15-40.26-1.41-6.99-5.56-12.55-9.62-18.1-12.17-16.62-27.79-29.27-45.36-39.85-17.85-10.75-37.26-16.31-57.69-19.02-3.69-3.58-7.85-1.69-11.91-1.03-11.01.53-22.02-.01-33.02,2.04-20.07,3.74-39.02,9.7-56.5,20.81-13.42,8.53-25.18,18.55-35.03,30.85-5.53,6.9-11.17,13.88-13.54,22.72-1.59.78-1.75,2.18-1.62,3.71-.35.64-.71,1.28-1.06,1.92-.79.43-1,1.16-.99,1.99-.06.31-.1.63-.12.94-2.31,1.8-2.99,4.26-2.82,7.05-1.38,1.08-.93,2.6-.97,4-3.04,8.42-4.6,17.24-6.78,25.88-2.08,1.06-4.15,2.12-6.23,3.17-2.08-.48-3.31.75-4.68,2.06-3.44,3.32-6.59,6.87-9.34,10.79-4.18.92-5.52-4.47-9.4-4.26-.11,0-.39-.58-.35-.87,1.19-10.35-3.83-21.35,3.25-31.08-.59-7.9,3.88-14.58,5.22-21.93.69-3.76,2.02-8.13-.27-12.13-.33-.57-.24-1.83.17-2.31,4.39-5.14,4.84-12.01,8.01-17.74,7.87-14.23,14.5-29.01,24.83-41.96,6.77-8.49,16.03-14.89,20.86-24.98,1.83-3.83,9.06-2.12,8.97-5.19-.14-5,3.3-5.79,5.55-8.23,7.31-7.92,18.14-9.46,26.79-14.97,7.15-4.56,15.48-6.94,23.41-9.11,9.49-2.59,18.06-7.98,28.31-8.5,4.4-.23,8.71.53,13.21.05,9.29-.99,18.64-1.7,28.21-.82,7.93.73,15.89,1.52,23.83,2.38,4.39.47,7.92,3.32,12.15,4.29,14.55,3.34,27.59,10.37,39.73,18.56,9.36,6.31,20.03,11.16,27.37,20.18,4.95,6.09,9.25,12.7,14.07,18.91,6.6,8.5,13.38,16.9,18.99,26.07,7.18,11.72,14.75,23.4,19,36.53,2.61,8.07,5.62,16.06,7.64,24.36,2,8.18,5.37,16.01,5.87,24.56.54,9.34,1.83,18.76-.65,27.93-4.59,16.97-8.74,34.09-14.81,50.62-.74,2.02-1.52,4.22-2.91,5.76-2.48,2.73-2.99,5.75-2.77,9.17.21,3.38-1.09,5.53-4.62,6.64-4.95,1.57-7.35,6.58-5.81,11.2.34,1.03.4,1.97-.14,2.86-7.37,12.17-14.68,24.26-27.1,32.36-5.82,3.8-12.7,5.97-17.66,10.9-2.67,2.66-5.44,5.68-8.87,5.87-5.26.29-10.26,2.14-15.62,1.73-5.93-.45-11.66-.1-17.29,3.15-4.38,2.53-4.42-2.68-5.64-5.24Zm81.88-85.77l-.9,1.01c-.04,1.16-.22,2.33-.11,3.48.3,2.96,2.73,5.11,4.89,5.06,2.31-.06,6.06.04,6.89-3.46.67-2.78.4-5.53-2.54-7.4-1.76-1.12-3.53-.42-5.27-.71-.83-.05-1.55.14-1.99.93l-.04.04c-.31.34-.61.68-.92,1.02l-.02.02ZM192.48,164.8c4.14,0,9.14-3.88,9.18-7.12.06-5.46-4.74-9.2-11.77-9.17-2.17.01-6.19,5.82-6.08,8.79.13,3.45,4.81,7.49,8.67,7.49Zm236.98-15.01c-6.13.14-8.58,1.94-8.24,6.52.42,5.67,3.65,8.92,8.02,8.57,5.79-.46,7.64-4.04,7.87-9.07.18-4.06-2.63-6.14-7.64-6.02Zm41.63,78.14c.03-5.1-1.83-7.19-6.44-7.26-3.66-.06-7.33,3.32-7.44,6.86-.11,3.31,3.37,7,6.7,7.1,4.51.14,7.16-2.33,7.18-6.7Zm-306.34-.36c-.03-4.26-2.52-6.89-6.54-6.91-3.77-.02-7.48,3.55-7.4,7.11.07,3.39,3.59,6.87,6.96,6.89,4.27.03,7.02-2.76,6.99-7.1Zm46.95-94.65c-4.17-.83-6.17,1.6-6.89,5.13-.55,2.68,3.31,6.01,6.62,5.68,3.15-.31,5.14-1.93,5.19-5.62.05-3.63-.71-5.91-4.92-5.19Zm195.54,268.36c-.82,4.17,2.98,4.34,5.56,4.52,1.45.1,3.93-1.12,3.71-4.13-.25-3.45-.99-5.52-5.14-5.44-3.53.07-4.16,1.86-4.13,5.05Zm-3.82-272.49c2.11-.08,1.67-1.72,1.82-2.88.31-2.4-1.42-2.05-2.88-2.02-1.27.03-2.28.33-2.1,1.94.22,1.93,1.33,2.86,3.15,2.96Zm-171.97-3.1c-.23-2.18-1.81-1.74-3.05-1.78-1.27-.04-2.57.57-2.46,1.82.14,1.51,1.4,2.74,2.97,2.88,2.02.17,1.69-2.01,2.54-2.92Z"/>
      <path class="cls-5" d="m299.53,421.41c-.36-2.25-2.18-2.74-3.95-3.2-16.26-4.16-31.25-11.69-46.33-18.62-7.5-3.45-15.26-7.52-21.65-13.49-4.05-3.78-9.18-6.4-13.77-9.61-1.82-1.27-3.03-.46-4.21.89-.33-.09-.65-.18-.98-.26-.54-.42-1.07-.84-1.61-1.27,0,0,.17.13.17.13-.38-.34-.76-.68-1.13-1.03-3.79-6.06-9.6-10.69-12.41-17.46-.04-.88-.25-1.66-1.2-1.99l.07.1c.08-4.27-2.56-7.13-5.2-9.99l.06.15c-.28-2.84-.4-5.75-3.35-7.36-.2-.26-.31-.54-.35-.87,0-1.16.13-2.37-1.14-3.06,0,0,.07.09.07.09-.76-8.64-2.78-16.99-5.91-25.08.14-5.01-1.58-9.9-.96-14.94,2.03-1.37,3.49-.47,4.52,1.32,1.32,2.29,2.63,4.61,3.66,7.04,5.43,12.78,10.84,25.58,16.13,38.42,7.84,19.05,20.25,34.4,38.55,43.83,24.25,12.5,48.15,26.41,76.27,28.76,7.41.62,14.99,1.87,22.25.92,6.82-.89,13.8-1.54,20.53-3.35,1.54-.42,3.33-.6,4.67.84-7.4,4.34-15.68,6.05-23.91,7.68-11.56,2.28-23.29,2.82-35.05,2.26-1.29-.06-2.56-.56-3.84-.85Z"/>
      <path class="cls-1" d="m193.66,357.5c2.81,6.77,8.62,11.4,12.41,17.46-.2.48-.41.95-.61,1.43-9.12-2-14.84-8.8-20.32-15.37-7.62-9.13-12.82-19.67-14.94-31.58-.76-4.29-.26-8.54-.38-12.81.94-1.71,1.89-3.42,2.84-5.12.36-.08.72-.17,1.08-.25.33,0,.67,0,1,0,1.88.75,1.73,2.4,2.09,4.03,1.46,6.57,2.03,13.42,5.8,19.3,0,0-.07-.09-.07-.09.33,1.04-.34,2.45,1.14,3.06.03.32.15.61.35.87.3,2.83.68,5.62,3.35,7.36,0,0-.06-.15-.06-.15.61,3.91,2,7.42,5.19,9.99,0,0-.07-.1-.07-.1.06.87.4,1.57,1.2,1.99Z"/>
      <path class="cls-5" d="m146.25,293.4c-1.68-4.46-1.96-9.02-1.07-13.68,2.19.15,3.42-2.06,5.49-2.23-2.91,10.38-2.31,12.12,6.48,18.69.93.69,1.95,1.27,2.79,2.06,3.71,3.47,7.78,6.7,8.84,12.12-2.14.65-3.89-1.08-5.93-1-3.42-3.3-5.49-8.38-11.3-8.5,0,0-.08-.1-.07-.1-.14-3.58-3.21-5.08-5.21-7.35Z"/>
      <path class="cls-11" d="m158.29,333.41c-4.11.05-6.35-1.84-6.54-6.1-.2-4.42,2.6-5.66,6.16-5.76,3.96-.11,6.06,2.03,5.87,6.07-.16,3.44-1.43,5.95-5.49,5.78Z"/>
      <path class="cls-3" d="m145.79,274.57c2.74-3.92,5.89-7.47,9.34-10.79,1.36-1.31,2.6-2.54,4.68-2.06-1.29,2.85-4.55,4.39-5.13,7.71-.38.98-1.05,1.67-2.03,2.06-3.78.53-4.54,4.86-7.72,6.14.29-1.02.58-2.04.87-3.05Z"/>
      <path class="cls-15" d="m162.83,309.35c2.05-.08,3.79,1.64,5.93,1,1.3.39,2.6.77,3.91,1.16-.95,1.71-1.89,3.42-2.84,5.12-1.21-4.55-6.13-2.59-8.77-4.89-1.11-.97-2.37-1.4-2.32-3.1,1.36.24,2.73.47,4.09.71Z"/>
      <path class="cls-7" d="m162.83,309.35c-1.36-.24-2.73-.47-4.09-.71-2.38-2.62-6.11-4-7.2-7.8,5.81.12,7.88,5.21,11.29,8.51Z"/>
      <path class="cls-7" d="m144.92,277.63c3.18-1.28,3.94-5.61,7.72-6.14-.3,1.34-.6,2.68-.9,4.02-.36.66-.72,1.32-1.08,1.98-2.06.17-3.29,2.38-5.49,2.23-.08-.7-.17-1.39-.25-2.09Z"/>
      <path class="cls-7" d="m146.25,293.4c2,2.26,5.07,3.76,5.21,7.35-3.02-1.54-5.31-3.59-5.21-7.35Z"/>
      <path class="cls-7" d="m207.04,375.85c.54.42,1.07.84,1.61,1.27-.75-.15-1.51-.3-2.26-.45.26-.26.51-.53.77-.79,0,0-.12-.03-.12-.03Z"/>
      <path class="cls-7" d="m205.46,376.38c.21-.48.41-.95.61-1.43.38.34.75.69,1.13,1.03,0,0-.05-.1-.05-.1-.26.26-.51.52-.77.79-.32-.07-.63-.17-.93-.29Z"/>
      <path class="cls-14" d="m150.66,277.49c.36-.66.72-1.32,1.08-1.98,3.19-.78,5.17-2.78,5.97-5.96.66-.35,1.31-.71,1.97-1.06,2.06.07,4.12.52,5.36,2.17,1.77,2.35,2.96,5.14,4.8,7.42,1.44,1.79,1.6,5.97,4.57,4.92,2.74-.98.89-4.71,1.36-7.18,1.04-4.32,2-8.66,1.86-13.15.06-.37.11-.73.17-1.1,8.06-3.8,7.82-3.58,13.87,3.29,5.16,5.86,5.71,12.88,5.92,19.92.57,19.13,5.18,36.11,21.77,48.1,7.01,5.07,14.11,9.56,22.29,12.44,11.08,3.9,22.72,3.8,34.16,5.01,7.58.81,7.62.45,8.8,7.74.29,1.79.73,3.57.83,5.37.19,3.29,1.89,5.31,5.01,5.89,3.44.64,6.49,2.05,8.31,4.95,5.03,8,13.23,10.5,21.47,13.24,3.59,1.2,7.05,2.99,10.3,4.97,11.49,7.01,24.02,7.23,36.53,4.91,11.4-2.11,22.33-6.11,32.69-11.55,1.47-.77,4.19-3.41,5.53.66-6.1,7-14.5,11.02-21.8,16.46-2.23,1.66-4.54,3.06-6.21,5.32-3.58-1.95-5.98,1.37-8.95,2.09-2.01.48-3.71,2.12-5.99,1.93-1.35-1.44-3.13-1.25-4.67-.84-6.73,1.82-13.71,2.46-20.53,3.35-7.25.95-14.84-.3-22.25-.92-28.12-2.35-52.02-16.25-76.27-28.76-18.3-9.44-30.71-24.78-38.55-43.83-5.28-12.85-10.7-25.64-16.13-38.42-1.03-2.43-2.34-4.75-3.66-7.04-1.03-1.79-2.49-2.69-4.52-1.32-2.86-7-8.27-12.11-13.16-17.58-2.59-2.9-4.98-2.38-7.35.56-3.39,4.21-2.03,8.11,3.7,13.22,6.37,5.69,14.48,10.35,14.79,20.49-.36.08-.72.17-1.08.25-1.3-.39-2.6-.77-3.91-1.16-1.06-5.41-5.12-8.64-8.84-12.12-.84-.78-1.86-1.37-2.79-2.06-8.78-6.57-9.39-8.31-6.48-18.69Z"/>
      <path class="cls-15" d="m384.35,474.16c-.96,1.24-3.5,1.1-3.09,3.54-1.97.1-3.94.26-5.91.27-13.66.12-27.33.21-40.99.3-1.14-.21-2.29-.42-3.43-.63.46-.36.92-.72,1.38-1.09.35-.51.69-1.02,1.04-1.53.37-.63.74-1.27,1.11-1.9.64.05,1.28.11,1.93.16.3.46.62.48.96.04,5.02.02,10.03.05,15.05.07,1.27,1.08,2.8.77,4.25.77,9.21,0,18.41-.03,27.62-.05l.07.04Z"/>
      <path class="cls-11" d="m332.31,476.57c-.46.36-.92.72-1.38,1.09-13,5.68-25.97,6.78-38.88-.28-.84-.72-1.19-2-2.51-2.17,0,0-.08-.08-.08-.08-.32-.34-.64-.68-.96-1.02-.09-.35-.18-.71-.26-1.06,1.18-1.13,2.03-.18,3.05.39,13.63,7.57,27.27,8.51,40.9-.03.68-.42,1.43-.93,2.27-.25-.37.63-.74,1.27-1.11,1.9-.73.25-1.09.75-1.04,1.53Z"/>
      <path class="cls-2" d="m250.43,474.14c-10.95.04-21.9.08-32.86.12-10.28.07-20.57.14-30.85.21-13.67-.12-27.34-.23-41.01-.35.82-1.2,2.08-.81,3.19-.82,33.25-.07,66.49-.11,99.74-.15.66,0,1.31.17,1.97.25,0,.26-.06.51-.18.74Z"/>
      <path class="cls-2" d="m480.3,474c-11.71.11-23.43.22-35.14.34-20.27-.06-40.55-.12-60.82-.18,0,0-.07-.04-.07-.04-.01-.26,0-.52.01-.77,22.7-.04,45.41-.11,68.11-.11,9.28,0,18.56.17,27.84.27,0,0,.06.49.06.49Z"/>
      <path class="cls-6" d="m250.43,474.14c.12-.23.18-.48.18-.74,12.55-.12,25.09-.24,37.64-.37.09.35.17.71.26,1.06-.39.04-.79.08-1.18.12-12.3-.02-24.6-.05-36.9-.07Z"/>
      <path class="cls-9" d="m384.29,473.35c-.02.26-.03.52-.01.77-9.21.02-18.41.05-27.62.05-1.45,0-2.99.3-4.25-.77,10.63-.02,21.26-.04,31.89-.05Z"/>
      <path class="cls-9" d="m337.35,473.34c-.34.44-.66.42-.96-.04.32.01.64.03.96.04Z"/>
      <path class="cls-14" d="m334.36,478.28c13.66-.1,27.33-.19,40.99-.3,1.97-.02,3.94-.18,5.91-.27,11.9.12,23.8.27,35.7.34,16.38.1,32.75.14,49.13.2.1,3.45-2.41,2.86-4.51,2.95-36.34,1.43-72.69,1-109.04.96-9.45-.01-18.86.03-28.15,2.01,1.23-3.11,4.24-2.49,6.59-2.89,1.98-.34,3.55-.52,3.38-3Z"/>
      <path class="cls-8" d="m334.36,478.28c.16,2.49-1.4,2.66-3.38,3-2.35.4-5.36-.23-6.59,2.89-.98.01-1.97.02-2.95.04-1.45-.06-2.81.03-3.06,1.91-1.65.02-3.29.04-4.94.06-1.67-1.44-3.33-1.43-5-.01-1.65-.01-3.3-.03-4.95-.04-1.25-3.95-4.83-4.45-7.89-4.28-2.95.17-3.94-.77-4.3-3.28.72-.1.75-.64.76-1.2,12.91,7.06,25.88,5.96,38.88.28,1.14.21,2.29.42,3.43.63Z"/>
      <path class="cls-14" d="m308.43,486.16c1.67-1.42,3.34-1.43,5,.01-1.67,1.46-3.34,1.46-5-.01Z"/>
      <path class="cls-14" d="m318.37,486.11c.25-1.87,1.61-1.97,3.06-1.91-.62,1.28-1.6,1.98-3.06,1.91Z"/>
      <path class="cls-9" d="m186.73,474.47c10.28-.07,20.57-.14,30.85-.21-3.06,1.83-6.42.8-9.63.88-7.08.18-14.16.06-21.24.06,0-.24,0-.49.02-.73Z"/>
      <path class="cls-3" d="m292.05,477.37c0,.56-.04,1.1-.76,1.2-.65-.25-1.3-.5-1.94-.75.07-.88.13-1.75.2-2.63,1.31.18,1.67,1.46,2.51,2.17Z"/>
      <path class="cls-3" d="m287.33,474.21c.39-.04.79-.08,1.18-.12.32.34.64.68.96,1.02-.9.13-1.58-.22-2.14-.9Z"/>
      <path class="cls-8" d="m405.28,386.53c-1.34-4.07-4.06-1.43-5.53-.66-10.36,5.44-21.29,9.44-32.69,11.55-12.51,2.32-25.04,2.1-36.53-4.91-3.24-1.98-6.71-3.78-10.3-4.97-8.23-2.75-16.44-5.25-21.47-13.24-1.82-2.9-4.88-4.3-8.31-4.95-3.12-.58-4.81-2.6-5.01-5.89-.11-1.8-.54-3.58-.83-5.37-1.18-7.3-1.22-6.94-8.8-7.74-11.44-1.21-23.08-1.11-34.16-5.01-8.18-2.88-15.28-7.37-22.29-12.44-16.59-11.99-21.2-28.97-21.77-48.1-.21-7.03-.76-14.06-5.92-19.92-6.05-6.88-5.81-7.09-13.87-3.29-.54-1.67-3.72-1.94-2.72-4.22,2.68-6.15,3.38-12.88,6.06-19.06,2.91-6.72,6.83-13.14,7.44-20.71,8.89-11.84,19.53-21.87,30.95-31.28,15.42-12.7,32.92-20.87,51.92-26.26-2,4.28-6.69,3.81-10.1,5.53-3.29,1.66-5.53,4.15-4.54,7.32,1.32,4.19,1.02,8.56,2.27,12.58,3.06,9.91,5.45,20.12,11.66,28.81,2.3,3.22,3.92,6.91,6.06,10.26,1.36,2.13.23,4.68,2.15,6.91,7.96,9.24,15.72,18.67,24.55,27.08,9.13,8.69,14.6,12.81,26.17,4.29,1.94-1.43,3.75-3.39,6.53-3.21-2.33,3.95-6.3,6.96-6.87,11.93l-.62.93c-.12.33-.25.65-.37.98-5.33,10.85-5.17,22-1.92,33.35,4.61,16.09,21.9,30.96,37.86,32.52,3.07.39,6.22,1.39,9.21,1.06,14.65-1.6,27.66-6.82,37-18.82,8.99-11.56,11.28-24.82,8.91-39.06,2.15.52,2.45,2.3,2.79,4.06-1.17,9.84,3.11,19.08,3.18,28.8.01,1.42.87,2.89,2.2,3.73,4.14,2.6,9.02,1.01,13.46,2.25,2.41.67,1.92-3.19,3.93-3.82.02.99.26,2.04.03,2.96-4.66,18.71-12.56,35.85-24.66,50.98-1.17,1.46-3.29,2.44-3.06,4.83-2.46,1.18-4.5,2.86-6.06,5.11-1.81.12-2.88,1.07-3.2,2.86-.91.76-1.82,1.53-2.73,2.29Zm-112.74-21.96c3.61,1.32,7.23,1.26,10.85.03,8.72-.05,17.45-.21,26.17-.09,3.45.05,6.01-1.29,6.68-4.43.74-3.45-1.72-5.22-4.94-5.87-1.45-1.16-3.17-.74-4.78-.75-9.59-.05-19.19-.07-28.78-.03-1.77,0-3.67-.52-5.25.82-2.77.48-4.93,1.92-4.94,4.85,0,3.02,2.05,4.8,4.98,5.48Zm-53.06-117.98l.04-.08c-3.13,0-5.72,1.6-8.38,2.89-30.04,14.63-35.55,53.69-13.61,75.41,13.29,13.15,28.63,19.22,47.78,12.93,12.4-4.08,21.82-10.93,28.22-22.14,3.36-4.8,4.51-10.32,5.4-15.98,2.15-13.66-.4-26.84-9.05-37.08-12.64-14.96-29.56-20.95-49.32-16.67-.66-.19-.93.19-1.09.74Z"/>
      <path class="cls-5" d="m422.2,286.54c-.34-1.76-.64-3.55-2.79-4.06-3.41-16.31-12.87-27.22-28.12-34.22-8.3-3.81-16.56-3.28-24.99-3.78-1.32-1.23-2.72-.61-4.2-.3-8.2,1.66-15.45.56-21.88-5.7-3.66-3.57-7.24-7.31-11.19-10.59-15.86-13.19-28.8-28.77-38.69-46.86-3.01-5.5-6.15-10.96-6.89-17.42-.42-3.61,1.21-5.22,4.52-5.69,3.09-.44,6.17-.88,9.26-1.32-.12-.24-.2-.5-.37-.7-.09-.1-.31-.09-.47-.13,6.92-2.11,13.99-.5,20.98-.81-.85,1.07-2.07.92-3.21.93-2.03.02-2.63.7-1.8,2.77,2.22,5.54,4.05,11.24,7.52,16.21,10.33,14.77,22.8,27.57,36.52,39.14,6.56,5.53,13.3,10.85,20.32,15.85,6.63,4.73,13.65,8.76,20.4,13.24,13.77,9.14,28.46,16.06,44.58,19.85,1.49.35,2.22.08,2.5-1.38l8.14-1.61c-5.46,4.48-6.62,7.52-3.71,11.33,3.44,4.5,7.6,8.13,13.54,9.15,8.11,1.4,10.16.38,12.96-6.96,1.03,2.66,3.26,4.92,2.76,8.11-.8.14-1.79.03-2.38.46-8.46,6.18-16.34,4.17-24.04-1.52-1.15-.85-2.43-1.52-4.57-2.83.72,3.55-.72,6.31,1.21,8.86-.4,4.65.87,9.41-1,13.96-10.01,4.18-15.28,2.08-20.43-7.84-1.15-2.21-1.31-5.32-4.48-6.11Z"/>
      <path class="cls-16" d="m317.36,154.94c-6.99.31-14.06-1.3-20.98.81-7.87-.57-15.27,2.19-22.9,3.28-.7-.26-.9.22-1.08.73-.32.09-.64.18-.96.27-19,5.4-36.51,13.56-51.92,26.26-11.42,9.41-22.06,19.44-30.95,31.28-2.87.42-5.71.68-7.79-1.99-.13-.85-.26-1.71-.4-2.56,2.38-8.84,8.02-15.82,13.54-22.72,9.85-12.29,21.61-22.32,35.03-30.85,17.47-11.1,36.43-17.07,56.5-20.81,10.99-2.05,22.01-1.51,33.01-2.04,3.8,2.29,7.92.89,11.91,1.03,20.42,2.71,39.83,8.27,57.69,19.02,17.57,10.58,33.19,23.23,45.36,39.85,4.06,5.55,8.21,11.11,9.62,18.1-5.9,4.47-8.14,4.02-12.34-.85-2.97-3.45-5.44-7.46-9.27-10.16-3.04-3.66-6.51-6.88-10.19-9.89-1.11-.95-2.21-1.92-3.35-2.84-16.16-13.04-33.49-23.98-53.63-29.86-.29-.07-.59-.09-.89-.08-.28-.17-.59-.21-.91-.13-11.34-4.12-23.11-5.68-35.11-5.87Z"/>
      <path class="cls-8" d="m421.43,203.61c3.83,2.69,6.3,6.71,9.27,10.16,4.2,4.88,6.44,5.32,12.34.85,6.36,12.78,11.43,25.96,13.15,40.26.19,1.6.75,3.15,1.14,4.73-.52.29-1.04.57-1.56.86-.4.1-.8.19-1.2.29-.75-.27-1.49-.55-2.24-.82-2.71.54-5.42,1.07-8.14,1.61-.18-10.03-4.28-18.97-7.84-28.06-3.34-7.21-6.48-14.51-11.15-21.05-1.77-2.47-4.99-4.01-5.15-7.57.46-.42.92-.84,1.38-1.26Z"/>
      <path class="cls-1" d="m417.28,376.27c-.23-2.38,1.89-3.37,3.06-4.83,12.1-15.13,20-32.27,24.66-50.98.23-.93,0-1.97-.03-2.96.73-2.3,1.45-4.6,2.18-6.9,1.2-.41,1.98.51,2.93.9,4.79,6.2,3.12,13.13,2.23,19.97-4.88,18.84-13.59,34.89-31.8,44.16-1.13.58-2.08.82-3.24.63Z"/>
      <path class="cls-8" d="m450.08,311.51c-.95-.4-1.73-1.31-2.93-.9-.02-3.37-.03-6.74-.05-10.11,1.87-4.54.6-9.31,1-13.96,4.41.17,7.76,3.48,12.1,4.01,6.43.79,12.28-.5,17.69-3.99-1.03,11.96-7.59,19.45-18.76,23.2-2.93,1.05-6.25.07-9.06,1.74Z"/>
      <path class="cls-5" d="m180.78,215.59c2.09,2.67,4.92,2.41,7.79,1.99-.61,7.57-4.53,13.99-7.44,20.71-2.67,6.18-3.37,12.91-6.06,19.06-.99,2.28,2.18,2.55,2.72,4.22-.06.37-.11.73-.17,1.1-5.32.28-6.8,2.15-5.41,6.96.67,2.33,1.25,4.76,3.54,6.18-.47,2.47,1.38,6.21-1.36,7.18-2.97,1.06-3.13-3.13-4.57-4.92-1.84-2.28-3.03-5.07-4.8-7.42-1.24-1.65-3.3-2.1-5.36-2.17.12-1.29,1.33-1.71,2-2.56,2.3-2.92,6.52-3.66,8.17-7.27,2-7.33,4-14.67,6-22,2.99-4.24,2.23-9.69,4.59-14.2.78-1.49-.89-2.56-2.52-2.84-.05-.32-.12-.64-.2-.95.35-.64.71-1.28,1.06-1.92.67-.38,1.34-.77,2.01-1.15Z"/>
      <path class="cls-2" d="m452.33,259.94c.75.27,1.49.55,2.24.82-2.82,7.86,4.26,11.81,11.46,12.75,6.1.79,6.55,0,5.01-6.02,2.39,1.29,3.56,3.41,4.09,5.98-2.8,7.33-4.85,8.35-12.96,6.96-5.94-1.02-10.1-4.65-13.54-9.15-2.91-3.81-1.76-6.85,3.71-11.33Z"/>
      <path class="cls-11" d="m192.48,164.8c-3.87,0-8.54-4.03-8.67-7.49-.11-2.97,3.9-8.78,6.08-8.79,7.03-.04,11.83,3.7,11.77,9.17-.03,3.23-5.04,7.11-9.18,7.12Z"/>
      <path class="cls-1" d="m429.45,149.79c5.01-.11,7.82,1.96,7.64,6.02-.22,5.03-2.08,8.61-7.87,9.07-4.36.34-7.6-2.9-8.02-8.57-.34-4.58,2.11-6.39,8.24-6.52Z"/>
      <path class="cls-14" d="m477.9,286.57c-5.41,3.48-11.27,4.77-17.69,3.99-4.34-.53-7.69-3.84-12.1-4.01-1.93-2.55-.49-5.3-1.21-8.86,2.14,1.32,3.42,1.98,4.57,2.83,7.69,5.69,15.58,7.7,24.04,1.52.59-.43,1.58-.32,2.38-.46,0,1.66.01,3.33.02,4.99Z"/>
      <path class="cls-12" d="m471.04,267.5c1.53,6.01,1.08,6.81-5.01,6.02-7.19-.94-14.28-4.89-11.46-12.75.4-.09.8-.19,1.2-.29.57.97,1.44,1.19,2.48,1.01,5.48-.59,9.45,2.05,12.79,6.01Z"/>
      <path class="cls-16" d="m471.08,227.93c-.02,4.36-2.67,6.83-7.18,6.7-3.33-.1-6.81-3.79-6.7-7.1.12-3.54,3.78-6.92,7.44-6.86,4.61.07,6.46,2.16,6.44,7.26Z"/>
      <path class="cls-16" d="m164.74,227.57c.03,4.34-2.71,7.13-6.99,7.1-3.37-.02-6.89-3.5-6.96-6.89-.08-3.57,3.63-7.13,7.4-7.11,4.02.02,6.52,2.65,6.54,6.91Z"/>
      <path class="cls-1" d="m462.13,321.55c1.74.29,3.51-.41,5.27.71,2.94,1.87,3.21,4.62,2.54,7.4-.84,3.49-4.58,3.4-6.89,3.46-2.16.05-4.6-2.1-4.89-5.06-.11-1.14.06-2.32.11-3.48.3-.34.6-.68.9-1.02,0,0,.02-.02.02-.02.31-.34.61-.68.92-1.02,0,0,.04-.04.04-.04.77-.07,1.67.1,1.99-.93Z"/>
      <path class="cls-11" d="m211.7,132.92c4.22-.72,4.98,1.56,4.92,5.19-.05,3.69-2.05,5.31-5.19,5.62-3.32.33-7.17-3-6.62-5.68.72-3.53,2.72-5.96,6.89-5.13Z"/>
      <path class="cls-2" d="m175.84,236.66c-2,7.33-4,14.67-6,22-1.27-.04-2.54-.07-3.81-.11,2.18-8.65,3.74-17.46,6.78-25.88,2.42.26,1.85,2.8,3.04,4Z"/>
      <path class="cls-16" d="m407.24,401.28c-.03-3.19.59-4.98,4.13-5.05,4.16-.08,4.9,1.99,5.14,5.44.21,3.01-2.26,4.23-3.71,4.13-2.58-.18-6.38-.34-5.56-4.52Z"/>
      <path class="cls-15" d="m450.08,311.51c2.81-1.67,6.13-.69,9.06-1.74-.03.33.08.82-.1.96-4.89,3.87-2.66,9.37-3.44,14.21-.37,2.32.08,5.54-3.3,6.54.89-6.84,2.56-13.76-2.23-19.97Z"/>
      <path class="cls-7" d="m175.84,236.66c-1.19-1.2-.61-3.74-3.04-4,.04-1.4-.41-2.93.97-4,1.79-2.01,3.01-4.25,2.82-7.05.02-.32.06-.63.12-.94.4-.35.8-.69,1.19-1.04,1.63.28,3.3,1.35,2.52,2.84-2.35,4.51-1.59,9.96-4.59,14.2Z"/>
      <path class="cls-7" d="m166.03,258.55c1.27.04,2.54.07,3.81.11-1.65,3.62-5.86,4.35-8.16,7.27-.67.85-1.88,1.27-2,2.56-.66.35-1.31.7-1.97,1.06-1.01-.04-2.03-.08-3.04-.12.58-3.32,3.84-4.86,5.13-7.71,2.08-1.06,4.15-2.12,6.23-3.17Z"/>
      <path class="cls-11" d="m403.42,128.8c-1.82-.1-2.94-1.03-3.15-2.96-.18-1.61.82-1.91,2.1-1.94,1.46-.03,3.19-.37,2.88,2.02-.15,1.16.29,2.8-1.82,2.88Z"/>
      <path class="cls-11" d="m231.45,125.7c-.85.91-.52,3.09-2.54,2.92-1.56-.13-2.83-1.37-2.97-2.88-.11-1.26,1.19-1.86,2.46-1.82,1.24.04,2.82-.4,3.05,1.78Z"/>
      <path class="cls-6" d="m330.38,137.66c-3.99-.14-8.11,1.26-11.91-1.03,4.06-.65,8.22-2.55,11.91,1.03Z"/>
      <path class="cls-10" d="m176.59,221.61c.19,2.8-1.02,5.04-2.82,7.05-.17-2.8.5-5.25,2.82-7.05Z"/>
      <path class="cls-10" d="m408.01,384.24c.33-1.78,1.39-2.74,3.2-2.86-.24,1.88-1.18,2.98-3.2,2.86Z"/>
      <path class="cls-10" d="m180.78,215.59c-.67.38-1.34.77-2.01,1.15-.13-1.53.03-2.94,1.62-3.71.13.86.26,1.71.4,2.56Z"/>
      <path class="cls-2" d="m458.25,261.48c-1.04.18-1.91-.04-2.48-1.01.52-.28,1.04-.57,1.56-.85.31.62.61,1.24.92,1.86Z"/>
      <path class="cls-15" d="m462.13,321.55c-.32,1.03-1.22.86-1.99.93.44-.8,1.16-.99,1.99-.93Z"/>
      <path class="cls-10" d="m177.91,219.62c-.4.35-.8.69-1.19,1.04-.01-.83.2-1.56.99-1.99.09.31.15.63.2.95Z"/>
      <path class="cls-15" d="m460.1,322.52c-.31.34-.61.68-.92,1.02.31-.34.61-.68.92-1.02Z"/>
      <path class="cls-15" d="m459.16,323.56c-.3.34-.6.68-.9,1.02.3-.34.6-.68.9-1.02Z"/>
      <path class="cls-8" d="m173.74,311.25c-.31-10.15-8.42-14.8-14.79-20.49-5.73-5.12-7.09-9.02-3.7-13.22,2.37-2.94,4.76-3.46,7.35-.56,4.89,5.48,10.3,10.58,13.16,17.58-.62,5.04,1.1,9.93.96,14.94-1.1.08-1.82.6-1.97,1.75-.33,0-.67,0-1,0Z"/>
      <path class="cls-14" d="m174.75,311.25c.16-1.15.87-1.67,1.97-1.75,3.13,8.09,5.15,16.43,5.91,25.08-3.77-5.88-4.34-12.74-5.8-19.3-.36-1.63-.21-3.28-2.09-4.03Z"/>
      <path class="cls-14" d="m192.53,355.6c-3.19-2.57-4.58-6.08-5.19-9.99,2.63,2.86,5.28,5.71,5.19,9.99Z"/>
      <path class="cls-14" d="m187.4,345.77c-2.68-1.74-3.06-4.53-3.35-7.36,2.96,1.61,3.08,4.52,3.35,7.36Z"/>
      <path class="cls-14" d="m183.7,337.54c-1.48-.61-.81-2.02-1.14-3.06,1.27.69,1.14,1.9,1.14,3.06Z"/>
      <path class="cls-14" d="m193.66,357.5c-.8-.42-1.13-1.13-1.2-1.99.95.33,1.16,1.11,1.2,1.99Z"/>
      <polygon class="cls-1" points="207.15 375.88 207.2 375.98 207.04 375.85 207.15 375.88"/>
      <path class="cls-5" d="m154.67,269.43c1.01.04,2.03.08,3.04.12-.8,3.18-2.78,5.18-5.97,5.96.3-1.34.6-2.68.9-4.02.98-.39,1.66-1.07,2.03-2.06Z"/>
      <path class="cls-2" d="m175.77,275.81c-2.29-1.42-2.87-3.86-3.54-6.18-1.4-4.81.09-6.68,5.41-6.96.14,4.49-.83,8.82-1.86,13.15Z"/>
      <path class="cls-3" d="m332.31,476.57c-.05-.78.3-1.28,1.04-1.53-.35.51-.69,1.02-1.04,1.53Z"/>
      <path class="cls-1" d="m366.3,244.48c8.43.5,16.7-.03,24.99,3.78,15.25,7,24.7,17.91,28.12,34.22,2.36,14.24.08,27.49-8.91,39.06-9.33,12-22.35,17.22-37,18.82-3,.33-6.14-.67-9.21-1.06.86-4.25,5.08-3.03,7.62-4.47,7.49-4.24,8.16-8.14.96-12.46-5.19-3.11-10.98-5.23-16.47-7.87-3.41-1.64-6.37-4.32-10.26-4.84-8.72-1.16-12.74-6.94-14.66-14.74-1.73-7.05-.78-14.51-3.14-21.49.12-.33.25-.65.37-.98.21-.31.41-.62.62-.93.58-4.97,4.54-7.98,6.87-11.93,1.17-1.61,2.59-2.87,4.21-4.07,7.78-5.73,16.42-9.33,25.89-11.06Zm-1.01,36.42c.13-.8-.28-1.15-1.02-1.24l.02-.02c-1.17-1.71-3.05-.89-4.58-1.24-4.95-1.13-9.28,1.22-11.97,6.31-2.47,4.68-1.65,8.87,2.51,12.86,4.71,4.52,8.06,5.05,13.05,2.07l1.18-1.12c.27,0,.53-.06.77-.17.68.3.9-.1,1-.67.34-.42.68-.83,1.02-1.25,2.84-3.54,3.07-9.1.54-12.9-.48-.96-.64-2.25-2.21-2.02-.02-.25-.12-.46-.31-.63Z"/>
      <path class="cls-11" d="m293.54,315.59c-6.4,11.22-15.82,18.07-28.22,22.14-19.15,6.3-34.49.23-47.78-12.93-21.94-21.72-16.43-60.78,13.61-75.41,2.66-1.29,5.25-2.9,8.38-2.89-2.38,8.14-.4,13.38,7.06,19.5,4.62,3.78,8.19,8.48,11.02,13.73.04.33.09.67.13,1-.22.3-.44.6-.65.9-5.45,3.33-5.36,10.87.19,16.85,1.08.62,2.16,1.25,3.24,1.87,2.44.84,4.68,1.6,7.49.57,7.24-2.64,8.48-4.49,8.64-15.27,2.23,2.5,1.02,6.64,4.95,8.63,5.48,2.77,8.93,7.47,10.33,13.76.56,2.5-.51,5.4,1.62,7.55Z"/>
      <path class="cls-14" d="m366.3,244.48c-9.46,1.73-18.11,5.33-25.89,11.06-1.62,1.2-3.05,2.46-4.21,4.07-2.78-.17-4.59,1.78-6.53,3.21-11.57,8.52-17.05,4.41-26.17-4.29-8.83-8.41-16.59-17.84-24.55-27.08-1.92-2.23-.79-4.78-2.15-6.91-2.14-3.35-3.76-7.04-6.06-10.26-6.21-8.69-8.6-18.9-11.66-28.81-1.24-4.02-.95-8.4-2.27-12.58-.99-3.16,1.25-5.66,4.54-7.32,3.41-1.72,8.1-1.26,10.1-5.53.32-.09.64-.18.96-.27.36-.24.72-.49,1.08-.73,7.63-1.09,15.03-3.85,22.9-3.28.16.04.38.03.47.13.16.2.25.46.37.7-3.09.44-6.17.89-9.26,1.32-3.31.47-4.93,2.07-4.52,5.69.74,6.46,3.88,11.92,6.89,17.42,9.89,18.09,22.83,33.68,38.69,46.86,3.95,3.28,7.53,7.02,11.19,10.59,6.43,6.26,13.68,7.37,21.88,5.7,1.48-.3,2.88-.92,4.2.3Z"/>
      <path class="cls-1" d="m293.54,315.59c-2.13-2.14-1.06-5.04-1.62-7.55-1.4-6.29-4.85-10.99-10.33-13.76-3.93-1.99-2.72-6.13-4.95-8.63-2.5-5-6.42-7.83-12.13-7.91-2.12-.61-3.58.62-5.05,1.81-.62.06-1.24.12-1.86.18-2.83-5.25-6.4-9.95-11.02-13.73-7.46-6.12-9.44-11.36-7.06-19.5,0,0-.04.08-.04.08.36-.25.73-.49,1.09-.74,19.76-4.28,36.68,1.71,49.32,16.67,8.65,10.24,11.2,23.42,9.05,37.08-.89,5.66-2.05,11.18-5.4,15.98Z"/>
      <path class="cls-11" d="m328.33,273.43c2.36,6.97,1.41,14.43,3.14,21.49,1.92,7.8,5.94,13.58,14.66,14.74,3.89.52,6.85,3.2,10.26,4.84,5.49,2.64,11.27,4.76,16.47,7.87,7.2,4.32,6.53,8.22-.96,12.46-2.54,1.43-6.76.22-7.62,4.47-15.96-1.56-33.25-16.43-37.86-32.52-3.25-11.35-3.41-22.5,1.92-33.35Z"/>
      <path class="cls-14" d="m447.11,300.5c.02,3.37.03,6.74.05,10.11-.73,2.3-1.45,4.6-2.18,6.9-2,.63-1.51,4.49-3.93,3.82-4.45-1.24-9.32.35-13.46-2.25-1.33-.84-2.19-2.31-2.2-3.73-.07-9.72-4.36-18.96-3.18-28.8,3.17.79,3.33,3.9,4.48,6.11,5.15,9.92,10.42,12.02,20.43,7.84Z"/>
      <path class="cls-13" d="m331.31,354.2c3.21.66,5.67,2.42,4.94,5.87-.67,3.15-3.23,4.48-6.68,4.43-8.72-.12-17.45.04-26.17.09-3.62,0-7.24-.02-10.85-.03-2.93-.68-4.98-2.45-4.98-5.48,0-2.92,2.16-4.37,4.93-4.85,12.94-.01,25.87-.03,38.81-.04Z"/>
      <path class="cls-5" d="m331.31,354.2c-12.94.01-25.87.03-38.81.04,1.58-1.34,3.48-.82,5.25-.82,9.59-.03,19.19-.02,28.78.03,1.61,0,3.33-.42,4.78.75Z"/>
      <path class="cls-5" d="m292.54,364.57c3.62,0,7.24.02,10.85.03-3.62,1.24-7.24,1.29-10.85-.03Z"/>
      <path class="cls-11" d="m240.58,245.85c-.36.25-.73.49-1.09.74.16-.55.44-.93,1.09-.74Z"/>
      <path class="cls-11" d="m329.32,271.53c-.21.31-.41.62-.62.93.21-.31.41-.62.62-.93Z"/>
      <path class="cls-2" d="m436.36,233.49c3.56,9.09,7.66,18.03,7.84,28.06-.28,1.46-1,1.73-2.5,1.38-16.13-3.79-30.81-10.7-44.58-19.85-6.75-4.48-13.77-8.51-20.4-13.24-7.02-5-13.76-10.32-20.32-15.85-13.73-11.57-26.19-24.37-36.52-39.14-3.48-4.97-5.31-10.67-7.52-16.21-.83-2.06-.23-2.75,1.8-2.77,1.14-.01,2.36.14,3.21-.93,12,.19,23.77,1.75,35.11,5.87-2.73,0-3.97.87-2,3.51.79,1.06,1.86,1.92,2.58,3.01,14.91,22.71,36.08,38.34,58.82,52.21,5.75,3.5,11.83,6.42,17.08,10.8,1.92,1.6,3.83,4.8,7.4,3.15Z"/>
      <path class="cls-12" d="m436.36,233.49c-3.57,1.65-5.48-1.55-7.4-3.15-5.25-4.38-11.34-7.3-17.08-10.8-22.74-13.87-43.92-29.5-58.82-52.21-.72-1.1-1.79-1.95-2.58-3.01-1.97-2.63-.73-3.52,2-3.51.32-.08.62-.04.91.13.26.45.56.47.89.08,20.14,5.89,37.48,16.82,53.63,29.86,1.14.92,2.23,1.89,3.35,2.84,1.64,4.74,5.68,7.59,8.81,11.15.16,3.56,3.38,5.1,5.15,7.57,4.68,6.54,7.81,13.83,11.15,21.05Z"/>
      <path class="cls-14" d="m420.05,204.87c-3.13-3.56-7.17-6.41-8.81-11.15,3.68,3.01,7.14,6.23,10.19,9.89-.46.42-.92.84-1.38,1.26Z"/>
      <path class="cls-8" d="m273.47,159.03c-.36.24-.72.49-1.08.73.17-.52.38-.99,1.08-.73Z"/>
      <path class="cls-2" d="m354.26,161.02c-.33.38-.63.37-.89-.08.3-.01.6.02.89.08Z"/>
      <path class="cls-8" d="m363.3,299.65c-4.99,2.98-8.33,2.44-13.04-2.08-4.16-3.99-4.98-8.19-2.51-12.86,2.69-5.09,7.02-7.44,11.97-6.31,1.53.35,3.42-.47,4.58,1.24-.63.03-1.26.07-1.88.11-4.11,1.62-6.15,6.58-5.24,12.76.48,3.23.26,6.99,5.13,7.02.33.04.66.08.99.13Z"/>
      <path class="cls-4" d="m367.26,296.44c-.34.42-.68.83-1.02,1.25-.33.22-.66.45-1,.67-.25.11-.5.17-.77.17-1.99-1.55-2.29-3.71-2.15-6.02.93-.65.92-1.3,0-1.95l.17-2.95c1.83-.35,1.87-1.67,1.69-3.11.94-.86-.05-1.94.33-2.87.36-.04.73-.08,1.09-.13,1.57-.23,1.73,1.06,2.2,2.02-2.79,4.19-4.1,8.45-.53,12.91Z"/>
      <path class="cls-7" d="m362.32,292.52c-.14,2.31.15,4.47,2.15,6.02-.39.37-.78.74-1.18,1.12-.33-.04-.66-.08-1-.13-3.25-6.61-2.52-13.2.11-19.78.63-.04,1.26-.07,1.88-.11,0,0-.02.02-.02.02l.07,1.07c0,.32.06.62.17.92-.38.92.62,2.01-.33,2.87-2.04.23-1.88,1.66-1.69,3.11-.06.98-.11,1.96-.17,2.95,0,.65,0,1.3,0,1.95Z"/>
      <path class="cls-12" d="m367.26,296.44c-3.56-4.46-2.25-8.71.53-12.91,2.53,3.8,2.3,9.37-.53,12.91Z"/>
      <path class="cls-9" d="m364.5,281.65c-.11-.3-.17-.6-.17-.92.33-.02.65.04.95.17.19.17.29.38.31.63-.36.04-.73.08-1.09.13Z"/>
      <path class="cls-5" d="m365.28,280.89c-.3-.13-.62-.19-.95-.17-.02-.35-.04-.71-.07-1.07.74.09,1.14.44,1.02,1.24Z"/>
      <path class="cls-9" d="m365.25,298.36c.33-.22.67-.45,1-.67-.1.57-.32.97-1,.67Z"/>
      <path class="cls-8" d="m264.51,277.74c5.71.08,9.63,2.91,12.13,7.91-.17,10.78-1.4,12.63-8.64,15.27-2.81,1.02-5.05.27-7.49-.57.63-.38,1.27-.76,1.9-1.14.86.25,1.58.02,2.15-.67,2.87-1.31,3.76-3.37,3.72-6.65-.08-5.13-2.25-9.51-3.77-14.14Z"/>
      <path class="cls-12" d="m257.28,298.48c-5.56-5.98-5.64-13.52-.19-16.85,0,0,.31,0,.31,0l.31.05c-.51,1.65-.52,2.99,1.78,2.94,0,0,0-.02,0-.02-.04.62-.07,1.23-.11,1.85.13,1.08.25,2.15.38,3.23l-.03,4.76c-.09.81-.18,1.63-.27,2.44-.72.54-1.45,1.07-2.17,1.61Z"/>
      <path class="cls-3" d="m257.28,298.48c.72-.54,1.45-1.07,2.17-1.61.47-.74.94-1.48,1.4-2.22.5-.04,1.01-.09,1.51-.13,1.84,1.54-.37,3.13.06,4.69-.63.38-1.27.76-1.9,1.14-1.08-.62-2.16-1.25-3.24-1.87Z"/>
      <path class="cls-3" d="m257.6,279.73c.62-.06,1.24-.12,1.86-.18.64.1,1.28.21,1.93.31-.38,1.57,1.79,3.12.04,4.7-.65.01-1.3.02-1.96.03,0,0,0,.02,0,.02.04-.68.08-1.36.12-2.04.63-1.27-.44-.91-.99-1.04l-.04-.07c-.28-.24-.56-.49-.85-.73-.04-.33-.09-.67-.13-1Z"/>
      <path class="cls-15" d="m257.73,280.74c.28.24.56.49.84.73-.29.07-.58.14-.87.21l-.31-.05s-.31,0-.31,0c.22-.3.43-.6.65-.9Z"/>
      <path class="cls-14" d="m261.39,279.87c-.64-.1-1.28-.21-1.93-.31,1.47-1.19,2.93-2.42,5.05-1.81,1.52,4.64,3.7,9.01,3.77,14.14.05,3.28-.84,5.34-3.72,6.65.22-.96.63-1.92.65-2.88.08-5.58,1.48-11.51-3.83-15.79Z"/>
      <path class="cls-5" d="m362.41,279.75c-2.63,6.58-3.36,13.17-.11,19.78-4.87-.03-4.65-3.79-5.13-7.02-.91-6.18,1.13-11.14,5.24-12.76Z"/>
      <path class="cls-9" d="m362.49,287.62c-.2-1.45-.35-2.87,1.69-3.11.18,1.44.14,2.76-1.69,3.11Z"/>
      <path class="cls-9" d="m362.32,292.52c0-.65,0-1.3,0-1.95.93.65.94,1.3,0,1.95Z"/>
      <path class="cls-7" d="m261.39,279.87c5.31,4.28,3.9,10.21,3.83,15.79-.01.96-.42,1.92-.65,2.88-.57.68-1.29.92-2.15.67-.43-1.56,1.79-3.15-.06-4.7.02-.99.05-1.97.07-2.96,1.54-1.45,1.18-2.44-.73-3.07-.13-.62-.25-1.24-.38-1.86l.11-2.05c1.75-1.58-.42-3.13-.04-4.7Z"/>
      <path class="cls-15" d="m262.43,291.55c-.02.99-.04,1.97-.07,2.96-.51.04-1.01.09-1.52.13-.38-.07-.76-.14-1.13-.22.01-1.59.02-3.17.03-4.76.56-.06,1.12-.12,1.68-.17.33.68.67,1.37,1,2.05Z"/>
      <path class="cls-4" d="m261.42,289.5c-.56.06-1.12.11-1.68.17-.12-1.08-.25-2.15-.37-3.23.65.06,1.3.12,1.95.17.13.62.25,1.24.38,1.86-.09.34-.19.68-.28,1.02Z"/>
      <path class="cls-4" d="m257.71,281.68c.29-.07.58-.14.87-.21,0,0,.04.07.03.07.33.35.66.69.99,1.04-.04.68-.08,1.36-.12,2.04-2.3.05-2.29-1.29-1.78-2.94Z"/>
      <path class="cls-15" d="m261.32,286.62c-.65-.06-1.3-.11-1.95-.17.04-.62.07-1.23.11-1.85.65-.01,1.3-.02,1.96-.03-.04.68-.07,1.37-.11,2.05Z"/>
      <path class="cls-4" d="m259.71,294.43c.38.07.75.14,1.13.22-.46.74-.93,1.48-1.4,2.22.09-.81.18-1.62.27-2.44Z"/>
      <path class="cls-15" d="m259.61,282.57c-.33-.35-.66-.69-.99-1.04.55.14,1.63-.22.99,1.04Z"/>
      <path class="cls-3" d="m261.42,289.5c.09-.34.18-.68.28-1.02,1.91.63,2.27,1.62.73,3.07-.34-.68-.67-1.37-1.01-2.05Z"/>
    </g>
  </g>
</svg>