<?xml version="1.0" encoding="UTF-8"?>
<svg id="Layer_2" data-name="Layer 2" xmlns="http://www.w3.org/2000/svg" viewBox="0 0 624.85 482.43">
  <defs>
    <style>
      .cls-1 {
        fill: #2d324f;
      }

      .cls-2 {
        fill: #272369;
      }

      .cls-3 {
        fill: #3f2e8a;
      }

      .cls-4 {
        fill: #1e2153;
      }

      .cls-5 {
        fill: #332b80;
      }

      .cls-6 {
        fill: #151021;
      }

      .cls-7 {
        fill: #2f2a7a;
      }

      .cls-8 {
        fill: #292670;
      }

      .cls-9 {
        fill: #4d5c7c;
      }

      .cls-10 {
        fill: #7286a2;
      }

      .cls-11 {
        fill: #edf0f5;
      }

      .cls-12 {
        fill: #151837;
      }

      .cls-13 {
        fill: #f58638;
      }

      .cls-14 {
        fill: #55c7e7;
      }

      .cls-15 {
        fill: #f06526;
      }
    </style>
  </defs>
  <g id="Layer_1-2" data-name="Layer 1">
    <g>
      <path class="cls-11" d="m624.85,1.25H.05C.27.95-.45.21.55.24c1.33.04,2.67.01,4,.01,205.27,0,410.54,0,615.81.06,1.46,0,3.39-1.15,4.5.94Z"/>
      <path class="cls-11" d="m182.02,423.18h11.94c2.35,0,4.69,0,7.04-.01,5.25,1.59,10.62,1.29,16,1,8.86.57,17.74.92,26.58,1.45,5.59.34,11.4-.18,16.9,1.57,3.65.72,7.33,1.3,10.94,2.17,17.45,4.2,30.14,14.2,37.49,30.74,1.14,2.56.62,5.91,3.54,7.83,5.02-17.67,14.97-30.64,32.85-36.81,6.15-2.12,12.52-3.1,18.7-4.95,12.34-.26,24.56-2.67,36.94-2.01,16.34-.42,32.7-.22,48.98-2.04.66.02,1.33.03,1.99.05,8.33-.07,16.54-1.14,24.61-3.14,6-1.49,6.13-.88,7.56,4.9,1.93,7.79,2.51,15.91,5.57,23.42.95,6.24,3.09,12.27,3.3,18.64-.44.34-.88.69-1.32,1.03-.8,0-1.6,0-2.39-.01-.38-.43-.78-.48-1.18-.03-21.69-.72-43.38-.62-65.07-.26-1.04-.45-2.08-.45-3.12,0-1.1.01-2.2.03-3.29.04-28.18-.86-56.36-.6-84.55-.31-1.74-.58-3.25.39-4.7.95-8.77,3.4-17.53,3.59-26.68,1.34-3.16-.78-5.83-4.13-9.59-2.27-22.7-.56-45.4-.46-68.1.11-1.31,0-2.62,0-3.93,0-2.02-.51-4.04-.52-6.05.02-21.35.02-42.69.04-64.04.06-.61,0-1.22.01-1.83.02-1.07.01-2.14.03-3.2.04-2.58-.51-5.14-.65-7.69.18-1.82-.17-3.64-.34-5.45-.5.12-1,.24-2,.35-3,3.14-10.84,4.8-21.99,6.81-33.07,1.95-2.24,1.76-5.25,2.09-7.8.61-4.63,3.09-4.78,6.45-3.83,11.64,3.28,23.63,3.69,35.57,4.49Z"/>
      <path class="cls-13" d="m332.01,466.46c28.18-.29,56.37-.55,84.55.31,1.12,1.36,2.22,2.28,3.29-.04,1.04-.44,2.08-.44,3.12,0,0,2.85,2.09,2.47,3.88,2.47,21.77,0,43.54,0,65.3-.04,1.35,0,3.19.6,3.49-1.7l.27-.24c1.3,1.03,2.6,2.05,3.89,3.08-.27.69-.54,1.38-.8,2.07-.18.25-.31.52-.37.81-4.9-.06-9.8-.12-14.7-.19,4.24-1.9,9.06.42,13.97-1.75-4.65,0-8.58.05-12.51,0-21.29-.29-42.57-.03-63.88-.75-27.12-.92-54.3-.34-81.45-.28-3.44,0-6.24-.62-8.05-3.75Z"/>
      <path class="cls-13" d="m491.62,467.04c.44-.34.88-.69,1.32-1.03,1.01.35,2.38-.15,2.98,1.21,0,0-.27.24-.27.24-1.34-.14-2.69-.28-4.04-.42Z"/>
      <path class="cls-13" d="m222.95,466.6c22.7-.57,45.4-.68,68.1-.11-.51,3.14-2.56,3.72-5.42,3.7-29.06-.2-58.11.34-87.16.92-23.39.46-46.8.09-70.66.09,1.32,1.65,3.32.56,4.17,1.99-1.69,1.83-3.87.55-5.79.9-1.14-1.42-1.34-3.03-1.01-4.76.9-.27,1.49-1.35,2.64-1,1.37,1.32,3.1.96,4.73.96,25.22,0,50.45,0,75.67-.07,1.94,0,4.66.95,4.75-2.61,2.02-.54,4.03-.53,6.05-.02.08,1.18.09,2.41,1.71,2.55,1.88.15,2.19-1.08,2.22-2.54Z"/>
      <path class="cls-15" d="m212.96,466.61c-.09,3.56-2.81,2.6-4.75,2.61-25.22.06-50.45.07-75.67.07-1.63,0-3.36.35-4.73-.96.06-.34.13-.68.19-1.02,0,0,.06-.07.06-.07.6,0,1.21,0,1.81,0l1.04-.84h-.16c1.82.17,3.64.34,5.45.51,2.58.68,5.15.84,7.69-.18,1.07-.01,2.14-.03,3.2-.04.62.72,1.22.71,1.83-.02,21.35-.02,42.69-.04,64.04-.06Z"/>
      <path class="cls-4" d="m318.88,422.28c-24.84,1.75-48.25-3.6-70.6-14.21-.73-.34-1.55-.47-2.34-.7-.63-.38-1.27-.77-1.9-1.15-2.67-3.7-6.62-6.05-10.32-8.25-7.77-4.63-13.99-10.91-20.35-17.08-1.98-1.92-4.47-2.73-6.62-4.22.29-.27.58-.53.87-.79l-.05.07c-.38-.31-.76-.62-1.14-.93-2.22-4.26-6.45-7.06-8.38-11.53-.18-.97-.03-2.22-.59-2.87-4.61-5.37-5.37-12.74-9.69-18.26-.63-.8-.62-2.18-.72-3.3-.1-1.19.08-2.53,1.38-2.92,1.54-.46,1.75,1.13,2.37,2.02,1.43,2.03,1.12,4.69,2.93,6.75,3.13,3.56,5.79,7.51,7.95,11.82,3.29,6.57,8.89,11.42,13.69,16.81,4.55,5.11,11.04,7.83,16.57,11.72,10.13,7.12,21.16,12.47,32.3,17.53,7.18,3.26,14.25,7.05,21.76,9.37,9.78,3.02,19.93,4.9,29.95,7.09,1.93.42,3.16.86,2.92,3.04Z"/>
      <path class="cls-14" d="m213.94,396.19c3.52,3.09,2.85,6.11-.15,9.09-2.99.16-6.43.5-6.69-3.61-.28-4.52,3-5.57,6.84-5.47Z"/>
      <path class="cls-15" d="m131.98,473.19c-.84-1.42-2.85-.34-4.17-1.99,23.85,0,47.26.37,70.66-.09,29.05-.58,58.1-1.12,87.16-.92,2.86.02,4.91-.56,5.42-3.7,3.77-1.86,6.44,1.49,9.59,2.27,9.15,2.25,17.91,2.06,26.68-1.34,1.45-.56,2.96-1.53,4.7-.95,1.81,3.13,4.61,3.75,8.06,3.75,27.15-.06,54.33-.64,81.45.28,21.3.72,42.59.46,63.88.75,3.93.05,7.85,0,12.51,0-4.91,2.17-9.74-.15-13.97,1.75-10.16.09-20.31.24-30.46.27-22.81.07-45.63.08-68.44.12-10.68.02-21.35.03-32.03.05-5.02-.02-10.05-.05-15.07-.07-.32-.01-.65-.03-.97-.04-.65-.04-1.3-.09-1.95-.13-.84-.7-1.59-.16-2.26.26-13.64,8.53-27.29,7.58-40.94.04-1.01-.56-1.85-1.55-3.04-.41-12.59.12-25.19.23-37.78.35-.82-.09-1.65-.25-2.47-.25-33.09.04-66.18.08-99.27.15-1.1,0-2.36-.42-3.21.75-4.69-.28-9.48,1.04-14.06-.91Z"/>
      <path class="cls-15" d="m491.62,467.04c1.35.14,2.69.28,4.04.42-.31,2.31-2.14,1.7-3.5,1.71-21.77.04-43.54.04-65.3.04-1.79,0-3.89.39-3.88-2.47,21.69-.36,43.38-.46,65.07.26.39,0,.79.02,1.18.03h2.39Z"/>
      <path class="cls-15" d="m222.95,466.6c-.03,1.47-.34,2.7-2.22,2.54-1.63-.13-1.63-1.37-1.71-2.55,1.31,0,2.62,0,3.93,0Z"/>
      <path class="cls-13" d="m143.89,466.72c-2.54,1.01-5.11.85-7.69.18,2.55-.82,5.11-.68,7.69-.18Z"/>
      <path class="cls-15" d="m419.85,466.73c-1.07,2.32-2.18,1.4-3.29.04,1.1-.01,2.19-.03,3.29-.04Z"/>
      <path class="cls-13" d="m148.92,466.67c-.6.73-1.21.74-1.83.02.61,0,1.22-.01,1.83-.02Z"/>
      <path class="cls-13" d="m489.22,467.03c-.39,0-.79-.02-1.18-.03.41-.45.8-.4,1.18.03Z"/>
      <path class="cls-13" d="m129.87,467.23c.35-.28.69-.56,1.04-.84-.35.28-.69.56-1.04.84Z"/>
      <path class="cls-15" d="m198.06,363.5c1.93,4.47,6.16,7.27,8.38,11.53-.22.47-.44.94-.66,1.41-9-1.97-14.81-8.56-20.11-15.1-7.51-9.26-13.1-19.7-15.17-31.76-.74-4.32-.32-8.58-.4-12.86.96-1.72,1.92-3.45,2.89-5.17.69-.07,1.38-.15,2.07-.23,1.06.56,1.85,1.27,1.97,2.6.9,9.85,4.45,18.99,8.09,28.02,3.15,7.81,7.03,15.33,12.95,21.56Z"/>
      <path class="cls-12" d="m146.43,292.46c-1.89-4.1-1.73-8.34-.9-12.63,4.25-1.14,6.56-4.03,7.41-8.23.67-.67,1.33-1.35,2-2.02,3.37.85,4.79-3.58,8.07-2.95.67,1.67,1.35,3.34,2.02,5.01-.66.01-1.33-.02-1.99.05-4.31.45-10.63,5.57-11.72,9.65-1.5,5.62,2.98,8.19,6.03,11.47,5.25,5.65,13.74,8.68,14.57,17.92-2.29-.38-4.8.42-6.85-1.28-3.28-8.87-10.05-13.91-18.64-16.98Z"/>
      <path class="cls-4" d="m146.43,292.46c8.59,3.06,15.36,8.11,18.64,16.98-2.14.7-4.03-.7-6.08-.75-3.88-3.11-7.36-6.64-10.6-10.4-1.43-1.66-2.71-3.42-1.96-5.83Z"/>
      <path class="cls-13" d="m158.36,333.5c-4.03-.14-6.33-1.94-6.39-6.27-.06-4.43,2.81-5.53,6.33-5.61,3.71-.08,5.81,1.93,5.72,5.73-.09,3.6-1.29,6.34-5.66,6.14Z"/>
      <path class="cls-4" d="m145.18,277.75c3.13-1.36,3.92-5.67,7.76-6.14-.85,4.2-3.16,7.08-7.41,8.23-.12-.7-.23-1.39-.35-2.09Z"/>
      <path class="cls-4" d="m205.78,376.43c.22-.47.44-.94.66-1.41.38.31.76.62,1.14.93,0,0,.05-.07.05-.07-.29.26-.58.53-.87.79-.33-.08-.65-.16-.97-.24Z"/>
      <path class="cls-12" d="m198.06,363.5c-5.92-6.22-9.8-13.74-12.95-21.56-3.64-9.03-7.19-18.17-8.09-28.02-.12-1.33-.91-2.04-1.97-2.6,3.1-2.79.97-6.12.94-9.23-.06-6.21.69-12.52-1.97-18.46,3.7-1.89,1.26-5.31,1.98-7.95,1.27-4.2,2.02-8.48,1.89-12.88.03-.69.05-1.39.08-2.08,1.58.08,2.81-.72,4.17-1.37,2.38-1.13,4.79-1.14,6.88.95,6.2,6.19,8.84,13.9,8.87,22.39.03,7.35.47,14.48,2.76,21.56,7.57,23.41,22.24,39.71,46.47,46.17,11.99,3.2,21.71,9.5,28.08,19.86,3.9,6.34,9.82,9.92,15.43,13.56,9.95,6.46,20.59,11.92,31.93,15.88,9.83,3.43,19.85,5.07,30.19,3.85,15.83-1.87,30.84-7.25,46.19-11.16-3.78,5.13-9.56,7.61-14.79,10.69-2.5,1.47-4.6,2.99-6.17,5.34-1.3-1.67-2.66-.7-4-.09-14.72,6.77-30,11.6-46.15,13.59-3,.37-5.96.32-8.95.34.24-2.19-.99-2.62-2.92-3.04-10.03-2.19-20.17-4.06-29.95-7.09-7.5-2.32-14.58-6.11-21.76-9.37-11.14-5.06-22.17-10.41-32.3-17.53-5.54-3.89-12.02-6.62-16.57-11.72-4.8-5.39-10.4-10.24-13.69-16.81-2.16-4.31-4.81-8.26-7.95-11.82-1.81-2.06-1.5-4.71-2.93-6.75-.63-.89-.83-2.48-2.37-2.02-1.29.39-1.48,1.74-1.38,2.92.1,1.13.09,2.5.72,3.3,4.32,5.52,5.08,12.9,9.69,18.26.56.65.41,1.9.59,2.87Z"/>
      <path class="cls-15" d="m207.63,375.88s-.05.07-.05.07c0,0,.05-.07.05-.07Z"/>
      <path class="cls-13" d="m335.01,473.2c-.36.62-.72,1.24-1.08,1.87-.74.26-1.1.77-1.04,1.57-.46.35-.92.7-1.37,1.05-5.65,2.1-11.31,4.02-17.41,4.61-7.81.75-14.74-1.73-21.58-4.89-.81-.74-1.19-1.98-2.49-2.17,0,0-.07-.07-.07-.07-.32-.34-.65-.68-.97-1.03-.07-.35-.15-.69-.22-1.04,1.19-1.14,2.04-.15,3.04.41,13.65,7.53,27.3,8.49,40.94-.04.67-.42,1.42-.96,2.26-.26Z"/>
      <path class="cls-7" d="m337.93,473.37c-.34.44-.66.42-.97-.04.32.01.65.03.97.04Z"/>
      <path class="cls-2" d="m332.88,476.63c-.06-.79.3-1.31,1.04-1.57-.35.52-.7,1.04-1.04,1.57Z"/>
      <path class="cls-6" d="m398.94,392.41c-15.35,3.91-30.36,9.29-46.19,11.16-10.35,1.22-20.36-.42-30.19-3.85-11.33-3.96-21.97-9.42-31.93-15.88-5.61-3.64-11.53-7.22-15.43-13.56-6.37-10.36-16.09-16.66-28.08-19.86-24.23-6.46-38.89-22.76-46.47-46.17-2.29-7.08-2.73-14.22-2.76-21.56-.03-8.49-2.68-16.2-8.87-22.39-2.08-2.08-4.49-2.08-6.88-.95-1.37.65-2.6,1.45-4.17,1.37-.98-.35-1.96-.71-2.94-1.06,2.38-7.25,3.8-14.76,6.7-21.88,2.7-6.62,7.06-12.71,7.14-20.27,9.46-11.21,19.49-21.79,30.98-31.06,15.81-12.77,33.77-20.89,53.13-26.38-.47,2.26-2.47,2.41-4.15,3.02-4.69,1.71-6.75,5.18-5.58,10.04,2.75,11.43,6.38,22.48,12.2,32.87,10.16,18.14,21.66,35.13,37.31,49.1,6.36,5.68,12.32,6.95,19.91,3.21,2.13-1.05,4.23-1.93,6.66-1.45-3.1,5.82-8.87,9.97-10.47,16.72-3.87,8.25-6.16,16.74-3.92,25.91,2.54,10.37,6.06,20.21,14.95,27.09h.02c.33.33.66.65.99.97l.05.04c.31.29.63.57.94.86,15.83,14.23,36.96,15.32,55.3,5.09,19.23-10.73,26.51-30.51,22.94-50.9,2.49.57,2.31,3.02,2.31,4.45,0,8.95,2.84,17.49,3.45,26.33.42,6.03,2.47,8.04,8.72,8.16,1.49.03,3.13-.24,4.43.3,4.34,1.79,5.26-.87,5.79-4.12.34-2.12.22-4.41,2.89-5.2.53,2.18-1.44,3.52-1.8,5.46-3.83,20.46-12.78,38.53-25.81,54.68-.86,1.07-2.56,1.78-2.09,3.65-2.96,1.35-5.13,3.6-7.06,6.14-1.41.07-2.59.43-2.69,2.14-3.24,2.44-5.26,6.34-9.32,7.79Zm-67.06-38.13c-1.45-1.16-3.18-.74-4.79-.75-9.61-.05-19.23-.07-28.85-.04-1.77,0-3.68-.51-5.26.83-3.1.54-5.32,2.22-4.91,5.49.32,2.53,1.45,5.11,4.95,4.78,3.63,1.35,7.26,1.27,10.89.04,8.74-.04,17.47-.2,26.21-.07,3.46.05,6.02-1.29,6.69-4.43.73-3.43-1.69-5.23-4.93-5.86Zm-92.01-107.61s.02-.06.02-.06c-.82.08-1.71-.02-2.46.26-23.99,8.91-38.35,32.2-30.65,59.36,6.81,24.04,37.52,43.38,65.61,29.33,3.61-1.81,7.44-3.29,9.71-6.96,2.91-1.87,5.71-3.81,7.94-6.55,11.96-14.7,13.02-36.79,4.21-53.24-9.73-18.18-32.03-27.76-53.32-22.87-.64-.18-.91.19-1.07.72Z"/>
      <path class="cls-14" d="m272.98,160.08c-19.36,5.49-37.31,13.61-53.13,26.38-11.48,9.27-21.52,19.85-30.98,31.06-.31.13-.63.26-.94.4-2.64.23-5.06-.2-6.95-2.26-.1-.92-.19-1.83-.29-2.75,2.56-8.75,8.21-15.68,13.66-22.68,13.44-17.23,30.64-29.88,50.26-39.05,13.08-6.11,26.88-10.22,41.32-12.48,11.04-1.73,22.05-1.42,33.08-1.96,3.81,2.29,7.94.89,11.93,1.03,20.47,2.71,39.9,8.3,57.81,19.01,17.64,10.54,33.33,23.11,45.42,39.83,4.03,5.58,8.22,11.12,9.64,18.1-5.91,4.47-8.35,4.21-12.3-.91-2.79-3.62-6.21-6.75-9.35-10.1-3.33-3.05-5.51-7.43-10.23-8.9-1.13-1.41-1.97-3.51-3.43-4.13-7.66-3.22-13.13-9.56-20.14-13.83-10.72-6.53-21.7-11.76-33.45-15.76-.32-.08-.65-.11-.98-.09-.25-.14-.5-.17-.78-.1-10.76-3.73-21.81-5.86-33.23-5.87-2.82-.05-5.65-.29-8.46-.11-5.52.35-11.15-1.16-16.57.94-7.66-.43-14.65,2.62-21.92,4.21Z"/>
      <path class="cls-1" d="m294.9,155.87c5.42-2.09,11.05-.58,16.57-.94,2.81-.18,5.64.06,8.46.11,1.53,6.29,3.67,12.33,7.37,17.73,10.09,14.72,22.74,26.94,36.38,38.4,22.25,18.69,46.59,33.69,73.72,44.14,2.32.89,4.68,1.79,7.26,1.17.67,1.99-.3,4.41,1.81,6.33,1.32-1.99,3.32-2.36,5.54-2.02-1.19,2.95-3.74,5.88-1.17,9.14,3.31,4.19,7.3,7.68,12.53,9.31,7.84,2.44,12.26.31,12.47-5.85,1.37,2.61,3.28,5.02,2.92,8.24-11.03,7.87-20.97,4.29-30.68-3.87-.09,1.94-.15,2.92-.18,3.9-.13,4.8-2.46,6.71-7.25,5.69-5.45-1.16-10.32-3.37-14.21-7.6-3.28-3.56-6.91-6.8-10.39-10.19-.52-.64-1.13-1.23-1.55-1.93-5.52-9.01-13.31-14.9-22.95-19.44-8.15-3.84-16.31-2.98-24.56-3.59-4.73-2.8-10.66-2.99-14.97-6.51-7.44-6.08-14.66-12.43-21.95-18.69-9.01-7.74-16.05-17.25-23.29-26.51-6.42-8.23-11.95-17.15-15.66-27.01-2.56-6.8-1.68-8.14,5.49-8.97.39-.05.77-.22,2.41-.7-2.22-.18-3.16-.25-4.11-.33Z"/>
      <path class="cls-12" d="m416.05,269.56c3.48,3.38,7.11,6.62,10.39,10.19,3.9,4.24,8.77,6.45,14.21,7.6,4.79,1.02,7.12-.88,7.25-5.69.03-.98.09-1.96.18-3.9,9.71,8.16,19.65,11.74,30.68,3.87,0,1.34,0,2.69-.01,4.03-4.01,1.18-6.42,5.46-11.43,5.1-5.21-.38-10.18-.97-14.59-3.9-2.29-1.52-3.83-1.45-3.77,1.68.14,7.42-1.8,14.73-1.01,22.17-.07.62-.15,1.23-.22,1.85-2.67.79-2.56,3.08-2.89,5.2-.52,3.25-1.45,5.91-5.79,4.12-1.3-.54-2.94-.27-4.43-.3-6.25-.11-8.3-2.13-8.72-8.16-.62-8.83-3.45-17.38-3.45-26.33,0-1.43.18-3.88-2.31-4.45-.63-4.58-2.65-8.73-4.08-13.07Z"/>
      <path class="cls-6" d="m452,260.79c-2.22-.34-4.22.03-5.54,2.02-2.11-1.92-1.13-4.33-1.81-6.32-1.7-7.91-4.4-15.49-7.61-22.9-3.2-7.29-6.46-14.52-11.12-21.06-1.76-2.48-4.97-4.02-5.17-7.56.47-.41.94-.83,1.41-1.24,3.14,3.35,6.56,6.48,9.35,10.1,3.95,5.12,6.39,5.38,12.3.91,7.26,14.27,12.33,29.22,14.02,45.22-.59.32-1.17.65-1.76.97-1.36-.04-2.71-.08-4.07-.13Z"/>
      <path class="cls-15" d="m447.72,312.55c.07-.62.15-1.23.22-1.85,1.2-.44,1.98.51,2.93.89,4.79,6.2,3.11,13.12,2.23,19.96-4.9,18.82-13.6,34.87-31.84,44.13-1.13.58-2.08.83-3.24.65-.47-1.87,1.23-2.58,2.09-3.65,13.03-16.15,21.98-34.22,25.81-54.68.36-1.93,2.33-3.28,1.8-5.46Z"/>
      <path class="cls-6" d="m450.87,311.6c-.95-.38-1.72-1.33-2.93-.89-.79-7.44,1.15-14.75,1.01-22.17-.06-3.14,1.48-3.2,3.77-1.68,4.41,2.94,9.38,3.52,14.59,3.9,5.01.36,7.42-3.92,11.43-5.1.07,10.88-6.64,19.51-18.8,24.19-2.94,1.05-6.27.06-9.08,1.75Z"/>
      <path class="cls-13" d="m197.85,163.85c-5.68,2.33-9.84,1.25-12.53-3.33-2.51-4.28,0-7.2,2.7-10.22,1.77-1.98,4.03-.98,6-1.57,1.14.97,2.49,1.3,3.95,1.23,0,0,0-.01,0-.01,3.72,3.47,3.81,7.53,1.96,11.92l.02-.02c-1.02.33-1.66,1.07-2.1,2Z"/>
      <path class="cls-15" d="m436.74,161.77c-3.96,3.88-9.43,4.36-12.38,1.08-3.32-3.7-3.31-9.16.02-11.85,3.74-3.02,7.21-2.73,12.43,1.05,1.08,3.25,1.3,6.5-.08,9.73Z"/>
      <path class="cls-9" d="m452,260.79c1.36.04,2.71.08,4.07.12-2.36,4.81-1.53,7.66,3.27,10.26,2.17,1.18,4.5,2.08,6.81,2.98,1.96.76,3.95.65,5.67-.65,2.02-1.54.37-3.31.15-4.98,2.7.52,3.36,2.64,3.87,4.89-.21,6.16-4.63,8.29-12.47,5.85-5.23-1.63-9.22-5.12-12.53-9.31-2.57-3.26-.02-6.18,1.17-9.14Z"/>
      <path class="cls-10" d="m471.96,268.51c.23,1.67,1.87,3.44-.15,4.98-1.71,1.31-3.71,1.42-5.67.65-2.31-.9-4.64-1.8-6.81-2.98-4.79-2.6-5.63-5.44-3.27-10.26.59-.32,1.18-.65,1.76-.97,5.96.8,10.29,4.28,14.13,8.56Z"/>
      <path class="cls-14" d="m471.9,227.76c.04,4.29-2.5,7.03-6.48,6.99-3.73-.04-7.56-3.73-7.42-7.16.14-3.36,3.78-6.88,7.07-6.83,4.71.07,6.79,2.2,6.83,7.01Z"/>
      <path class="cls-14" d="m158.38,220.77c3.99-.02,6.54,2.61,6.61,6.81.07,4.07-2.57,7.05-6.37,7.2-3.72.14-7.52-3.29-7.61-6.88-.09-3.54,3.6-7.11,7.36-7.13Z"/>
      <path class="cls-15" d="m470.97,327.01c-.08,4.23-2,6.36-5.67,6.49-3.92.14-5.89-2.52-6.27-5.91-.49-4.26,2.78-5.65,6.22-5.91,3.9-.3,5.44,2.28,5.73,5.33Z"/>
      <path class="cls-13" d="m208.01,142.91c-2.41-2.43-4.11-5.08-1.31-8.22,2.38-2.68,5.34-2.27,8.11-.67,3.62,2.1,2.48,5.09,1.19,8.02-2.61.81-5.26,1.17-7.99.87Z"/>
      <path class="cls-14" d="m412.22,396.46c4.43-.72,4.79,2.2,5,5.44.18,2.88-2.3,4.17-3.88,4.02-2.59-.24-5.51-1.42-5.43-5.12.06-2.83.76-4.99,4.31-4.34Z"/>
      <path class="cls-13" d="m406.67,126.51c-.85.88-.9,2.8-2.95,2.41-1.65-.32-2.63-1.23-2.76-2.92-.11-1.48.63-2.91,2.03-2.79,1.73.15,3.25,1.26,3.67,3.3Z"/>
      <path class="cls-13" d="m229.33,124.02c1.15.08,2.47-.04,2.46,1.68-.01,2.01-1.9,2.4-3.1,2.59-1.14.18-2.53-1.1-2.39-2.48.15-1.55,1.61-1.86,3.03-1.79Z"/>
      <path class="cls-8" d="m408.27,384.62c.09-1.72,1.27-2.07,2.69-2.14-.16,1.64-1.3,2.05-2.69,2.14Z"/>
      <path class="cls-2" d="m160.04,261.83c-.36.27-.73.55-1.09.82.36-.27.73-.55,1.09-.82Z"/>
      <path class="cls-6" d="m174.02,283.63c2.66,5.94,1.9,12.25,1.97,18.46.03,3.1,2.16,6.44-.94,9.23-.69.08-1.38.15-2.07.23-.36-.28-.71-.55-1.07-.83-.82-9.24-9.31-12.27-14.57-17.92-3.05-3.28-7.54-5.85-6.03-11.47,1.09-4.07,7.42-9.2,11.72-9.65.66-.07,1.33-.03,1.99-.05,1.5.83,2.25,2.2,3.12,3.64,1.75,2.9,3.19,6.08,5.87,8.35Z"/>
      <path class="cls-1" d="m174.02,283.63c-2.68-2.27-4.11-5.45-5.87-8.35-.88-1.45-1.62-2.81-3.12-3.64-.67-1.67-1.35-3.34-2.02-5.01.16-2.23,1.9-3.11,3.46-4.25,1.34-.98,3.32-1.47,3.46-3.62,2.04-7.38,4.07-14.77,6.11-22.16,3.25-4.18,2.19-9.79,4.76-14.24.89-1.54-1-2.55-1.91-3.65.07-.61.14-1.23.21-1.84.63-.4,1.25-.81,1.87-1.21,1.89,2.05,4.31,2.49,6.95,2.26-2.61.96-4.54,2.28-4.03,5.63.18,1.2-.55,2.55-.92,3.82-2.78,9.61-7.51,18.58-9.23,28.54-.27,1.58-1.5,3.3,1.29,3.76.98.35,1.96.71,2.94,1.06-.03.69-.05,1.39-.08,2.08-4.15-.33-6.45,1.45-5.6,5.7.52,2.63,1.07,5.52,3.71,7.18-.72,2.63,1.72,6.05-1.98,7.95Z"/>
      <path class="cls-9" d="m176,275.69c-2.65-1.66-3.19-4.55-3.71-7.18-.85-4.26,1.45-6.04,5.6-5.7.13,4.41-.61,8.68-1.89,12.88Z"/>
      <path class="cls-15" d="m416.05,269.56c1.43,4.34,3.45,8.49,4.08,13.07,3.57,20.39-3.71,40.17-22.94,50.9-18.34,10.23-39.46,9.14-55.29-5.09-.31-.29-.63-.57-.94-.86,0,0-.05-.04-.05-.04-.33-.32-.66-.64-.99-.96,0,0-.02,0-.02,0,.59-5.17-.96-9.76-3.63-14.11-1.99-3.25-3.82-6.78-4.12-10.52-.75-9.5-1.15-19.02-3.28-28.36,1.6-6.75,7.37-10.9,10.47-16.72,8.24-6.29,17.38-10.54,27.65-12.26,8.25.61,16.41-.24,24.56,3.59,9.65,4.54,17.44,10.44,22.95,19.44.43.7,1.03,1.29,1.55,1.93Zm-50.12,11.38c.13-.83-.34-1.15-1.08-1.22l.04.02c-1.13-1.77-3.08-.66-4.52-1.3-4.35-1.94-10.41,2.68-12.16,6.1-2.39,4.67-1.38,9.42,2.8,13.27,4.79,4.42,8.1,4.88,13.02,1.82.37-.36.74-.71,1.11-1.07h.38s.36-.12.36-.12c.7.3.92-.11,1.02-.69.34-.43.68-.85,1.02-1.28,3.49-4.1,2.84-8.4.63-12.78-.63-.84-.65-2.36-2.3-2.08-.03-.25-.14-.47-.3-.67Z"/>
      <path class="cls-13" d="m282.1,328.61c-2.27,3.66-6.1,5.15-9.71,6.96-28.1,14.05-58.8-5.29-65.61-29.33-7.7-27.16,6.66-50.45,30.65-59.36.75-.28,1.64-.18,2.46-.26-2.11,3.99-1.55,7.86.37,11.77,1.58,3.23,4.36,5.32,6.79,7.77,4.14,4.17,8.46,8.2,10.95,13.69.05.33.1.66.16.98-.22.29-.43.59-.65.88-2.46-.11-3.08,2.1-3.36,3.53-.95,4.88-.78,9.69,3.51,13.28,1.02.74,1.59,2.27,3.26,1.9,4.25,2.41,8.11.55,11.99-1.11-.94,2.24-1.12,4.21.49,6.46,4.88,6.81,6.04,15.12,8.7,22.82Z"/>
      <path class="cls-12" d="m366.98,244.59c-10.27,1.72-19.41,5.97-27.65,12.26-2.43-.48-4.53.4-6.66,1.45-7.58,3.75-13.55,2.47-19.91-3.21-15.65-13.97-27.15-30.96-37.31-49.1-5.82-10.39-9.45-21.44-12.2-32.87-1.17-4.86.89-8.33,5.58-10.04,1.68-.61,3.68-.76,4.15-3.02,7.27-1.59,14.26-4.64,21.92-4.21.95.08,1.89.15,4.11.33-1.64.48-2.02.65-2.41.7-7.17.83-8.05,2.17-5.49,8.97,3.72,9.86,9.24,18.78,15.66,27.01,7.23,9.26,14.28,18.77,23.29,26.51,7.29,6.26,14.51,12.62,21.95,18.69,4.31,3.52,10.25,3.71,14.97,6.51Z"/>
      <path class="cls-15" d="m258,279.85c-2.49-5.49-6.81-9.52-10.95-13.69-2.43-2.45-5.2-4.54-6.79-7.77-1.92-3.91-2.48-7.78-.37-11.77,0,0-.02.06-.02.06.36-.24.71-.48,1.07-.72,21.29-4.89,43.59,4.69,53.32,22.87,8.8,16.45,7.74,38.54-4.21,53.24-2.23,2.74-5.04,4.68-7.94,6.55-2.66-7.7-3.82-16.01-8.7-22.82-1.61-2.25-1.43-4.23-.49-6.46,4.21-4.09,5.35-9.17,3.44-14.45-1.81-4.99-6.26-6.87-11.42-7.05-1.74-.6-3.01.33-4.26,1.32-.89.23-1.78.46-2.66.7Z"/>
      <path class="cls-11" d="m293.02,364.6c-3.5.33-4.64-2.26-4.95-4.78-.41-3.26,1.82-4.95,4.91-5.49,12.96-.01,25.93-.03,38.9-.04,3.25.62,5.67,2.43,4.93,5.86-.67,3.14-3.24,4.48-6.69,4.43-8.73-.13-17.47.03-26.21.07-3.63-.01-7.26-.03-10.89-.04Z"/>
      <path class="cls-13" d="m328.86,273.58c2.13,9.34,2.53,18.86,3.28,28.36.29,3.74,2.13,7.27,4.12,10.52,2.67,4.35,4.22,8.95,3.63,14.11-8.89-6.88-12.41-16.71-14.95-27.09-2.24-9.17.05-17.66,3.92-25.91Z"/>
      <path class="cls-12" d="m175.03,259.67c-2.78-.46-1.56-2.18-1.29-3.76,1.72-9.96,6.45-18.93,9.23-28.54.37-1.27,1.1-2.62.92-3.82-.51-3.35,1.41-4.67,4.03-5.63.31-.13.63-.26.94-.4-.08,7.55-4.44,13.64-7.14,20.27-2.9,7.12-4.32,14.63-6.7,21.88Z"/>
      <path class="cls-1" d="m331.88,354.29c-12.97.01-25.93.03-38.9.04,1.58-1.34,3.48-.83,5.26-.83,9.61-.03,19.23-.01,28.85.04,1.62,0,3.34-.41,4.79.75Z"/>
      <path class="cls-1" d="m293.02,364.6c3.63.01,7.26.03,10.89.04-3.64,1.23-7.27,1.31-10.89-.04Z"/>
      <path class="cls-13" d="m339.91,326.58c.33.32.66.64.99.96-.33-.32-.66-.64-.99-.96Z"/>
      <path class="cls-13" d="m340.95,327.58c.32.29.63.58.94.86-.32-.29-.63-.57-.94-.86Z"/>
      <path class="cls-13" d="m240.94,245.96c-.36.24-.71.48-1.07.72.16-.53.43-.9,1.07-.72Z"/>
      <path class="cls-9" d="m437.04,233.59c3.21,7.41,5.91,14.99,7.61,22.9-2.58.62-4.95-.28-7.26-1.17-27.13-10.45-51.47-25.45-73.72-44.14-13.64-11.46-26.28-23.68-36.38-38.4-3.7-5.4-5.84-11.44-7.37-17.73,11.42.01,22.47,2.14,33.23,5.87-2.01.14-4.23.46-2.29,3.12,4.28,5.89,8.34,12.05,13.33,17.32,14.32,15.14,30.51,28.02,48.67,38.4,5.72,3.27,11.63,6.2,16.74,10.55,1.93,1.64,3.9,4.66,7.44,3.29Z"/>
      <path class="cls-10" d="m437.04,233.59c-3.54,1.38-5.51-1.65-7.44-3.29-5.11-4.34-11.03-7.28-16.74-10.55-18.16-10.38-34.34-23.26-48.67-38.4-4.98-5.27-9.04-11.42-13.33-17.32-1.94-2.67.28-2.98,2.29-3.12.27-.07.53-.04.78.1.28.54.61.55.98.09,11.75,4,22.73,9.23,33.45,15.76,7.01,4.27,12.48,10.61,20.14,13.83,1.47.62,2.31,2.71,3.43,4.13,2.6,3.68,5.56,7.04,8.81,10.15.2,3.54,3.41,5.08,5.17,7.56,4.65,6.55,7.92,13.78,11.12,21.06Z"/>
      <path class="cls-12" d="m420.75,204.96c-3.25-3.11-6.22-6.47-8.81-10.15,4.71,1.47,6.89,5.85,10.23,8.9-.47.42-.94.83-1.41,1.25Z"/>
      <path class="cls-9" d="m354.92,161.1c-.37.47-.7.45-.98-.09.33-.02.66,0,.98.09Z"/>
      <path class="cls-6" d="m364.02,299.63c-4.91,3.07-8.23,2.61-13.02-1.82-4.17-3.85-5.18-8.6-2.8-13.27,1.75-3.42,7.81-8.04,12.16-6.1,1.44.64,3.4-.47,4.52,1.3-.55.04-1.1.07-1.65.11-4.15,1.3-6.51,6.37-5.55,12.4.52,3.24.02,7.41,5.29,7.32.35.02.7.04,1.04.06Z"/>
      <path class="cls-3" d="m366.23,281.61c1.65-.28,1.67,1.24,2.3,2.08-3.33,4.2-3.53,8.45-.63,12.78-.34.43-.68.85-1.02,1.28-.34.23-.68.46-1.02.69l-.36.12s-.38,0-.38,0c-1.95-1.54-2.2-3.67-2.08-5.93.85-.68.84-1.35,0-2.03.05-.95.09-1.89.14-2.84,1.66-.4,1.81-1.65,1.72-3.04,1.05-.88-.02-1.97.28-2.93.35-.06.7-.12,1.06-.19Z"/>
      <path class="cls-2" d="m363.17,287.77c-.05.95-.09,1.89-.14,2.84,0,.68,0,1.35,0,2.03-.12,2.26.14,4.39,2.08,5.93-.37.36-.74.71-1.1,1.07-.35-.02-.7-.04-1.04-.06-3.35-6.62-2.73-13.18.26-19.71.55-.04,1.1-.07,1.65-.11,0,0-.04-.02-.04-.02.02.39.05.77.07,1.16.06.31.15.62.25.91-.3.96.76,2.05-.29,2.93-2.1.15-1.92,1.6-1.72,3.04Z"/>
      <path class="cls-10" d="m367.9,296.48c-2.91-4.34-2.7-8.58.63-12.78,2.21,4.38,2.86,8.68-.63,12.78Z"/>
      <path class="cls-7" d="m365.86,298.45c.34-.23.68-.46,1.02-.69-.1.58-.32.99-1.02.69Z"/>
      <path class="cls-12" d="m364.92,280.88c-.02-.39-.05-.77-.07-1.16.74.07,1.2.39,1.08,1.22-.33-.02-.67-.04-1-.06Z"/>
      <path class="cls-7" d="m364.92,280.88c.33.02.67.04,1,.06.17.19.27.42.3.67-.35.06-.7.12-1.05.19-.1-.3-.19-.6-.25-.91Z"/>
      <path class="cls-6" d="m264.93,277.83c5.16.18,9.61,2.06,11.42,7.05,1.92,5.28.77,10.36-3.44,14.45-3.88,1.66-7.74,3.51-11.99,1.11.64-.36,1.27-.73,1.91-1.09.88.22,1.61,0,2.18-.71,2.85-1.33,3.76-3.38,3.71-6.67-.08-5.13-2.26-9.5-3.79-14.13Z"/>
      <path class="cls-10" d="m257.66,298.53c-4.3-3.6-4.46-8.4-3.51-13.28.28-1.43.9-3.64,3.36-3.53,0,0,.31,0,.31,0l.31.05c-.51,1.65-.52,2.99,1.78,2.94,0,0,0-.02,0-.02-.04.61-.07,1.23-.11,1.84.13,1.08.25,2.16.38,3.24-.01,1.58-.02,3.16-.03,4.75-.09.81-.18,1.63-.27,2.44l-2.21,1.57Z"/>
      <path class="cls-2" d="m257.66,298.53c.74-.52,1.48-1.05,2.21-1.58.47-.74.94-1.48,1.41-2.22.52-.04,1.05-.08,1.57-.12,1.75,1.59-.42,3.15-.02,4.73-.64.36-1.27.73-1.91,1.09-1.67.36-2.24-1.16-3.26-1.9Z"/>
      <path class="cls-2" d="m258,279.85c.89-.23,1.78-.46,2.67-.7.37.25.74.5,1.11.75-.31,1.59,1.82,3.11.13,4.74-.67.01-1.33.03-2,.04,0,0,0,.02,0,.02.04-.68.08-1.36.12-2.04.63-1.27-.44-.9-.99-1.04l-.04-.07c-.28-.24-.57-.48-.85-.72-.05-.33-.1-.66-.16-.98Z"/>
      <path class="cls-5" d="m258.16,280.83c.28.24.57.48.85.72-.29.07-.58.14-.88.21l-.31-.05s-.31,0-.31,0c.22-.29.43-.59.65-.88Z"/>
      <path class="cls-12" d="m261.77,279.9c-.37-.25-.74-.5-1.11-.75,1.25-.99,2.52-1.92,4.26-1.32,1.53,4.63,3.72,9,3.79,14.13.05,3.29-.86,5.33-3.71,6.67.23-.94.63-1.88.65-2.83.12-5.63,1.51-11.6-3.88-15.9Z"/>
      <path class="cls-12" d="m363.24,279.85c-2.99,6.53-3.61,13.1-.26,19.71-5.27.1-4.77-4.07-5.29-7.32-.96-6.03,1.4-11.1,5.55-12.4Z"/>
      <path class="cls-7" d="m363.17,287.77c-.2-1.45-.37-2.89,1.72-3.04.09,1.39-.07,2.64-1.72,3.04Z"/>
      <path class="cls-7" d="m363.04,292.64c0-.68,0-1.35,0-2.03.85.67.86,1.35,0,2.03Z"/>
      <path class="cls-4" d="m261.77,279.9c5.39,4.3,4,10.27,3.88,15.9-.02.95-.42,1.89-.65,2.83-.57.72-1.3.93-2.18.71-.4-1.58,1.77-3.15.02-4.73.02-1,.03-1.99.05-2.99,1.5-1.43,1.14-2.43-.72-3.09-.13-.62-.26-1.23-.4-1.85l.12-2.05c1.68-1.63-.44-3.15-.13-4.74Z"/>
      <path class="cls-5" d="m262.9,291.63c-.02,1-.03,1.99-.05,2.99-.53.04-1.05.08-1.58.12-.38-.07-.76-.15-1.14-.22.01-1.58.02-3.16.03-4.75.56-.06,1.12-.12,1.69-.18.35.68.7,1.36,1.05,2.04Z"/>
      <path class="cls-3" d="m261.86,289.58c-.56.06-1.12.12-1.69.18-.12-1.08-.25-2.16-.37-3.24.66.06,1.33.11,1.99.17.13.62.26,1.23.39,1.85-.11.35-.22.7-.33,1.04Z"/>
      <path class="cls-3" d="m258.13,281.77c.29-.07.58-.14.88-.21,0,0,.04.07.04.07.33.35.66.69,1,1.04-.04.68-.08,1.36-.12,2.04-2.3.05-2.3-1.29-1.78-2.94Z"/>
      <path class="cls-5" d="m261.79,286.69c-.66-.05-1.33-.11-1.99-.17.04-.62.07-1.23.11-1.84.67-.01,1.34-.03,2-.04-.04.68-.08,1.37-.12,2.05Z"/>
      <path class="cls-3" d="m260.14,294.51c.38.07.76.14,1.14.22-.47.74-.94,1.48-1.4,2.22.09-.81.18-1.63.27-2.44Z"/>
      <path class="cls-5" d="m260.04,282.66c-.33-.35-.66-.69-1-1.04.55.14,1.63-.23,1,1.04Z"/>
      <path class="cls-2" d="m261.86,289.58c.11-.35.22-.7.33-1.04,1.86.65,2.22,1.65.72,3.09-.35-.68-.7-1.36-1.05-2.04Z"/>
    </g>
  </g>
</svg>