<?xml version="1.0" encoding="UTF-8"?>
<svg id="Layer_2" data-name="Layer 2" xmlns="http://www.w3.org/2000/svg" viewBox="0 0 385.5 387.16">
  <defs>
    <style>
      .cls-1 {
        fill: #d4dbe5;
      }

      .cls-2 {
        fill: #1f4a73;
      }

      .cls-3 {
        fill: #89443e;
      }

      .cls-4 {
        fill: #fd762a;
      }

      .cls-5 {
        fill: #fc963f;
      }

      .cls-6 {
        fill: #ff6728;
      }

      .cls-7 {
        fill: #cd4c2d;
      }

      .cls-8 {
        fill: #f45b27;
      }

      .cls-9 {
        fill: #7e3026;
      }

      .cls-10 {
        fill: #fe862c;
      }

      .cls-11 {
        fill: #af4534;
      }

      .cls-12 {
        fill: #edf4fa;
      }

      .cls-13 {
        fill: #3c2f53;
      }

      .cls-14 {
        fill: #1a254e;
      }

      .cls-15 {
        fill: #713944;
      }

      .cls-16 {
        fill: #20386b;
      }

      .cls-17 {
        fill: #e65329;
      }

      .cls-18 {
        fill: #adebf7;
      }

      .cls-19 {
        fill: #e3f4fa;
      }

      .cls-20 {
        fill: #f6f8fb;
      }

      .cls-21 {
        fill: #a04035;
      }

      .cls-22 {
        fill: #f9e7da;
      }

      .cls-23 {
        fill: #2b355f;
      }

      .cls-24 {
        fill: #54334a;
      }
    </style>
  </defs>
  <g id="Layer_1-2" data-name="Layer 1">
    <g>
      <path class="cls-18" d="m3.52,226.92c-.13-3.25-.26-6.51-.38-9.76.21-.88.04-1.6-.8-2.08-.46-8.02-1.54-16.02-.88-24.08,7.38,6.22,13.3,13.85,19.95,20.78-.56,6.09,1.63,11.73,2.91,17.5,2.59,11.63,8.04,22.33,11.15,33.79l.91.95c4.6,9.56,9.02,19.24,14.67,28.24,9.02,14.34,18.54,28.32,31.2,39.82.33.75.5,1.64,1.02,2.22,6.59,7.42,14.31,13.65,21.94,19.91,11.04,9.06,23.4,16.24,35.43,23.87-1.27,1.3-2.7.93-4.17.45-24.77-8.09-47.31-20.12-67.24-37.06-19.39-16.49-34.74-36.19-46.25-58.73-8.62-16.89-15.57-34.51-17.84-53.6.28-1.33-.42-1.96-1.61-2.23Z"/>
      <path class="cls-24" d="m36.07,83.99c3.12-6.05,7.74-10.94,12.24-15.92.79.58.78,1.18.44,2.12-4.39,12.11-4.66,24.28.79,36.06,3.6,7.79,8.87,14.35,14.7,20.91,11.85,13.34,25.1,25.23,37.16,38.31,1.93,2.09,4.39,3.92,7.34,4.93,2.8.96,3.4.14,3.69-2.55.28-2.59-1.66-5.7,1.46-7.76.34,12.69.48,25.39-.03,38.08-.49-.01-.99-.03-1.48-.04-9.9-4.56-16.58-13.11-24.37-20.17-11.07-10.03-21.42-20.89-31.42-32.03-2.21-2.47-5.39-4.72-8.8-3.47-2.87,1.05-.79,4.48-1.49,6.73-2.01-3.47-.09-7.45-1.59-11.02-.13,5.85-.9,11.69.07,17.54.17,1.81.84,3.64-.18,5.41-1.73-1.17-1.16-2.98-1.18-4.56-.07-5.15-.2-10.31.02-15.45.22-5.09-.95-9.61-3.01-14.34-4.53-10.46-6.22-21.43-4.39-32.97.48-3.03,2.98-6.58.06-9.81Z"/>
      <path class="cls-14" d="m21.4,211.78c-6.64-6.93-12.57-14.56-19.95-20.78-3.15-5.28-.28-10.7.18-15.86,1.03-11.4,3.47-22.67,6.75-33.7,2.77-9.32,6.34-18.35,10.12-27.3,2.4-.18,3.65.77,3.91,3.31.41,4.07,1.3,8.11,1.63,12.18.66,8.1,5.22,14.87,7.33,22.47-1.77,4.13-4.24,7.77-7.43,10.95-2.44,2.43-2.69,5.3-2.28,8.65.75,6.11,4.14,10.98,6.62,16.32,1.68,3.64,4.14,5.39,8.1,5.06-.85,21.81,2.11,43.07,8.58,63.95.75,2.43,3.63,6.78-1.37,9.03-4.7-11.1-8.86-22.41-12.15-34-2.1-7.42-2.53-15.57-10.04-20.28Z"/>
      <path class="cls-3" d="m68.27,48.89c4.61-3.78,7.52-9.69,14-11.11-.29,2.15-3.06,2.95-2.93,5.33-1.16.03-2.56-.16-3.2.96-3.63,6.36-8.57,11.91-8.93,20.01-.59,13.12,4.32,23.99,12.38,33.61,6.77,8.08,13.97,15.83,21.4,23.31,2.91,2.93,6.36,6.08,11.33,5.1,0,5.65.15,11.31-.05,16.95-.1,2.88,1.6,6.91-1.01,8.38-2.97,1.66-4.92-2.37-7.27-4-1.22-.85-2.46-1.7-3.5-2.75-12.18-12.22-24.67-24.12-35.62-37.52-8.43-10.31-13.28-30.6-5.59-45.37,2.51-4.82,6.22-8.46,9.01-12.9Z"/>
      <path class="cls-15" d="m68.27,48.89c-2.79,4.43-6.5,8.08-9.01,12.9-7.68,14.76-2.83,35.06,5.59,45.37,10.95,13.4,23.44,25.31,35.62,37.52,1.04,1.04,2.28,1.9,3.5,2.75,2.35,1.63,4.31,5.67,7.27,4,2.61-1.46.91-5.5,1.01-8.38.2-5.65.05-11.3.05-16.95,0-4.33.01-8.67.02-13,.31-.05.62-.07.93-.07.31,1.97-.48,4.06.62,5.95,0,13.7,0,27.41-.01,41.11-3.12,2.06-1.18,5.17-1.46,7.76-.29,2.69-.89,3.52-3.69,2.55-2.95-1.02-5.41-2.84-7.34-4.93-12.06-13.08-25.31-24.97-37.16-38.31-5.83-6.56-11.1-13.12-14.7-20.91-5.44-11.78-5.18-23.95-.79-36.06.34-.94.35-1.54-.44-2.12,4.37-6.49,10.27-11.58,15.69-17.11,1.22-1.25,2.48-2.14,4.28-2.06Z"/>
      <path class="cls-22" d="m362.26,102.14c1.26,3.02,3.39,5.65,3.99,8.97-2.54,7.07.23,14,.47,21,.24,6.89,2.46,13.7,1.1,20.63-.52,2.67-.49,5.13.03,7.8.91,4.78,2.69,9.6.64,14.54-.1-.34-.21-.68-.31-1.02-.25-1.92-.28-3.91-.78-5.76-2.02-7.46-2.36-15.38-6.14-22.35l-.97-.96c-.08-.64-.15-1.27-.23-1.91.6-3.25-.99-5.74-2.8-8.16.03-.26-.01-.5-.14-.73.15-.87.26-1.73-.8-2.16,0,0,.04.06.04.06-.21-2.75-1.5-5.05-3.04-7.24-.71-3.31-2.74-6.01-4.2-8.97-.2-.33-.41-.67-.61-1-2.19-4.89-4.3-9.83-8.17-13.72l-.09-.12c-.3-.35-.59-.71-.89-1.06l-3.09-4.87c-.2-1.28-.55-2.48-1.93-3.01l-.03-.05c-.1-1.36-.76-2.33-2.03-2.86l-.07-.08c-.3-1.82-1.34-3.07-2.94-3.9l-.07-.09c-.22-1.72-1.05-2.87-2.9-3.03-.12-.33-.24-.66-.36-.99.12-.55-.12-.84-.66-.92l-.05-.05c-.07-1.68-1.34-2.64-2.36-3.67-7.68-7.71-15.51-15.27-23.08-23.08-14.49-14.94-32.03-25.81-49.08-37.4-4.85-3.29-10.97-4.66-14.67-9.65,20.43,4.35,39.47,12.13,57.2,23.16,7.85,4.89,15.79,9.66,22.06,16.65.28,2.65,1.79,4.88,2.19,7.59,1.3,8.78,4.71,16.75,10.38,23.73,7.59,9.34,14.76,18.99,20.45,29.65,1.25,3.39,3.37,6.34,4.67,9.76,1,2.62,2.35,5.53,4.93,7.32,1.83,1.27,3.26,1.11,3.28-1.42.03-3.12-.15-6.23-.48-9.36-.39-3.69-2.45-8.02,1.54-11.26Z"/>
      <path class="cls-5" d="m236.05,6.31c3.7,5,9.83,6.36,14.67,9.65,17.05,11.59,34.58,22.46,49.08,37.4,7.57,7.81,15.4,15.37,23.08,23.08,1.03,1.03,2.29,1.99,2.36,3.67-4.44-.36-5.56-4.89-8.71-6.97-6.75-4.46-12.31-10.48-18.18-15.95-5.14-4.8-10.27-9.88-15.75-14.06-10.02-7.66-20.91-14.27-32.26-19.96-9.8-4.91-20.57-6.13-31.15-7.97-4.86-.84-9.91-3.49-14.62-1.72-5.44,2.04-10.79,1.47-16.2,1.63-10.13.31-20.18-1.65-30.34-1.02-2.96.18-6.03-.66-8.86-.59-5.93.16-12.08-.85-17.84,1.61-4.89-.55-8.76,2.28-12.97,3.97-2.39-.19-4.52,1.6-6.98.88,14.04-7.36,29.09-11.74,44.58-14.62,8.04-1.49,16.01-3.61,24.29-3.57,8.36.1,16.71.2,25.07.29,10.24,1.41,20.48,2.83,30.71,4.24Z"/>
      <path class="cls-1" d="m368.49,175.08c2.05-4.94.27-9.76-.64-14.54-.51-2.67-.55-5.13-.03-7.8,1.36-6.93-.87-13.74-1.1-20.63-.24-7-3.01-13.94-.47-21,6.74,12.08,11.67,25.02,14.35,38.42,2.45,12.23,5.33,24.52,4.85,37.32-.59,15.42.45,30.9-3.14,46.11-.2.84-.35,1.61-1.11,2.11-2.64-2.97-5.28-5.93-7.91-8.9-.34-.39-.68-.78-1.03-1.17-.96-1.08-1.92-2.16-2.88-3.25-2.17-2.28-1.37-5.2-.99-7.61,1.62-10.24,1.33-20.49.99-30.78-.09-2.82-1.85-5.41-.89-8.3Z"/>
      <path class="cls-11" d="m113.27,113.03c-.31,0-.62.03-.93.07-4.71.62-8.15-1.9-10.59-5.27-4.51-6.21-10.3-11.2-15.33-16.91-13.87-15.77-17.41-33.37-7.08-47.81-.12-2.38,2.64-3.18,2.93-5.33,5.21-3.78,9.7-8.67,16.13-10.58-.45,2.93-3.05,4.2-4.79,6.11-7.61,8.35-10.98,17.8-6.09,28.54,3.19,7.02,7.17,13.76,14.06,18.13,1.56.99,3.83,1.59,3.77,4.16,1.09,3.75,4.26,5.66,7.01,7.94,3.67,3.54,7.45,6.97,10.97,10.65,8.7,9.1,18.94,16.61,27.07,26.3-2.67.36-1.89,2.49-2.09,4.11-.66-.35-1.32-.69-1.98-1.04-.33-.32-.67-.65-1-.97-7.77-7.62-15.45-15.34-23.36-22.81-2.39-2.26-4.47-7.05-7.82-5.57-2.32,1.03-.45,6.05-.81,9.27-.02.34-.05.68-.07,1.02Z"/>
      <path class="cls-14" d="m327.16,332.31c-9.78,11.31-21.96,19.51-34.83,26.81-4.02.82-7.5,2.98-11.22,4.56-16.91,7.18-34.49,11.71-52.77,13.48-3.33.68-6.65,1.35-10.06.56-.22-.46-.49-.64-.89-.18-.73.02-1.46.04-2.19.07-2.93-.99-5.86-1-8.79,0-4.03.07-8.06.15-12.08.22.84-2.91,3.26-1.68,5.02-1.77,13.08-.65,26.37,1.68,39.07-3.96,9.55-4.24,19.06-8.44,27.61-14.52.89-.63,1.21-1.54,1.28-2.57,7.69-1.69,15.07-4.34,22.37-7.21,1.33-.52,3.33-1.08,3.29-2.64-.1-3.87,2.62-4.89,5.3-6.12,2.55.29,4.76-1.02,7.14-1.51,7.3-1.51,14-5.56,21.74-5.22Z"/>
      <path class="cls-13" d="m31.37,152.11c-2.11-7.59-6.67-14.37-7.32-22.47-.33-4.08-1.22-8.11-1.63-12.18-.26-2.55-1.51-3.5-3.91-3.31,5.08-10.51,10.41-20.86,17.56-30.16,2.92,3.23.42,6.78-.06,9.81-1.83,11.54-.14,22.51,4.39,32.97,2.05,4.73,3.22,9.25,3.01,14.34-.22,5.14-.08,10.3-.02,15.45.02,1.58-.55,3.39,1.18,4.56-.09,1.65-.19,3.3-.28,4.95-2.3-3.47-4.46-7.04-6.96-10.36-1.42-1.89-3.01-4.02-5.97-3.6Z"/>
      <path class="cls-17" d="m111.39,19.96c2.45.72,4.59-1.07,6.98-.88-.35.68-.7,1.36-1.04,2.05-1.35.65-2.34,1.66-3.01,2.99-6.49.77-10.09,8.57-6.8,15.28,5.45,11.13,15.28,18.94,22.31,28.9,2.38,3.37,5.97,4.15,10.09,3.9,5.45-.33,10.94-.08,16.42-.08,0,0,0,0,0,0,0,.28,0,.56.02.84-5.61.68-11.31-.73-16.88.79-1.09,0-2.19,0-3.28.01-3.52-1.37-7.21-.2-10.78-.75-3.8-1.85-7.84-.76-11.75-.8-3.23-.04-5.48-.68-7.49-3.57-3.51-5.07-6.94-10.18-9.4-15.81-3.42-7.84-3.71-14.49,3.54-21.18,2.23-2.06,4.28-4.26,4.01-7.65l7.07-4.04Z"/>
      <path class="cls-20" d="m348.32,107.1c-5.69-10.66-12.86-20.31-20.45-29.65-5.67-6.98-9.08-14.95-10.38-23.73-.4-2.71-1.91-4.94-2.19-7.59,1.71-.03,2.66,1.2,3.72,2.24,11.09,10.98,22.18,21.96,31.24,34.75-1.77.18-1.9,1.43-2.02,2.87-.29,3.56,1.11,6.86,1.45,10.29.35,3.6,2.64,7.7-1.38,10.83Z"/>
      <path class="cls-7" d="m104.33,24c.27,3.39-1.78,5.59-4.01,7.65-7.25,6.7-6.96,13.34-3.54,21.18,2.46,5.63,5.89,10.74,9.4,15.81,2,2.89,4.26,3.54,7.49,3.57,3.91.04,7.95-1.04,11.75.8-.96.25-1.93.49-2.89.73-1.12,0-2.25,0-3.37-.01-2.92-.89-5.83-.99-8.71.16-.44,1.58.3,2.28,1.8,2.41,1.12,1.57,2.23,3.14,3.35,4.71-1.05.39-1.81,1.08-2.25,2.11-.33.32-.66.64-1,.96-2.33.02-4.65.04-6.98.06.06-2.57-2.21-3.17-3.77-4.16-6.89-4.37-10.86-11.11-14.06-18.13-4.89-10.75-1.52-20.19,6.09-28.54,1.74-1.91,4.34-3.18,4.79-6.11,2.08-.88,3.53-2.89,5.92-3.2Z"/>
      <path class="cls-13" d="m327.16,332.31c-7.74-.34-14.43,3.71-21.74,5.22-2.38.49-4.59,1.8-7.14,1.51-.59-3.4-3.14-5.2-6.04-5.74-5.59-1.05-11.2-2.29-16.95-2.26,0-.62.01-1.24.02-1.86,5.44.32,10.52-1.92,15.88-2.21,4.44.39,8.31-3.06,12.54-2.44,6.23.93,11.73-.97,17.33-2.87,7.17-2.45,14.31-5,21.46-7.51-.03.64-.06,1.27-.08,1.91-4.74,5.75-9.43,11.55-15.28,16.26Z"/>
      <path class="cls-18" d="m215.21,377.61c.73-.02,1.46-.04,2.18-.07,0,0,.42.19.42.19h.46c3.41.77,6.74.11,10.06-.57.12,2.39,2.39,4.18,1.92,6.74-14.21,2.74-28.54,3.78-42.99,3.01-10.02-5.37-20.97-8.83-30.7-14.8,12.59,1.91,25.18,3.82,37.77,5.73,4.03-.07,8.06-.15,12.08-.22,2.93.43,5.86.43,8.79,0Z"/>
      <path class="cls-24" d="m342.52,314.14c-7.15,2.51-14.29,5.07-21.46,7.51-5.6,1.91-11.1,3.8-17.33,2.87-4.23-.63-8.1,2.82-12.54,2.44,1.06-1.45,2.68-1.65,4.27-2.1,12.2-3.45,23.63-8.68,34.6-14.99.41-.27.82-.53,1.24-.8.19-.16.41-.25.66-.26.42-.28.85-.56,1.27-.84l-.02.02c.37-.28.74-.56,1.11-.85.19-.16.42-.26.67-.28.42-.28.84-.57,1.27-.85h-.02c.36-.28.72-.58,1.08-.87.19-.15.41-.24.66-.26.44-.24.88-.48,1.32-.73,3.61-3.1,8.14-5.08,11.01-9.07.3-.02.59-.05.89-.08.37-.3.73-.61,1.1-.91.34-.33.69-.66,1.03-1,.33-.32.66-.64.99-.96.68-.67,1.37-1.34,2.05-2,.74.32,1.49.63,2.23.95-1.65,5.33-5.64,9.27-8.32,13.99-1.19.65-2.18,1.41-1.85,3-1.5,1.92-3.47,3.51-4.16,5.98-.58.04-1.16.07-1.75.11Z"/>
      <path class="cls-12" d="m140.62,378.09c-12.03-7.63-24.39-14.81-35.43-23.87-7.63-6.26-15.34-12.49-21.94-19.91-.52-.58-.69-1.47-1.01-2.22,2.05-.21,4.16,2.36,6.15-.16,3.48,3.36,6.94,6.73,10.44,10.07,7.62,7.26,15.16,14.6,24.14,20.28,7.36,4.66,14.18,10.19,22.19,13.81,1.72,2.63,5.19,2.69,7.19,4.9-1.95,4.2-3.99,1.3-6.01.07-.98-1.39-2.51-1.78-4.03-2.2-.56-.26-1.12-.52-1.69-.78Z"/>
      <path class="cls-12" d="m348.32,107.1c4.02-3.13,1.73-7.23,1.38-10.83-.34-3.42-1.74-6.72-1.45-10.29.12-1.44.24-2.68,2.02-2.87,4,6.34,8,12.68,11.99,19.02-3.99,3.24-1.93,7.56-1.54,11.26.33,3.13.51,6.24.48,9.36-.02,2.53-1.45,2.69-3.28,1.42-2.58-1.79-3.93-4.7-4.93-7.32-1.3-3.42-3.42-6.37-4.67-9.76Z"/>
      <path class="cls-14" d="m373.29,226.18c2.64,2.97,5.28,5.93,7.91,8.9-1.87,10.31-5.91,19.98-8.95,29.94-.57.1-.98.32-.76,1.02-.42,1.31-.85,2.62-1.27,3.93-1.89.45-1.47,2.89-3.07,3.59-2.38,1.68-5.04,3.02-6.69,5.57-2.04,1.66-4.08,3.33-6.12,4.99-3.59-1.54-.9-2.94.21-4.13,11.41-12.23,17.34-26.97,19.63-43.3.3-2.12,1-4.64-.92-6.6.02-1.02.04-2.03.06-3.05.03-.29.02-.57,0-.86Z"/>
      <path class="cls-1" d="m230.26,383.9c.47-2.56-1.8-4.35-1.92-6.74,18.29-1.77,35.86-6.3,52.77-13.48,3.71-1.58,7.19-3.74,11.22-4.56-4.41,5.29-10.82,7.42-16.73,10.09-14.54,6.57-29.54,11.92-45.34,14.69Z"/>
      <path class="cls-14" d="m152.35,380.99c-2-2.22-5.47-2.27-7.19-4.9,4.52.71,7.01-4.37,11.42-3.97,9.73,5.97,20.68,9.43,30.7,14.8-12.06.5-23.96.07-34.92-5.92Z"/>
      <path class="cls-22" d="m205.33,2.07c-8.36-.1-16.71-.19-25.07-.29.15-.29.26-.81.45-.85,8-1.36,16.01-1.08,24.02-.16.25.03.41.85.6,1.3Z"/>
      <path class="cls-20" d="m367.15,273.56c1.6-.7,1.17-3.14,3.07-3.59.35,6.28-.82,11.85-7.06,15.04.04-.66.08-1.32.13-1.98,0,0-.02.04-.02.04.97-.37.95-1.23,1.03-2.05.93-.33.98-1.11.96-1.92,1.15-1.67,2.08-3.42,1.91-5.55Z"/>
      <path class="cls-3" d="m358.59,291.07c-.74-.32-1.49-.63-2.23-.95,1.82-1.88,2.96-4.5,5.77-5.29,0,0,.25.32.25.32-.1.61-.21,1.21-.31,1.82-1.1.72-1.83,1.67-1.88,3.04-.53.35-1.07.71-1.6,1.06Z"/>
      <path class="cls-20" d="m360.19,290.01c.04-1.37.78-2.32,1.88-3.04,2.25,2.79-.35,2.59-1.88,3.04Z"/>
      <path class="cls-1" d="m142.31,378.87c1.52.41,3.04.81,4.03,2.2-1.61-.24-3.81.6-4.03-2.2Z"/>
      <path class="cls-20" d="m348.43,308.05c-.33-1.58.66-2.35,1.85-3,.02,1.39.1,2.82-1.85,3Z"/>
      <path class="cls-19" d="m3.52,226.92c1.19.27,1.89.9,1.61,2.23-1.26-.23-1.79-.97-1.61-2.23Z"/>
      <path class="cls-20" d="m342.52,314.14c.58-.04,1.16-.07,1.75-.11,0,1.23-.57,1.93-1.83,2.01.03-.64.06-1.27.08-1.91Z"/>
      <path class="cls-19" d="m2.34,215.08c.84.47,1.01,1.2.8,2.08-1.17-.35-2.25-.73-.8-2.08Z"/>
      <path class="cls-11" d="m363.28,283.03c-.04.66-.08,1.32-.13,1.98-.26.03-.52.08-.77.14,0,0-.25-.33-.24-.32.12-.76.35-1.46,1.15-1.79Z"/>
      <path class="cls-20" d="m371.49,266.04c-.22-.7.19-.92.76-1.02-.25.34-.51.68-.76,1.02Z"/>
      <path class="cls-20" d="m88.39,331.93c-1.98,2.52-4.1-.05-6.15.16-12.65-11.51-22.18-25.48-31.2-39.82-5.66-9-10.07-18.68-14.67-28.24-.3-.32-.6-.63-.91-.95-3.11-11.47-8.56-22.16-11.15-33.79-1.29-5.78-3.47-11.41-2.91-17.5,7.51,4.71,7.93,12.86,10.03,20.27,3.29,11.6,7.45,22.9,12.15,34,9.8,21.69,22.51,41.47,38.8,58.88.25.36.5.72.75,1.08,1.75,1.97,3.5,3.94,5.25,5.9Z"/>
      <path class="cls-12" d="m35.47,263.07c.3.32.6.63.91.95-.3-.32-.6-.63-.91-.95Z"/>
      <path class="cls-19" d="m113.35,112.01c.36-3.22-1.51-8.24.81-9.27,3.34-1.48,5.42,3.31,7.82,5.57,7.91,7.47,15.59,15.19,23.36,22.81.33.32.67.65,1,.97.66.35,1.32.69,1.98,1.04,0,0-.02-.03-.02-.03.35.34.69.69,1.04,1.03l-.04-.03c.35.34.7.68,1.05,1.03.02.29.02.59.02.88.35.35.7.7,1.05,1.05l-.05-.05c.36.35.72.69,1.08,1.04l-.07-.07c.36.36.71.71,1.07,1.07l-.06-.08c.29.39.58.79.86,1.18.34.66.69,1.31,1.03,1.97.02,18.45.01,36.91.09,55.36,0,1.89-.79,4.04,1.06,5.62.24,1.71.47,3.42.71,5.13-.23-.01-.46-.05-.68-.11-.82.33-.7.66,0,.99.46,1.98.44,3.95-.02,5.93-1.67,2.03-1.68,4.05,0,6.08.11,8.33.22,16.66.33,24.99-.37.02-.57.21-.61.58-2.8-.08-5.6-.21-8.39-.24-11.36-.11-22.72-.19-34.08-.28l.18.07c0-16.02-.01-32.04-.02-48.07.51-12.69.37-25.39.03-38.08,0-13.7,0-27.41.01-41.11.13-2.35,1.05-4.76-.55-6.97Z"/>
      <path class="cls-13" d="m46.29,149.19c.7-2.25-1.38-5.68,1.49-6.73,3.41-1.25,6.59,1,8.8,3.47,10.01,11.14,20.35,22,31.42,32.03,7.79,7.06,14.47,15.61,24.37,20.17-.01,9.66-.03,19.31-.04,28.97-2.05.23-3.32-1.02-4.76-2.24-4.78-4.05-9.14-8.68-13.93-12.57-9.28-7.53-17.91-15.7-26.48-23.96-7.38-7.11-7.39-7.21-12.93.95-1.01-.36-1.6-1.07-1.88-2.11-2.83-10.24-5.5-20.5-6.21-31.16.05-2.28.1-4.55.15-6.83Z"/>
      <path class="cls-5" d="m46.14,156.02c.71,10.66,3.38,20.92,6.21,31.16.29,1.04.87,1.75,1.88,2.11,1.92,9.03,4.32,17.89,8.86,26.02.21,1.89-.74,1.02-1.49.63l-.04-.05c0-.82-.25-1.5-1.03-1.9l-.02-.05c.02-.84-.21-1.55-1.02-1.95h0c0-.85-.21-1.57-1.01-2h0c.02-.85-.26-1.54-1.02-1.99h0c.03-.84-.15-1.59-.96-2.04l.02.02c0-.84-.15-1.6-.97-2.05l.02.03c-.02-1.12-.18-2.19-1.19-2.9,0,0,0,0,0,0-.07-1.63-.55-3.06-1.94-4.06l.02.02c-.03-.87.06-1.8-.87-2.33-2.76-8.72-5.42-17.46-6.3-26.63.14-.69-.26-1.01-.82-1.23.04-.28-.02-.54-.17-.77.09-1.65.19-3.3.28-4.95,1.02-1.77.35-3.6.19-5.4.46.1.92.2,1.37.3Z"/>
      <path class="cls-14" d="m112.33,227.1c.01-9.66.03-19.32.04-28.97.49.01.99.03,1.48.04,0,16.02.01,32.04.02,48.07-1.92-.94-1.5-2.74-1.51-4.33-.04-4.94-.02-9.87-.03-14.81Z"/>
      <path class="cls-11" d="m46.14,156.02c-.46-.1-.91-.2-1.37-.3-.97-5.86-.2-11.7-.07-17.54,1.5,3.57-.42,7.55,1.59,11.02-.05,2.28-.1,4.55-.15,6.83Z"/>
      <path class="cls-16" d="m88.39,331.93c-1.75-1.97-3.5-3.94-5.25-5.9.23-.69-.22-.92-.75-1.08-16.3-17.41-29-37.19-38.8-58.88,5-2.25,2.12-6.6,1.37-9.03-6.48-20.87-9.43-42.13-8.58-63.95,4.04-2.67,7.34-2.57,10.49,1.76,1.41,1.95,2.7,4.56,5.54,5.22.66.33,1.33.67,1.99,1,0,0,0,0,0,0-.09,1.17-.31,2.39,1.19,2.9,0,0-.02-.03-.02-.02-.23.95-.11,1.72.97,2.05,0,0-.02-.02-.02-.02-.2.92-.05,1.69.96,2.04,0,0,0,0,0,0-.16.92,0,1.67,1.02,1.99,0,0,0,0,0,0-.16.91-.03,1.68,1.01,1.99,0,0,0,.01,0,.01-.17.91-.05,1.68,1.02,1.95,0,0,.02.05.02.04-.19.92-.08,1.69,1.03,1.9,0,0,.04.05.03.05-1.39,3.09,2.62,3.73,2.78,6.12.21,3.99,2.59,7.08,6.23,6.57,8.22-1.14,8.16-1.58,11.73,5.44,2.41,10.68,6.38,20.76,11.85,30.22,3.27,5.65,6.8,11.16,10.21,16.74-1.49.06-2.57-.74-3.33-1.88-3.53-5.34-8.44-9.41-13.01-13.73-4.81-4.56-10.26-8.36-16.56-10.78-3.72-1.43-6.83-.12-7.68,3.2-1.5,5.9-2.28,12.05-.96,18.2,2.98,13.86,9.43,25.98,17.6,37.5,7.75,10.93,16.31,21.18,26.83,29.24,15.84,12.13,33.65,20.55,53.92,22.39,16.88,1.53,33.75,2.12,50.42-2.12,2.76-.7,4.69-2.38,6.5-4.36,1.43-1.57,1.7-3.32.27-4.93-1.66-1.86-3.24-4.26-5.38-5.12-9.99-4.01-17.18-12.15-26.45-17.34-7.57-4.24-14.69-8.86-23.39-10.19-1.39-.21-2.7-.23-2.84-2.05,11.66,0,23.33,0,34.99,0,1.72,4.06,4.85,5.98,9.18,6.08,2.96,3.03,6.94,3.08,10.73,3.68.37.14.74.29,1.12.43.76.27,1.49.65,2.27.79,9.58,1.8,18.81,4.44,27.41,9.26,5.45,3.05,9.81,8.14,16.3,9.19,3.97.64,5.3,2.84,4.97,6.52-.07,1.04-.39,1.94-1.28,2.57-8.55,6.08-18.06,10.28-27.61,14.52-12.69,5.64-25.98,3.31-39.07,3.96-1.76.09-4.18-1.15-5.02,1.77-12.59-1.91-25.18-3.82-37.77-5.73-4.4-.4-6.9,4.69-11.42,3.98-8.01-3.62-14.83-9.15-22.19-13.81-8.98-5.68-16.52-13.01-24.14-20.28-3.5-3.34-6.96-6.71-10.44-10.07Z"/>
      <path class="cls-23" d="m52.4,200.06c-2.84-.65-4.13-3.27-5.54-5.22-3.14-4.33-6.45-4.43-10.49-1.76-3.96.33-6.41-1.42-8.1-5.06-2.47-5.34-5.87-10.21-6.62-16.32-.41-3.36-.16-6.22,2.28-8.65,3.19-3.17,5.67-6.82,7.43-10.95,2.96-.42,4.55,1.71,5.97,3.6,2.5,3.31,4.66,6.89,6.96,10.36.15.24.21.49.17.77.27.41.55.82.82,1.23.87,9.17,3.53,17.91,6.29,26.63-.17.95-.14,1.82.87,2.33,0,0-.02-.02-.02-.02-.02,1.02-.03,2.04-.05,3.06Z"/>
      <path class="cls-21" d="m79.34,43.11c-10.33,14.45-6.8,32.04,7.08,47.81,5.02,5.71,10.82,10.7,15.33,16.91,2.45,3.37,5.88,5.89,10.59,5.27,0,4.33-.01,8.67-.02,13-4.97.98-8.42-2.17-11.33-5.1-7.43-7.48-14.64-15.23-21.4-23.31-8.06-9.63-12.97-20.49-12.38-33.61.36-8.1,5.3-13.65,8.93-20.01.64-1.12,2.04-.93,3.2-.96Z"/>
      <path class="cls-3" d="m113.35,112.01c1.6,2.21.68,4.62.55,6.97-1.1-1.89-.31-3.98-.62-5.95.02-.34.05-.68.07-1.02Z"/>
      <path class="cls-10" d="m131.34,15.12c5.75-2.47,11.9-1.45,17.84-1.61,2.83-.08,5.9.77,8.86.59,10.15-.63,20.21,1.32,30.34,1.02,5.42-.16,10.77.41,16.2-1.63,4.72-1.77,9.76.88,14.62,1.72,10.58,1.83,21.35,3.05,31.15,7.97,11.35,5.69,22.24,12.3,32.26,19.96,5.48,4.19,10.61,9.26,15.75,14.06,5.86,5.47,11.42,11.49,18.18,15.95,3.15,2.08,4.26,6.61,8.71,6.97,0,0,.05.05.05.05.22.31.44.61.66.92.12.33.24.66.36.99.02,1.91.97,2.95,2.9,3.03,0,0,.07.09.07.09-.12,2.13.4,3.78,2.94,3.9,0,0,.07.08.07.08-.05,1.47-.04,2.9,2.03,2.86,0,0,.03.05.03.05-.12,1.49-.16,2.93,1.93,3.01,1.03,1.62,2.06,3.25,3.09,4.87.3.35.59.71.89,1.06,0,0,.09.12.09.12-.24,2.04,0,4.02,1.51,5.51,1.82,1.8,2.95,3.9,3.44,6.39-.77.6-.8,1.3-.48,2.19,2.89,8,2.53,16.33,2.46,24.62-.02,2.63-.53,5.11-3.98,3.64-4.27-1.82-8.65-3.63-11.6-7.52-6.39-8.4-14.94-14.54-22.54-21.67-6.04-5.67-11.75-11.69-17.7-17.45-7.04-6.82-13.78-13.93-21.05-20.55-5.97-5.44-13.66-8.89-18.28-15.86-2.59-3.91-5.92-7.07-9.72-9.86-2.92-2.14-5.36-4.9-8.08-7.32-6.16-5.48-11.91-11.69-19.7-14.79-6.61-2.63-13.56-4.42-20.43-6.34-14.06-3.91-28.77-.9-42.94-3.98-6.56-1.42-13.38-1.26-19.9-3.05Z"/>
      <path class="cls-15" d="m368.49,175.08c-.96,2.89.8,5.48.89,8.3.34,10.29.62,20.53-.99,30.78-.38,2.41-1.18,5.33.99,7.61-.17,4.79-.29,9.56-1.07,14.34-1.86,11.43-5.4,22.29-11.75,31.89-10.87,16.41-26.91,26.65-44.32,34.87-8.54,4.03-17.9,5.4-27.04,7.58-10.85,2.59-21.3,1.72-31.92-.37-3.42-.67-5.48-2.25-4.99-6.04,2.33-1.67,4.66-3.35,6.99-5.02,1.88-.63,2.69-3.08,5.01-2.97-.24,3.61,2.3,4.89,5.05,5.89,11.08,4,22.37,2.69,33.29-.02,10.37-2.57,20.36-6.55,29.2-13.04,8.98-6.6,18.15-12.99,24.26-22.53,10.96-17.12,14.49-36.34,15.14-56.28,0-.99,0-1.97,0-2.96,2.13-3.54.6-7.38.93-11.08,0-2.62-.01-5.23-.02-7.85-.51-2.06,1.78-5.01-1.92-6.05,0-1.7,0-3.39,0-5.09.75-.28.8-.58.03-.91-.02-.67-.03-1.34-.05-2.01.66-.02,1.32-.03,1.98-.05.1.34.21.68.31,1.02Z"/>
      <path class="cls-3" d="m368.18,174.06c-.66.02-1.32.03-1.98.05-3.09-.74-1.47-3.27-1.92-5.01,1.2-.9.7-1.96.48-3.14-1.23-6.66-2.34-13.33-3.5-20,3.78,6.97,4.12,14.89,6.14,22.35.5,1.85.53,3.84.78,5.76Z"/>
      <path class="cls-11" d="m361.27,145.95c1.15,6.67,2.27,13.35,3.5,20,.22,1.18.71,2.24-.48,3.14-.98-.63-.81-1.73-1.14-2.64-1.55-4.33-.33-9.27-2.98-13.35.52-2.46-1.07-4.6-1.07-6.98.4-.38.8-.76,1.21-1.14l.97.96Z"/>
      <path class="cls-7" d="m360.3,144.99c-.4.38-.8.76-1.2,1.14-2.38-.44-2.12-2.67-2.64-4.21-.65-1.97-.67-4.15-2.19-5.79-.71-2.6-1.29-5.22-1.03-7.94l3.13,3.9s-.04-.06-.04-.06c-.08.85.06,1.62.8,2.16.13.23.18.47.15.73.21,2.97-.15,6.13,2.8,8.16.08.64.15,1.27.23,1.91Z"/>
      <path class="cls-5" d="m345.29,113.05c-.49-2.48-1.62-4.59-3.44-6.39-1.51-1.5-1.75-3.47-1.51-5.51,3.87,3.89,5.98,8.83,8.17,13.72,0,0-.33.33-.33.33-1.45-.06-1.87-1.5-2.89-2.14Z"/>
      <path class="cls-7" d="m349.12,115.88c1.46,2.96,3.5,5.65,4.2,8.97-.1.45-.21.91-.31,1.36-3.53-2.56-3.96-6.55-4.73-10.37l.42.07.42-.02Z"/>
      <path class="cls-21" d="m360.07,143.08c-2.95-2.03-2.59-5.19-2.8-8.16,1.81,2.42,3.4,4.92,2.8,8.16Z"/>
      <path class="cls-21" d="m353.01,126.2c.1-.45.21-.9.31-1.36,1.54,2.19,2.83,4.49,3.04,7.24-1.04-1.3-2.08-2.6-3.13-3.9-.08-.66-.15-1.32-.23-1.99Z"/>
      <path class="cls-5" d="m332.22,89.1c-2.54-.12-3.06-1.77-2.94-3.9,1.6.83,2.64,2.09,2.94,3.9Z"/>
      <path class="cls-5" d="m329.21,85.11c-1.94-.08-2.88-1.11-2.9-3.03,1.85.16,2.68,1.3,2.9,3.03Z"/>
      <path class="cls-5" d="m336.28,95.1c-2.08-.08-2.04-1.52-1.93-3.01,1.37.54,1.72,1.73,1.93,3.01Z"/>
      <path class="cls-5" d="m334.32,92.04c-2.07.04-2.09-1.39-2.03-2.86,1.28.53,1.93,1.5,2.03,2.86Z"/>
      <path class="cls-21" d="m357.12,134.19c-.74-.55-.88-1.32-.8-2.16,1.05.43.94,1.29.8,2.16Z"/>
      <path class="cls-5" d="m325.95,81.09c-.22-.31-.44-.61-.66-.92.54.08.78.37.66.92Z"/>
      <path class="cls-5" d="m349.12,115.88l-.42.02s-.42-.07-.41-.06c-.02-.21-.06-.42-.11-.63,0,0,.33-.32.33-.33.2.33.41.67.61,1Z"/>
      <path class="cls-5" d="m340.25,101.03c-.3-.35-.59-.71-.89-1.06.3.35.59.71.89,1.06Z"/>
      <path class="cls-4" d="m348.18,115.2c.05.21.08.42.11.63.76,3.82,1.19,7.81,4.73,10.37.07.66.15,1.32.23,1.99-.26,2.73.31,5.34,1.03,7.94-1,.68-.99,1.62-.64,2.63,2.24,6.59,2.47,13.55,3.66,20.33-1.3,1-1.3,1.99,0,2.99.33,2.01.65,4.01.98,6.02-2.18.22-2.38,1.99-1.91,3.32,1.42,3.99.05,7.86-.15,11.75-.38,7.14-1.88,14.12-4.47,20.78-2.17,5.58-8.08,8.05-11.88,5.07-7.11-5.57-13.85-11.58-20.15-18.06-.79-.82-1.47-1.84-1.9-2.89-2.36-5.65-6.99-9.63-10.46-14.46-1.66-2.32-3.68-2.44-6.06-1.52.03-2.85-.59-5.54-1.98-8.04-.49-13.69-6.51-25.48-12.86-37.14-.46-.85-1.29-1.53-2.4-1.59h-.04c-.05-2.58-.65-4.75-3.69-5.16l-.08-.09c.16-2.18-.39-3.83-3-3.88l-1.02-1.09c.09-1.51.11-2.96-2.05-2.86v-.03c-.31-.34-.62-.68-.93-1.02l-.03-.04c-.31-.33-.62-.65-.93-.98l-.05-.05c-.32-.32-.63-.63-.95-.95l-.05-.05c-.32-.32-.63-.63-.95-.95l-.05-.05c-.33-.31-.65-.63-.98-.94-.35-.32-.69-.65-1.04-.97-.34-.34-.68-.68-1.01-1.01-.34-.31-.68-.61-1.02-.92.1-2.18-1.37-2.18-2.9-2.08-1.51-1.28-2.94-2.69-4.55-3.83-20.49-14.58-43.16-22.8-68.43-23.45v-1.73c3.47-.05,6.94-.1,10.41-.13,1.01,0,2.09.09,2.39-1.19.27-1.13-.43-1.91-1.31-2.45-2.58-1.6-5.03-3.5-6.26-6.26-3.11-6.95-7.88-12.13-14.81-15.32-1.68-.77-3.61-1.57-4.15-3.39-1.78-6.03-6.81-8.94-11.58-11.73-3.31-1.94-5.64-5.74-9.46-6.22-6.74-.85-13.32-2.47-19.99-3.59-6.08-1.02-12.32.45-18.2-1.77.35-.68.69-1.36,1.04-2.05,4.21-1.69,8.07-4.51,12.97-3.97,6.52,1.79,13.34,1.63,19.9,3.05,14.17,3.08,28.89.07,42.94,3.98,6.87,1.91,13.83,3.71,20.43,6.34,7.8,3.1,13.54,9.31,19.7,14.79,2.72,2.42,5.17,5.18,8.08,7.32,3.81,2.79,7.13,5.96,9.72,9.86,4.62,6.97,12.31,10.42,18.28,15.86,7.27,6.62,14.01,13.73,21.05,20.55,5.95,5.76,11.66,11.79,17.7,17.45,7.6,7.13,16.15,13.27,22.54,21.67,2.96,3.88,7.34,5.7,11.6,7.52,3.45,1.47,3.96-1.01,3.98-3.64.07-8.3.43-16.63-2.46-24.62-.32-.89-.29-1.59.48-2.19,1.01.64,1.44,2.08,2.89,2.14Z"/>
      <path class="cls-24" d="m248.29,304.03c-.49,3.79,1.57,5.37,4.99,6.04,10.62,2.08,21.07,2.95,31.92.37,9.14-2.18,18.5-3.54,27.04-7.58,17.41-8.22,33.45-18.46,44.32-34.87,6.35-9.6,9.89-20.46,11.75-31.89.78-4.79.9-9.55,1.07-14.34.96,1.08,1.92,2.16,2.88,3.25.04.83.15,1.63,1.03,2.03-.02,1.02-.04,2.03-.06,3.05-.99,4.12-2.29,8.2-2.9,12.38-2.89,19.55-13.57,34.53-28.67,46.08-12.55,9.6-26.53,17.22-41.76,22.16-5.17,1.67-10.22,4.79-15.43,5.01-11.24.49-22.48,2.13-33.76,1.29-6.99-.52-10.36-3-11.5-8.05.69-.65,1.38-1.3,2.07-1.96,2.81.13,4.34-2.75,7-2.97Z"/>
      <path class="cls-13" d="m373.3,227.04c-.88-.4-1-1.2-1.03-2.03.34.39.68.78,1.03,1.17.03.29.04.57,0,.86Z"/>
      <path class="cls-7" d="m150.37,136.01c0-.29,0-.59-.02-.88-.35-.34-.7-.68-1.05-1.03,0,0,.04.03.04.03-.35-.34-.69-.69-1.04-1.03,0,0,.02.03.02.03.2-1.62-.58-3.74,2.09-4.1,1.49.97,2.91,1.81,4.81,2.19,8.34,1.67,16.73.28,25.08.81-.35,6.16,4.38,9.54,7.89,13.23,9.82,10.35,20.5,19.92,30.07,30.49,8.33,9.2,16.69,18.4,24.67,27.94,3.67,4.38,6.63,10.84,14.18,10.35.3.34.61.67.92,1.01-.27,2.6-.54,5.2-.81,7.8-1.05.13-1.54.6-1.99,1.72-1.47,3.61-2.7,7.37-5.15,10.52-.24.36-.48.73-.71,1.09,0,0,.06-.08.06-.08-.36.36-.72.71-1.08,1.07,0,0,.06-.03.06-.03-3.82-.43-7.1-2.38-9.37-5.13-8.59-10.41-18.9-19.16-27.79-29.29-9.75-11.11-20.62-21.25-30.72-32.06-5.65-6.04-10.58-12.75-16.17-18.86-2.37-2.59-2.91-6.94-7.18-7.75l-.1-.23.17-.18c.06-1.57.45-3.33-1.97-3.5,0,0,.05.05.05.05-.32-.36-.64-.73-.97-1.09-.32-.06-.64-.09-.96-.1,0,0,.06.08.06.08-.36-.36-.71-.71-1.07-1.07,0,0,.07.07.07.07-.36-.35-.72-.69-1.08-1.04,0,0,.05.05.05.05-.35-.35-.7-.7-1.05-1.05Z"/>
      <path class="cls-9" d="m180.29,132.03c-8.35-.53-16.74.86-25.08-.81-1.9-.38-3.32-1.22-4.81-2.19-8.13-9.68-18.37-17.19-27.07-26.3-3.52-3.68-7.31-7.11-10.97-10.65-.01-2.7,1.49-5.21.95-7.97.04-.33.04-.66.02-.99.44-1.04,1.21-1.73,2.25-2.11,4.26,2.55,7.9,5.88,11.52,9.23,8.86,8.21,17.68,16.46,26.56,24.65,2.08,1.92,4.43,3.02,7.46,2.99,11.15-.13,22.31.09,33.47-.07,14.84-.21,28.96,2.21,41.68,10.38.32.31.63.63.95.94.16.53.41.94,1.06.82,12.47,10.87,19.22,24.38,19.05,41.11-.03.97-.06,1.94-.09,2.91-.34.07-.67.14-1.01.2-.25-.7-.5-1.41-.76-2.11,1.93-5.68-.89-10.29-3.01-15.26-6.01-14.11-16.96-22.84-30.98-27.24-10.18-3.2-21-1.56-31.54-.36-1.55.18-1.55,1.49-1.72,2.63-2.64.07-5.28.14-7.92.21Z"/>
      <path class="cls-21" d="m113.32,84.12c.55,2.76-.96,5.27-.95,7.97-2.76-2.28-5.92-4.19-7.01-7.94,2.33-.02,4.65-.04,6.98-.06.33.02.65.03.98.03Z"/>
      <path class="cls-12" d="m146.33,132.1c-.33-.32-.67-.65-1-.97.33.32.67.65,1,.97Z"/>
      <path class="cls-23" d="m267.32,355.01c.33-3.69-1-5.88-4.97-6.52-6.49-1.05-10.85-6.14-16.3-9.19-8.6-4.82-17.84-7.47-27.41-9.26-.78-.15-1.51-.52-2.27-.79,2.48-.07,4.97-.14,7.45-.21,4.44,1.3,8.98,1.8,13.58,1.92,6.19,2.27,12.61.61,18.91,1.09,3.34-.49,6.94,1.21,10.06-1.17l.27-.12s.27.13.27.13c2.8.05,5.59.11,8.39.16,5.75-.03,11.36,1.21,16.95,2.26,2.9.54,5.44,2.34,6.04,5.74-2.68,1.23-5.4,2.25-5.3,6.12.04,1.57-1.96,2.12-3.29,2.64-7.3,2.87-14.69,5.52-22.37,7.21Z"/>
      <path class="cls-2" d="m215.21,377.61c-2.93.43-5.86.43-8.79,0,2.93-1,5.86-.99,8.79,0Z"/>
      <path class="cls-2" d="m218.28,377.72h-.46s-.42-.18-.42-.18c.4-.46.67-.28.89.18Z"/>
      <path class="cls-20" d="m236.27,128.19c-12.72-8.17-26.84-10.59-41.68-10.38-11.15.16-22.31-.06-33.47.07-3.03.04-5.38-1.07-7.46-2.99-8.87-8.19-17.7-16.44-26.56-24.65-3.62-3.35-7.26-6.67-11.52-9.23-1.12-1.57-2.23-3.14-3.35-4.71.04-.67.09-1.35.13-2.02,2.26-.18,4.52-.36,6.78-.54,1.12,0,2.25,0,3.37.01,4.56.57,9.11.57,13.67.02,1.09,0,2.19,0,3.28-.01,11.05.12,22.1.25,33.14.36,1.97.02,3.98-.21,5.66,1.16,4.71,2.37,9.24,5.03,14.14,7.09,13.27,5.59,26.49,11.32,38.9,18.72,1.59,3.85.73,8.93,3.59,11.79,5.1,5.1,5.03,9.85,1.36,15.32Z"/>
      <path class="cls-6" d="m117.33,21.13c5.88,2.22,12.12.75,18.2,1.77,6.67,1.12,13.26,2.74,19.99,3.59,3.82.48,6.15,4.28,9.46,6.22,4.77,2.79,9.8,5.7,11.58,11.73.54,1.82,2.47,2.62,4.15,3.39,6.93,3.18,11.7,8.37,14.81,15.32,1.23,2.75,3.68,4.65,6.26,6.26.88.55,1.58,1.32,1.31,2.45-.3,1.27-1.38,1.18-2.39,1.19-3.47.03-6.93.09-10.4.13-8.01-.06-16.02-.12-24.03-.18-3.18-1.78-6.63-.49-9.94-.87,0,0,0,0,0,0-.32-3.01-2.8-4.51-4.79-6.07-2.5-1.96-4.9-3.93-6.91-6.39-6.83-8.34-15.05-15.34-22.33-23.25-3.32-3.61-8.89-5.89-7.99-12.29.68-1.33,1.66-2.34,3.01-2.99Z"/>
      <path class="cls-8" d="m114.31,24.12c-.9,6.4,4.66,8.68,7.99,12.29,7.27,7.91,15.49,14.91,22.33,23.25,2.01,2.45,4.41,4.43,6.91,6.39,1.99,1.56,4.47,3.06,4.79,6.07-5.47,0-10.96-.25-16.42.08-4.12.25-7.71-.54-10.09-3.9-7.03-9.95-16.86-17.77-22.31-28.9-3.29-6.71.31-14.51,6.8-15.28Z"/>
      <path class="cls-5" d="m166.27,72.99c8.01.06,16.02.12,24.03.18,0,.58,0,1.15,0,1.73-4,.12-8.01.25-12.01.37-1.69-1.38-3.7-1.14-5.66-1.16-11.05-.11-22.1-.24-33.14-.36,5.57-1.52,11.27-.1,16.88-.78,3.31.01,6.61.02,9.92.03Z"/>
      <path class="cls-5" d="m136.19,73.76c-4.56.55-9.12.56-13.67-.02.97-.24,1.93-.49,2.89-.74,3.57.55,7.27-.62,10.78.75Z"/>
      <path class="cls-8" d="m166.27,72.99c-3.31,0-6.61-.02-9.92-.03-.02-.28-.02-.56-.02-.84,3.3.38,6.75-.9,9.94.87Z"/>
      <path class="cls-5" d="m119.15,73.73c-2.26.18-4.52.36-6.78.54-.65-.13-1.29-.26-1.94-.39,2.89-1.15,5.79-1.05,8.71-.16Z"/>
      <path class="cls-22" d="m110.43,73.89c.65.13,1.29.26,1.94.39-.04.68-.09,1.35-.13,2.02-1.5-.13-2.24-.83-1.8-2.41Z"/>
      <path class="cls-11" d="m113.32,84.12c-.33,0-.65-.01-.98-.03.33-.32.66-.64,1-.96.03.33.02.66-.02.99Z"/>
      <path class="cls-5" d="m237.4,330.95c-4.6-.12-9.15-.62-13.58-1.92.16-.55.31-1.1.46-1.65,9.01-.15,18.01-.3,27.02-.45,8.03-.41,15.84-2,23.73-3.59,12.22-2.46,23.82-6.46,35.28-11.11,10.15-4.12,19.29-10.14,28.9-15.28-.32,2.28-.65,4.55-.97,6.83-.09.36-.17.72-.26,1.08-.25.02-.46.11-.66.26-.36.29-.72.59-1.08.88,0,0,.02-.01.02-.01-.42.28-.84.57-1.27.85-.25.03-.47.12-.67.28-.37.28-.74.56-1.11.85,0,0,.02-.02.02-.02-.42.28-.85.56-1.27.84-.25.02-.47.1-.66.26-.41.27-.82.53-1.24.8-10.96,6.31-22.4,11.54-34.6,14.99-1.58.45-3.21.66-4.27,2.1-5.35.29-10.44,2.53-15.88,2.21-2.8.6-5.75.43-8.41,1.7l-.27-.13s-.27.12-.27.13c-3.35.09-6.69.18-10.04.26-6.31-.06-12.62-.13-18.93-.19Z"/>
      <path class="cls-24" d="m266.91,330.88c2.66-1.28,5.61-1.11,8.41-1.7,0,.62-.01,1.24-.02,1.86-2.8-.05-5.59-.11-8.39-.16Z"/>
      <path class="cls-4" d="m338.23,303.79c.32-2.28.65-4.55.97-6.83,0,0,0,.07,0,.07.35-.3.71-.59,1.06-.89,3.66-2.92,7.33-5.83,10.99-8.75-.15,2.58-1.48,5.02-.94,7.68-2.87,3.99-7.41,5.97-11.01,9.07-.35-.12-.71-.23-1.06-.35Z"/>
      <path class="cls-17" d="m350.3,295.07c-.54-2.67.79-5.1.94-7.68,1.2-.92,2.57-1.69,3.08-3.26,2.04-1.66,4.08-3.33,6.12-4.99,1.6.28,3.18-1.29,4.79-.03.02.81-.02,1.59-.96,1.92-.83.44-1.02,1.2-1.02,2.05,0,0,.02-.04.02-.04-.8.33-1.02,1.03-1.15,1.79-2.81.8-3.96,3.41-5.77,5.29-.68.67-1.37,1.34-2.05,2-.33.32-.66.64-.99.96-.34.33-.69.66-1.03,1-.37.3-.73.61-1.1.91-.3.03-.59.06-.89.08Z"/>
      <path class="cls-3" d="m353.32,293.08c.33-.32.66-.64.99-.96-.33.32-.66.64-.99.96Z"/>
      <path class="cls-3" d="m351.19,294.99c.37-.3.73-.61,1.1-.91-.37.3-.73.61-1.1.91Z"/>
      <path class="cls-3" d="m338.23,303.79c.35.12.71.23,1.06.35-.44.24-.88.49-1.32.73.09-.36.17-.72.26-1.08Z"/>
      <path class="cls-3" d="m336.23,306.01c.36-.29.72-.59,1.08-.88-.36.29-.72.59-1.08.88Z"/>
      <path class="cls-3" d="m334.98,306.85c.42-.28.84-.57,1.27-.85-.42.28-.84.57-1.27.85Z"/>
      <path class="cls-3" d="m333.2,307.98c.37-.28.74-.57,1.11-.85-.37.28-.74.57-1.11.85Z"/>
      <path class="cls-3" d="m331.95,308.81c.42-.28.85-.56,1.27-.84-.42.28-.85.56-1.27.84Z"/>
      <path class="cls-3" d="m330.06,309.87c.41-.27.82-.53,1.24-.8-.41.27-.82.53-1.24.8Z"/>
      <path class="cls-13" d="m354.33,284.12c-.52,1.57-1.88,2.34-3.08,3.26-3.66,2.92-7.33,5.83-10.99,8.75-.35.3-.71.59-1.06.89,0,0,0-.07,0-.07-9.61,5.13-18.74,11.15-28.9,15.27-11.47,4.65-23.07,8.65-35.28,11.11-7.89,1.59-15.7,3.18-23.73,3.59-10.59-1.58-21.19-1.2-31.79-.18-1.31.02-2.63.03-3.94.05-1.12-.54-2.23-1.09-3.35-1.63,5.24-1.29,3.58-5.7,4.11-9.11,1.75-.4,3.54-.68,5.24-1.23,5.9-1.91,11.78-3.9,17.66-5.87,1.14,5.06,4.51,7.54,11.5,8.05,11.29.83,22.52-.8,33.76-1.29,5.2-.23,10.26-3.34,15.43-5.01,15.23-4.93,29.21-12.56,41.76-22.16,15.1-11.55,25.78-26.54,28.67-46.08.62-4.18,1.92-8.25,2.9-12.38,1.92,1.96,1.22,4.48.92,6.6-2.29,16.33-8.21,31.06-19.63,43.3-1.11,1.19-3.8,2.59-.21,4.13Z"/>
      <path class="cls-11" d="m365.24,279.1c-1.6-1.26-3.19.31-4.79.03,1.65-2.55,4.32-3.89,6.69-5.57.18,2.13-.76,3.87-1.91,5.54Z"/>
      <path class="cls-11" d="m363.25,283.07c0-.85.2-1.61,1.02-2.05-.07.82-.05,1.68-1.02,2.05Z"/>
      <path class="cls-12" d="m82.39,324.94c.53.17.98.39.75,1.08-.25-.36-.5-.72-.75-1.08Z"/>
      <path class="cls-23" d="m82.33,234.06c-3.57-7.01-3.51-6.58-11.73-5.44-3.64.51-6.01-2.59-6.23-6.57.7-.23,2.58,2.01,1.98-.43-.53-2.17-1.17-4.75-3.27-6.32-4.54-8.13-6.94-17-8.86-26.02,5.55-8.16,5.56-8.06,12.93-.95,8.57,8.26,17.2,16.43,26.48,23.96,4.79,3.89,9.15,8.52,13.93,12.57,1.44,1.22,2.71,2.47,4.76,2.24,0,4.94-.01,9.87.03,14.81.01,1.59-.41,3.38,1.51,4.33,0,0-.18-.07-.18-.07-.14,4.7-.29,9.39-.43,14.08-7.64-3.68-12.41-10.51-18.15-16.3-3.1-3.13-4.04-8.16-8.73-9.83-1.34-1.48-2.69-1.44-4.05-.04Z"/>
      <path class="cls-15" d="m157.13,208.23c-.24-1.71-.47-3.42-.71-5.13.22-6.31.45-12.63.67-18.94,2.44,2.14,1.26,5,1.14,7.42-.47,9.6,3.19,17.32,9.94,23.82,7.62,7.34,15.18,14.75,22.76,22.11,8.69,8.44,15.58,18.81,27.41,23.56-4.52,1.83-9.11,3.41-14.03,3.75-6.72.16-11.14-3.75-15.19-8.45-7.53-8.72-15.83-16.66-24.22-24.56-4.19-3.95-7.67-8.93-6.73-15.71.34-2.47,1.45-5.57-1.03-7.89Z"/>
      <path class="cls-24" d="m157.13,208.23c2.48,2.32,1.38,5.42,1.03,7.89-.94,6.78,2.54,11.75,6.73,15.71,8.39,7.9,16.69,15.84,24.22,24.56,4.05,4.7,8.47,8.61,15.19,8.45-9.91,2.35-19.94.8-29.92.93-3.44-8.12-10.4-13.34-16.16-19.54-.25-.26-.96-.09-1.46-.12-.11-8.33-.22-16.66-.33-24.99.42-2.03.43-4.05,0-6.08.46-1.97.48-3.95.02-5.93,0-.33,0-.66,0-.99.22.07.45.1.68.11Z"/>
      <path class="cls-14" d="m113.26,260.25c.14-4.69.28-9.39.43-14.08,11.36.09,22.72.17,34.08.28,2.8.03,5.6.16,8.39.24.04,4.45.08,8.9.12,13.36-12.24,0-24.48,0-36.72.05-1.75,0-3.67-.61-5.21.84-.61.16-.94-.12-1.09-.68Z"/>
      <path class="cls-13" d="m156.29,260.04c-.04-4.45-.08-8.9-.12-13.36.03-.37.24-.56.61-.58.5.03,1.21-.14,1.46.12,5.76,6.2,12.72,11.42,16.16,19.54-6.03,0-12.05,0-18.08.01,0-1.91-.02-3.83-.03-5.74Z"/>
      <path class="cls-12" d="m157.1,184.16c-.22,6.31-.45,12.63-.67,18.94-1.84-1.59-1.05-3.73-1.06-5.62-.08-18.45-.07-36.9-.09-55.36l.13-.1c.3.39.6.77.9,1.16.07,4.05.13,8.1.2,12.15l.59,28.83Z"/>
      <path class="cls-12" d="m156.44,215.03c.43,2.03.43,4.05,0,6.08-1.68-2.03-1.67-4.05,0-6.08Z"/>
      <path class="cls-12" d="m155.28,142.13c-.34-.66-.69-1.31-1.03-1.97,0,0,.12-.1.12-.1.31.04.63.08.94.11,0,0-.05-.05-.05-.05.05.63.1,1.27.15,1.9l-.13.1Z"/>
      <path class="cls-12" d="m153.39,138.98c.32.01.64.05.96.1.01.33.02.65.03.98,0,0-.12.1-.12.1-.29-.39-.58-.79-.86-1.18Z"/>
      <path class="cls-12" d="m156.45,208.12c0,.33,0,.66,0,.99-.71-.33-.82-.65,0-.99Z"/>
      <path class="cls-11" d="m148.29,133.11c.35.34.69.69,1.04,1.03-.35-.34-.69-.69-1.04-1.03Z"/>
      <path class="cls-11" d="m149.29,134.11c.35.34.7.68,1.05,1.03-.35-.34-.7-.68-1.05-1.03Z"/>
      <path class="cls-12" d="m150.37,136.01c.35.35.7.7,1.05,1.05-.35-.35-.7-.7-1.05-1.05Z"/>
      <path class="cls-12" d="m151.37,137.01c.36.35.72.69,1.08,1.04-.36-.35-.72-.69-1.08-1.04Z"/>
      <path class="cls-12" d="m152.38,137.99c.36.36.71.71,1.07,1.07-.36-.36-.71-.71-1.07-1.07Z"/>
      <path class="cls-24" d="m63.09,215.31c2.1,1.57,2.74,4.14,3.27,6.32.59,2.44-1.28.2-1.98.43-.16-2.39-4.17-3.03-2.78-6.12.75.39,1.71,1.26,1.49-.63Z"/>
      <path class="cls-24" d="m52.4,200.06c.02-1.02.03-2.04.05-3.06,1.39,1,1.87,2.43,1.94,4.06-.66-.33-1.33-.67-1.99-1Z"/>
      <path class="cls-24" d="m55.58,203.95c-1.5-.51-1.28-1.73-1.19-2.9,1.02.71,1.18,1.77,1.19,2.9Z"/>
      <path class="cls-24" d="m60.51,213.94c-1.07-.27-1.19-1.03-1.02-1.95.81.4,1.04,1.11,1.02,1.95Z"/>
      <path class="cls-24" d="m52.46,197.02c-1.01-.51-1.04-1.38-.87-2.33.94.53.84,1.46.87,2.33Z"/>
      <path class="cls-24" d="m56.53,205.98c-1.08-.32-1.2-1.1-.97-2.05.82.45.97,1.21.97,2.05Z"/>
      <path class="cls-24" d="m57.47,208c-1.01-.36-1.16-1.12-.96-2.04.8.45.99,1.2.96,2.04Z"/>
      <path class="cls-24" d="m58.48,209.99c-1.02-.32-1.17-1.07-1.02-1.99.76.45,1.04,1.14,1.02,1.99Z"/>
      <path class="cls-24" d="m61.56,215.88c-1.12-.21-1.22-.98-1.03-1.9.78.4,1.03,1.08,1.03,1.9Z"/>
      <path class="cls-24" d="m59.48,211.98c-1.04-.3-1.17-1.07-1.01-1.99.79.43,1.02,1.15,1.01,1.99Z"/>
      <path class="cls-13" d="m45.29,168.07c-.27-.41-.55-.82-.82-1.23.56.22.96.54.82,1.23Z"/>
      <path class="cls-2" d="m160.34,319.04c.14,1.82,1.45,1.84,2.84,2.05,8.71,1.34,15.82,5.95,23.39,10.19,9.27,5.2,16.46,13.34,26.45,17.34,2.14.86,3.72,3.26,5.38,5.12,1.43,1.61,1.16,3.36-.27,4.93-1.81,1.98-3.74,3.66-6.5,4.36-16.67,4.24-33.54,3.65-50.42,2.12-20.27-1.84-38.08-10.26-53.92-22.39-10.52-8.06-19.08-18.31-26.83-29.24-8.17-11.52-14.62-23.64-17.6-37.5-1.32-6.16-.55-12.3.96-18.2.85-3.32,3.96-4.63,7.68-3.2,6.3,2.42,11.75,6.22,16.56,10.78,4.56,4.33,9.48,8.39,13.01,13.73.75,1.14,1.83,1.94,3.33,1.88.64.51,1.45.91,1.91,1.55,6.42,8.93,14.4,16.42,22.22,24.04,3.76,3.66,7.58,7.38,11.9,10.31,6.08,4.12,13.26,1.42,19.92,2.12Z"/>
      <path class="cls-14" d="m160.34,319.04c-6.66-.7-13.84,2-19.92-2.12-4.32-2.93-8.14-6.65-11.9-10.31-7.82-7.62-15.8-15.11-22.22-24.04-.46-.64-1.27-1.04-1.91-1.55-3.41-5.57-6.93-11.08-10.21-16.74-5.48-9.46-9.44-19.54-11.85-30.22,1.37-1.4,2.72-1.44,4.05.04,1.48,5.21,4.38,9.76,7.03,14.38,11.05,19.26,26.8,34.51,42.82,49.47,2.99,2.79,5.64,6.33,10.11,7.14,1.18,1.32,2.77.92,4.22.92,15.3,0,30.6-.01,45.9-.03,1.01-.14,2.29.63,2.89-.86,7.51-.37,15.01-1.42,22.16-3.39,7.94-2.18,15.84-5.01,22.85-9.67.94-.38,1.89-.77,2.83-1.15-1.05,5.7-5.2,10.25-5.9,16.07-.69.65-1.38,1.31-2.07,1.96-5.89,1.96-11.76,3.96-17.66,5.87-1.7.55-3.49.83-5.24,1.23-6.89,1.76-13.83,3.11-20.99,2.99-11.66,0-23.33,0-34.99,0Z"/>
      <path class="cls-23" d="m195.33,319.05c7.16.12,14.1-1.23,20.99-2.99-.53,3.42,1.13,7.82-4.1,9.11-2.57-.01-5.13-.03-7.7-.04-4.34-.1-7.47-2.02-9.18-6.08Z"/>
      <path class="cls-15" d="m204.51,325.13c2.57.01,5.13.03,7.7.04,1.11.54,2.23,1.09,3.34,1.63-.1.67-.21,1.34-.31,2-3.79-.6-7.77-.65-10.73-3.68Z"/>
      <path class="cls-3" d="m215.25,328.81c.1-.67.21-1.34.31-2,1.31-.02,2.63-.03,3.94-.05,1.59.21,3.18.42,4.78.63-.15.55-.31,1.1-.46,1.65-2.49.07-4.97.14-7.45.21-.37-.14-.74-.29-1.12-.43Z"/>
      <path class="cls-7" d="m360.16,153.11c2.65,4.07,1.44,9.01,2.98,13.35.33.91.16,2.01,1.14,2.64.44,1.75-1.17,4.28,1.92,5.01.02.67.03,1.34.05,2.01-.02.3-.03.61-.03.91,0,1.7,0,3.39,0,5.08-.03,1.98-.05,3.97-.08,5.95-1.34,2.69-1.42,5.36.05,8.03,0,2.3,0,4.6,0,6.9-3.25,1.47-2.61,4.49-2.95,7.19-1.25,10.1-2.18,20.28-5.98,29.87-1.26.22-2.51.44-.98,2.01-.34.99-.68,1.99-1.02,2.98-1.46.04-1.66,1.2-2.23,2.23-6.09,10.93-13.43,20.71-24.6,27.1-8.7,4.97-17.84,7.3-27.82,5.65-6.8-1.12-12.18-4.66-16.45-9.99,3.35-7.33,6.69-14.66,10.04-21.99,3.46.62,4.92,3.62,7.04,5.87,5.78,6.12,12.17,10.93,21.3,10.28,13.54-.97,27.4-18.58,30.72-31.14,3.66-9.46,5.36-19.38,6.6-29.36,1.52-12.15,2.13-24.31.74-36.58-.52-4.59-1.51-9.31-.44-14.01Z"/>
      <path class="cls-21" d="m355.26,245.05c.34-.99.68-1.99,1.02-2.98.81-.44.98-1.18.98-2.01,3.8-9.6,4.73-19.77,5.98-29.87.33-2.7-.3-5.71,2.95-7.19.27,1.38-.39,3,1.04,4.09,0,.99,0,1.97,0,2.96-3.47,3.11-2.45,7.46-2.87,11.29-1.48,13.56-4.77,26.78-11.29,38.6-8.2,14.88-20.73,25.61-36.9,31.66-13.26,4.96-26.69,7.71-40.76,3.52-3.36-1-6.2-2.3-7.07-6.06,3.32-3.67,6.64-7.34,9.95-11.01.92,6.86,6.79,7.84,11.71,8.82,12.34,2.47,24.08.64,35.36-5.56,14.92-8.19,25.81-19.32,29.91-36.25Z"/>
      <path class="cls-3" d="m268.33,289.04c.87,3.76,3.71,5.06,7.07,6.06,14.07,4.2,27.5,1.44,40.76-3.52,16.17-6.05,28.7-16.78,36.9-31.66,6.52-11.82,9.81-25.04,11.29-38.6.42-3.83-.6-8.18,2.87-11.29-.65,19.95-4.18,39.17-15.14,56.28-6.11,9.54-15.28,15.93-24.26,22.53-8.84,6.5-18.82,10.47-29.2,13.04-10.92,2.71-22.2,4.02-33.29.02-2.75-.99-5.3-2.27-5.05-5.89.91-2.43,3.89-2.76,5.04-4.95,1-.68,2-1.36,3-2.04Z"/>
      <path class="cls-24" d="m265.32,291.08c-1.15,2.19-4.12,2.52-5.04,4.95-2.32-.1-3.13,2.34-5.01,2.97-.01-4.87,2.79-9.34,2-14.32,5.64-5.28,11.29-10.56,16.93-15.84-.69,4.02-1.28,8.12-4.37,11.14-3.15,3.08-4.48,6.8-4.51,11.1Z"/>
      <path class="cls-13" d="m257.27,284.69c.8,4.98-2.01,9.45-1.99,14.32-2.33,1.67-4.66,3.35-6.99,5.02-2.66.22-4.19,3.1-7,2.97.7-5.82,4.85-10.38,5.9-16.08,3.36-2.08,6.72-4.16,10.08-6.24Z"/>
      <path class="cls-21" d="m366.19,196.09c-1.47-2.67-1.39-5.35-.05-8.03.67.03,1.33.07,2,.1,0,2.62.01,5.23.02,7.85-.65.03-1.31.06-1.96.08Z"/>
      <path class="cls-3" d="m366.19,196.09c.66-.03,1.31-.06,1.96-.08-.33,3.69,1.2,7.53-.93,11.07-1.42-1.09-.76-2.71-1.04-4.09,0-2.3,0-4.6,0-6.9Z"/>
      <path class="cls-3" d="m368.13,188.16c-.66-.03-1.33-.07-2-.1.02-1.98.05-3.97.08-5.95,3.7,1.04,1.41,3.99,1.92,6.05Z"/>
      <path class="cls-21" d="m366.22,177.02c0-.3.01-.61.03-.91.77.33.72.63-.03.91Z"/>
      <path class="cls-8" d="m360.16,153.11c-1.07,4.7-.08,9.43.44,14.01,1.39,12.27.77,24.43-.74,36.58-1.25,9.98-2.95,19.9-6.6,29.36-2.57.29-2.79,2.66-3.59,4.33-3.24,6.78-8.36,11.88-14.42,16.02-5.76,3.93-11.79,3.74-17.78.18-7.03-4.17-12.03-10.21-16.02-17.2-.8-1.39-1.1-3.26-3.22-3.38-.03-.67-.06-1.35-.09-2.02,0,0,.31.07.31.07.71-.53.85-1.27.79-2.09.02-.97.04-1.95.06-2.92,1.38-1.31,1.3-2.66.11-4.03.02-.63.05-1.25.07-1.88.29-.02.59-.05.88-.08,1.4.04,2.02,1.02,2.47,2.13,4.34,10.74,13.03,17.61,21.76,24.43,3.73,2.92,7.48,2.73,11.41.06,11.03-7.48,15.33-19.17,19.17-30.97,2.55-7.84,3.41-16.17,3.89-24.36.45-7.72,1.19-15.57-.77-23.27-.33-2.01-.65-4.01-.98-6.02,1.26-1,1.26-1.99,0-2.99-1.2-6.78-1.42-13.74-3.66-20.33-.34-1.01-.36-1.95.64-2.63,1.52,1.64,1.54,3.82,2.19,5.79.51,1.54.26,3.77,2.64,4.21,0,2.38,1.59,4.52,1.07,6.98Z"/>
      <path class="cls-6" d="m358.27,168.1c1.96,7.69,1.22,15.55.77,23.27-.48,8.19-1.34,16.52-3.89,24.36-3.84,11.8-8.15,23.49-19.17,30.97-3.93,2.67-7.67,2.86-11.41-.06-8.72-6.83-17.41-13.7-21.76-24.43-.45-1.11-1.07-2.09-2.47-2.13.5-2.41.96-4.79.94-7.3-.1-10.55-.05-21.11-.05-31.66.02-3,.04-6.01.06-9.01,2.38-.93,4.4-.8,6.06,1.52,3.47,4.83,8.1,8.81,10.46,14.46.44,1.05,1.11,2.07,1.9,2.89,6.3,6.48,13.04,12.5,20.15,18.06,3.8,2.97,9.71.51,11.88-5.07,2.59-6.66,4.09-13.64,4.47-20.78.21-3.89,1.57-7.77.15-11.75-.47-1.33-.27-3.1,1.91-3.32Z"/>
      <path class="cls-1" d="m178.28,75.27c4-.12,8.01-.25,12.01-.37,25.26.65,47.94,8.88,68.43,23.45,1.61,1.15,3.04,2.55,4.55,3.83.53,1.3,1.67,1.76,2.9,2.08.34.31.68.61,1.02.92.34.34.68.68,1.01,1.01.35.32.69.65,1.04.97.33.31.65.63.98.94,0,0,.05.05.05.05.32.32.63.63.95.95,0,0,.05.05.05.05.32.32.63.63.95.95,0,0,.05.05.05.05.31.33.62.65.93.98,0,0,.03.04.03.04.31.34.62.68.93,1.02,0,0,0,.03,0,.03-.01,1.45.81,2.3,2.05,2.86.34.36.68.73,1.02,1.09.07,2.01,1.47,2.99,3,3.88,0,0,.08.09.08.09.51,2.23,1.68,3.99,3.69,5.15,0,0,.04.01.04.01.39,3.24,2.45,5.74,3.85,8.51,4.52,8.99,8.44,18.16,9.46,28.31.03,1.33-.47,2.77.75,3.87.07.35.13.71.2,1.06,0,13.24-.02,26.48,0,39.72,0,1.44-.41,3.01.81,4.24-1.25,2.61-.63,5.35-.56,8.05-.41.33-.82.67-1.23,1-2.26-5.65-1.32-11.7-1.79-17.51-1.27-15.59-4.08-30.78-9.44-45.42-3.53-9.64-7.81-19.01-15.76-26.06-.11-.48-.07-1.1-.36-1.42-10.88-12.24-23.59-22.01-38.66-28.57-12.41-7.39-25.64-13.13-38.9-18.72-4.9-2.06-9.43-4.72-14.14-7.09Z"/>
      <path class="cls-5" d="m297.36,162.14c-1.02-10.15-4.93-19.32-9.46-28.31-1.4-2.77-3.46-5.28-3.85-8.51,1.11.07,1.93.75,2.39,1.6,6.36,11.66,12.37,23.45,12.86,37.14-.27.03-.54.03-.81,0-.38-.64-.76-1.28-1.14-1.91Z"/>
      <path class="cls-8" d="m298.5,164.06c.27.02.54.02.81,0,1.39,2.5,2.01,5.19,1.98,8.04-.02,3.01-.04,6.01-.06,9.01-.47-.01-.95-.02-1.42-.03l-.16-9.09c.09-.08.28-.2.26-.23-.08-.2-.21-.38-.32-.57-.57-1.33.26-3.09-1.28-4.11-.07-.35-.13-.71-.2-1.06.13-.65.26-1.3.39-1.96Z"/>
      <path class="cls-5" d="m284.02,125.3c-2.01-1.16-3.18-2.92-3.69-5.15,3.05.42,3.64,2.59,3.69,5.15Z"/>
      <path class="cls-5" d="m280.25,120.06c-1.53-.88-2.93-1.86-3-3.88,2.61.05,3.15,1.69,3,3.88Z"/>
      <path class="cls-6" d="m357.29,159.1c1.26.99,1.26,1.99,0,2.99-1.3-.99-1.3-1.99,0-2.99Z"/>
      <path class="cls-5" d="m266.18,104.27c-1.23-.33-2.37-.79-2.9-2.08,1.54-.1,3-.09,2.9,2.08Z"/>
      <path class="cls-5" d="m276.23,115.1c-1.24-.55-2.06-1.41-2.05-2.86,2.16-.11,2.14,1.35,2.05,2.86Z"/>
      <path class="cls-5" d="m274.18,112.21c-.31-.34-.62-.68-.93-1.02.31.34.62.68.93,1.02Z"/>
      <path class="cls-5" d="m273.22,111.15c-.31-.33-.62-.65-.93-.98.31.33.62.65.93.98Z"/>
      <path class="cls-5" d="m272.23,110.12c-.32-.32-.63-.63-.95-.95.32.32.63.63.95.95Z"/>
      <path class="cls-5" d="m271.24,109.12c-.32-.32-.63-.63-.95-.95.32.32.63.63.95.95Z"/>
      <path class="cls-5" d="m270.24,108.12c-.33-.31-.65-.63-.98-.94.33.31.65.63.98.94Z"/>
      <path class="cls-5" d="m268.22,106.21c-.34-.34-.68-.68-1.01-1.01.34.34.68.68,1.01,1.01Z"/>
      <path class="cls-12" d="m231.32,101.08c15.07,6.57,27.78,16.34,38.66,28.57.29.32.25.94.36,1.42-.97,4.15,1.34,8.15,2.71,11.21,2.93,6.53,3.2,12.96,3.22,19.67,0,3.1-.7,5.18-4.32,2.56-1.97-1.43-4.21-2.1-4.58,1.48-.78,7.54-1.49,15.1-2.04,22.66-.87,11.87.81,23.71.18,35.63-.61,11.54.25,23.17.88,34.74.37,6.86,2.92,9.83,7.94,9.03-.04.26-.08.51-.12.77-5.64,5.28-11.29,10.56-16.93,15.84-3.36,2.08-6.72,4.16-10.08,6.24-.94.38-1.89.77-2.83,1.15-5.38.26-9.98,3.12-15.04,4.46-2.67.7-5.62,1.42-5.91-2.64-.3-4.25-1.63-8.39-1.14-12.73.22-1.94.36-4.06-1.96-5.11,1.33-1,2.66-2,4-2.99,1.71-.16,3.07-1.1,4.47-1.98,6.79-4.28,12.62-9.67,17.1-16.25,6.53-9.6,11.55-19.9,11.34-31.97.27-2.6.54-5.2.81-7.8.14-3.66.27-7.32.41-10.99,1.92-8.02.48-16.17.79-24.25.1-2.54.98-5.33-.87-7.72-.34-.35-.68-.7-1.02-1.04.17-16.72-6.58-30.24-19.05-41.11-.35-.27-.71-.54-1.06-.82-.32-.31-.63-.63-.95-.94,3.67-5.47,3.74-10.22-1.36-15.32-2.86-2.86-1.99-7.93-3.59-11.79Z"/>
      <path class="cls-17" d="m180.29,132.03c2.64-.07,5.28-.14,7.92-.2,6.04,1.06,12.27-1.02,18.24,1.16-1.01.21-2.11.49-1.96,1.78.25,2.07,1.58,3.57,2.99,5.03,13.14,13.55,27.44,26,38.61,41.43,2.57,3.56,5.18,8.11,11.03,6.85,0,8.66-.02,17.32-.02,25.98-7.55.48-10.51-5.97-14.18-10.35-7.98-9.54-16.35-18.74-24.67-27.94-9.57-10.57-20.25-20.13-30.07-30.49-3.51-3.69-8.24-7.07-7.89-13.23Z"/>
      <path class="cls-11" d="m157.17,144.04c4.27.81,4.81,5.16,7.18,7.75,5.58,6.11,10.52,12.82,16.17,18.86,10.11,10.81,20.97,20.95,30.72,32.06,8.9,10.14,19.2,18.88,27.79,29.29,2.27,2.75,5.55,4.7,9.37,5.13-1.12,3.41-3.63,5.72-6.24,7.96-.27.35-.55.7-.82,1.05,0,0,.06-.06.06-.06-.35.36-.7.71-1.06,1.07l.06-.06c-.36.34-.72.69-1.08,1.03,0,0,.04-.03.04-.03-2.19.02-4.23-.17-5.94-1.93-8.62-8.87-17.71-17.31-25.85-26.59-8.58-9.77-18.52-18.2-27.04-27.95-7.12-8.14-15.8-15.22-19.46-26-.42-1.23-1.06-2.51-2.72-2.55-.51-2.66,1.07-5.62-1.14-8.05-.02-3.66-.03-7.33-.05-10.99Z"/>
      <path class="cls-1" d="m242.16,245.1c2.6-2.24,5.12-4.55,6.24-7.96,0,0-.06.03-.06.02.36-.36.72-.71,1.08-1.07,0,0-.06.08-.06.08.58-.14.82-.5.71-1.09,2.45-3.14,3.68-6.9,5.15-10.52.46-1.12.94-1.59,1.99-1.72.21,12.07-4.81,22.37-11.34,31.97-4.47,6.58-10.31,11.97-17.1,16.25-1.41.89-2.76,1.82-4.47,1.98-1.47-1.64-3.42-.96-5.17-.97-6.42-.05-12.85.28-19.26,0-11.71-.5-23.41-1.29-35.11-2.05-13.47-.87-27.02,1.95-40.44-.94-2.69-.66-4.46-2.24-5-5.03,12.21,3.16,24.63,1.69,36.98,1.7,6.03,0,12.05,0,18.08-.01,9.98-.13,20.01,1.42,29.92-.93,4.92-.34,9.51-1.92,14.03-3.75,1.01-.4,2.01-.81,3.02-1.21.33-.27.65-.54.98-.8,3.48-.77,6.28-2.85,9.14-4.81h-.05c.36.02.65-.12.85-.42,2.36-1.92,4.73-3.83,7.09-5.75,0,0-.04.03-.04.03.36-.34.72-.69,1.08-1.03,0,0-.06.06-.06.06.35-.36.7-.71,1.06-1.07,0,0-.06.06-.06.06.27-.35.55-.7.82-1.05Z"/>
      <path class="cls-3" d="m257.1,214.04c0-8.66.02-17.32.03-25.98.02-1.66.03-3.31.05-4.97.04-1.01.08-2.02.12-3.03-.02-2.03-.04-4.07-.06-6.1.03-.97.06-1.94.09-2.91.34.35.68.7,1.02,1.04.03,10.66.05,21.31.08,31.97-.14,3.66-.27,7.32-.41,10.99-.3-.34-.61-.67-.91-1.01Z"/>
      <path class="cls-1" d="m157.17,144.04c.02,3.66.03,7.33.05,10.99-.23.11-.47.21-.71.3-.07-4.05-.13-8.1-.2-12.15.31.15.62.29.93.44l-.17.18s.1.23.1.23Z"/>
      <path class="cls-11" d="m157.24,143.63c-.31-.15-.62-.29-.93-.44-.3-.39-.6-.77-.9-1.16-.05-.63-.1-1.27-.15-1.9,2.42.17,2.03,1.93,1.97,3.5Z"/>
      <path class="cls-11" d="m154.37,140.06c0-.33-.01-.65-.03-.98.32.36.64.73.97,1.09-.31-.04-.63-.07-.94-.11Z"/>
      <path class="cls-11" d="m249.42,236.1c-.36.36-.72.71-1.08,1.07.36-.36.72-.71,1.08-1.07Z"/>
      <path class="cls-11" d="m250.06,235.09c.11.59-.13.95-.71,1.09.24-.36.48-.73.71-1.09Z"/>
      <path class="cls-8" d="m257.18,183.09c-.02,1.66-.03,3.31-.05,4.97-5.86,1.26-8.46-3.3-11.03-6.85-11.17-15.42-25.47-27.87-38.61-41.43-1.41-1.46-2.74-2.95-2.99-5.03-.16-1.29.95-1.57,1.96-1.78,3.36-.31,6.6.54,9.86,1.14l1.17.88c.61.03,1.22.06,1.83.09.4.3.8.59,1.19.89,7.13.77,12.35,5.18,17.58,9.43,8.63,7,13.27,16.67,17.39,26.65.25.7.5,1.41.76,2.11.04,1.96.08,3.91.12,5.87-.05,1.11-.25,2.25.82,3.06Z"/>
      <path class="cls-21" d="m255.48,172.06c-4.12-9.98-8.76-19.65-17.39-26.65-5.23-4.24-10.45-8.66-17.58-9.43-.4-.3-.8-.59-1.19-.89-.61-.03-1.22-.06-1.83-.09-.39-.29-.78-.58-1.17-.88-3.26-.61-6.49-1.45-9.86-1.14-5.97-2.18-12.2-.1-18.24-1.16.17-1.15.17-2.45,1.72-2.63,10.54-1.21,21.36-2.84,31.54.36,14.02,4.4,24.97,13.13,30.98,27.24,2.12,4.97,4.94,9.58,3.01,15.26Z"/>
      <path class="cls-21" d="m256.36,180.04c-.04-1.96-.08-3.91-.12-5.87.34-.07.67-.13,1.01-.2.02,2.03.04,4.07.06,6.1-.32,0-.63,0-.95-.03Z"/>
      <path class="cls-20" d="m237.22,129.13c.35.27.71.54,1.06.82-.66.12-.91-.28-1.06-.82Z"/>
      <path class="cls-15" d="m237.4,330.95c6.31.06,12.62.13,18.93.19,0,.3-.01.6-.02.9-6.3-.48-12.71,1.18-18.91-1.09Z"/>
      <path class="cls-24" d="m256.3,332.04c0-.3.02-.6.02-.9,3.35-.09,6.69-.18,10.04-.26-3.12,2.38-6.72.67-10.06,1.17Z"/>
      <path class="cls-24" d="m224.28,327.38c-1.59-.21-3.19-.42-4.78-.63,10.61-1.02,21.21-1.4,31.79.18-9.01.15-18.01.3-27.02.45Z"/>
      <path class="cls-5" d="m339.2,297.02c.35-.3.71-.59,1.06-.89-.35.3-.71.59-1.06.89Z"/>
      <path class="cls-20" d="m119.34,264.08c.54,2.8,2.31,4.38,5,5.03,6.04,6.43,13.75,10.9,22.23,10.69,24.6-.62,49.5,3.71,73.75-3.74,2.32,1.06,2.18,3.18,1.96,5.11-.49,4.34.84,8.48,1.14,12.73.28,4.06,3.24,3.34,5.91,2.64,5.06-1.34,9.67-4.19,15.04-4.46-7.01,4.65-14.91,7.48-22.85,9.67-7.15,1.97-14.66,3.02-22.16,3.39-1.03-1.4-2.05-1.34-3.06.03-1.31-.09-2.63-.18-3.94-.28-.12-.64-.21-1.4-1.02-1.4-.81,0-.9.76-1.02,1.4-14.65.07-29.31.14-43.96.21-4.47-.81-7.11-4.34-10.11-7.14-16.02-14.96-31.77-30.21-42.82-49.47-2.65-4.62-5.55-9.17-7.03-14.38,4.68,1.68,5.62,6.7,8.73,9.83,5.74,5.8,10.52,12.62,18.15,16.3.15.57.48.84,1.09.68,1.66,1.05,3.32,2.1,4.98,3.14Z"/>
      <path class="cls-3" d="m156.51,155.34c.24-.09.48-.19.71-.3,2.21,2.42.63,5.38,1.13,8.05-.87,13.92,3.71,25.49,14.24,34.89,6.55,5.85,12.52,12.35,18.71,18.59,5.26,5.3,10.78,10.37,15.63,16.02,5.95,6.95,12.73,13.03,19.08,19.56,1.43,1.47,3.44,1.93,5.47,2.11-2.86,1.96-5.66,4.04-9.14,4.81-.33.27-.65.54-.98.8-1.01.4-2.01.81-3.02,1.21-11.83-4.75-18.72-15.12-27.41-23.56-7.58-7.37-15.15-14.77-22.76-22.11-6.75-6.5-10.41-14.23-9.94-23.82.12-2.43,1.3-5.28-1.14-7.42-.2-9.61-.39-19.22-.59-28.83Z"/>
      <path class="cls-23" d="m119.34,264.08c-1.66-1.05-3.32-2.1-4.98-3.14,1.54-1.45,3.46-.83,5.21-.84,12.24-.06,24.48-.05,36.72-.05,0,1.91.02,3.83.03,5.74-12.35-.01-24.77,1.45-36.98-1.7Z"/>
      <path class="cls-13" d="m192.34,304.89c1.31.09,2.63.18,3.94.28,0,.29.05.56.17.83-15.3.01-30.6.04-45.9.03-1.45,0-3.03.4-4.22-.92,14.65-.07,29.31-.14,43.96-.21.68,0,1.36,0,2.04,0Z"/>
      <path class="cls-1" d="m196.45,305.99c-.12-.26-.17-.54-.17-.83,1.01-1.37,2.03-1.43,3.06-.03-.61,1.49-1.89.72-2.89.86Z"/>
      <path class="cls-11" d="m355.26,245.05c-4.11,16.93-14.99,28.06-29.91,36.25-11.28,6.19-23.02,8.02-35.36,5.56-4.92-.98-10.79-1.96-11.71-8.82,1.68-2.86,3.45-5.66,5.87-7.98,4.27,5.32,9.65,8.86,16.45,9.99,9.98,1.65,19.12-.68,27.82-5.65,11.17-6.39,18.51-16.17,24.6-27.1.58-1.04.77-2.19,2.23-2.23Z"/>
      <path class="cls-17" d="m298.22,233.02c2.13.12,2.43,1.99,3.22,3.38,3.99,6.99,8.99,13.02,16.02,17.2,5.99,3.56,12.02,3.75,17.78-.18,6.06-4.14,11.18-9.24,14.42-16.02.8-1.67,1.03-4.04,3.59-4.33-3.32,12.56-17.18,30.17-30.72,31.14-9.14.66-15.52-4.15-21.3-10.28-2.12-2.24-3.58-5.25-7.04-5.87.37-1.67.74-3.33,1.11-5,1.39-1.79,2-3.81,1.81-6.07.05-.64.1-1.28.15-1.93.82-.5.99-1.23.73-2.1l.24.06Z"/>
      <path class="cls-9" d="m297.25,235.06c-.05.64-.1,1.28-.14,1.93-2.6,1.43-2.53,3.65-1.81,6.07-.37,1.67-.74,3.33-1.11,5-3.35,7.33-6.69,14.66-10.04,21.99-2.42,2.32-4.19,5.12-5.87,7.98-3.32,3.67-6.64,7.34-9.95,11.01-1,.68-2,1.36-3,2.04.03-4.3,1.36-8.02,4.51-11.1,3.09-3.03,3.68-7.13,4.37-11.14.04-.26.08-.51.12-.77,0,0-.01.01-.01.01.36-.33.73-.66,1.09-.98l-.06.07c.32-.37.63-.74.95-1.11.9-.32.95-1.12,1.05-1.89.33-.37.66-.73.99-1.1,0,0-.02.02-.02.02.35-.34.7-.67,1.05-1.01l-.03.04c.52-.14.87-.41.72-1.03,1.67-2.41,3.52-4.72,4.99-7.25,4.5-7.76,8.96-15.57,10.33-24.66.29-.07.59-.12.89-.15.62.65,1.24,1.31,1.87,1.96.03.67.06,1.35.09,2.02,0,0-.24-.06-.23-.06-1.14.38-2.15.82-.74,2.1Z"/>
      <path class="cls-11" d="m357.26,240.05c0,.83-.17,1.58-.98,2.01-1.53-1.57-.29-1.8.98-2.01Z"/>
      <path class="cls-7" d="m299.81,181.08c.47.01.95.02,1.42.03,0,10.55-.04,21.11.05,31.66.02,2.51-.44,4.89-.94,7.3-.29.03-.59.06-.88.08-.3-.36-.61-.72-.91-1.08-.06-2.7-.68-5.44.56-8.05.23-9.98.46-19.96.69-29.95Z"/>
      <path class="cls-21" d="m298.56,219.08c.3.36.61.72.91,1.08-.02.63-.05,1.25-.07,1.88-.04,1.34-.07,2.69-.1,4.03-.02.97-.04,1.95-.06,2.92-.73.52-.91,1.25-.79,2.09,0,0-.31-.07-.31-.07-.62-.65-1.25-1.31-1.87-1.96.08-.34.04-.66-.13-.96.06-.68.12-1.35.18-2.03.94-.38,1-1.11.8-1.95.07-1.34.15-2.68.22-4.02.41-.33.82-.67,1.23-1Z"/>
      <path class="cls-7" d="m299.29,226.07c.03-1.34.07-2.69.1-4.03,1.2,1.38,1.28,2.72-.1,4.03Z"/>
      <path class="cls-17" d="m298.44,231.08c-.12-.84.06-1.57.79-2.09.06.82-.08,1.56-.79,2.09Z"/>
      <path class="cls-19" d="m296.3,226.05c-.06.68-.12,1.35-.18,2.03-.25.37-.51.75-.76,1.12-1.37,9.09-5.82,16.89-10.33,24.66-1.47,2.53-3.31,4.84-4.99,7.25-.24.34-.48.69-.72,1.03,0,0,.03-.04.03-.04-.35.34-.7.67-1.05,1.01,0,0,.02-.02.02-.02-.33.37-.66.73-.99,1.1-.1.77-.15,1.56-1.05,1.89-.32.37-.63.74-.95,1.11,0,0,.06-.07.06-.07-.36.33-.73.66-1.09.98,0,0,.01-.01.01-.01-5.01.8-7.57-2.17-7.94-9.03-.63-11.57-1.49-23.21-.88-34.74.63-11.92-1.05-23.77-.18-35.63.55-7.56,1.26-15.12,2.04-22.66.37-3.58,2.62-2.91,4.58-1.48,3.63,2.63,4.33.54,4.32-2.56-.02-6.71-.29-13.13-3.22-19.67-1.38-3.07-3.68-7.06-2.71-11.21,7.95,7.05,12.23,16.42,15.76,26.06,5.36,14.64,8.17,29.83,9.44,45.42.47,5.8-.48,11.86,1.79,17.51-.07,1.34-.15,2.68-.22,4.02-.72.46-.84,1.18-.8,1.95Z"/>
      <path class="cls-22" d="m299.81,181.08c-.23,9.98-.46,19.96-.69,29.95-1.22-1.23-.8-2.8-.81-4.24-.02-13.24,0-26.48,0-39.72,1.54,1.02.71,2.79,1.28,4.11-.21.28-.19.55.06.81l.16,9.09Z"/>
      <path class="cls-22" d="m298.5,164.06c-.13.65-.26,1.31-.39,1.96-1.22-1.1-.72-2.54-.75-3.87.38.64.76,1.28,1.14,1.92Z"/>
      <path class="cls-5" d="m299.65,171.99c-.25-.25-.27-.52-.06-.81.11.19.24.37.32.57.01.04-.17.15-.26.23Z"/>
      <path class="cls-19" d="m220.31,276.05c-24.25,7.46-49.15,3.12-73.75,3.74-8.48.21-16.19-4.26-22.23-10.69,13.42,2.88,26.97.06,40.44.94,11.7.76,23.4,1.54,35.11,2.05,6.41.28,12.84-.05,19.26,0,1.74.01,3.7-.67,5.17.97-1.33,1-2.66,2-4,2.99Z"/>
      <path class="cls-22" d="m258.43,204.06c-.03-10.66-.05-21.31-.08-31.97,1.84,2.39.96,5.17.87,7.72-.31,8.08,1.13,16.23-.79,24.25Z"/>
      <path class="cls-21" d="m231.48,254.27c-2.03-.18-4.04-.64-5.47-2.11-6.35-6.53-13.13-12.62-19.08-19.56-4.84-5.65-10.37-10.73-15.63-16.02-6.2-6.24-12.16-12.74-18.71-18.59-10.53-9.4-15.11-20.97-14.24-34.89,1.67.03,2.31,1.32,2.72,2.55,3.66,10.78,12.34,17.86,19.46,26,8.52,9.76,18.46,18.18,27.04,27.95,8.15,9.28,17.24,17.72,25.85,26.59,1.71,1.76,3.74,1.95,5.94,1.93-2.36,1.92-4.73,3.83-7.09,5.75-.59-.49-.78-.15-.85.42h.05Z"/>
      <path class="cls-21" d="m240.4,247.1c-.36.34-.72.69-1.08,1.03.36-.34.72-.69,1.08-1.03Z"/>
      <path class="cls-21" d="m241.4,246.09c-.35.36-.7.71-1.06,1.07.35-.36.7-.71,1.06-1.07Z"/>
      <path class="cls-21" d="m242.16,245.1c-.27.35-.55.7-.82,1.05.27-.35.55-.7.82-1.05Z"/>
      <path class="cls-15" d="m221.36,259.88c.33-.27.65-.54.98-.8-.33.27-.65.54-.98.8Z"/>
      <path class="cls-3" d="m231.42,254.26c.08-.57.26-.9.85-.42-.21.3-.49.44-.85.42Z"/>
      <path class="cls-7" d="m256.36,180.04c.31.03.63.04.95.03-.04,1.01-.08,2.02-.12,3.02-1.07-.8-.88-1.95-.83-3.06Z"/>
      <path class="cls-17" d="m216.31,134.13c.39.29.78.58,1.17.88-.39-.29-.78-.58-1.17-.88Z"/>
      <path class="cls-17" d="m219.31,135.1c.4.3.79.59,1.19.89-.4-.3-.79-.59-1.19-.89Z"/>
      <path class="cls-1" d="m192.34,304.89c-.68,0-1.36,0-2.04,0,.12-.63.21-1.4,1.02-1.4.81,0,.9.76,1.02,1.4Z"/>
      <path class="cls-21" d="m295.29,243.06c-.72-2.42-.79-4.64,1.81-6.07.19,2.26-.42,4.28-1.81,6.07Z"/>
      <path class="cls-21" d="m297.25,235.06c-1.41-1.28-.41-1.72.74-2.1.26.88.08,1.6-.74,2.1Z"/>
      <path class="cls-12" d="m274.31,268.09c.36-.33.73-.66,1.09-.98-.36.33-.73.66-1.09.98Z"/>
      <path class="cls-12" d="m277.34,264.18c.33-.37.66-.73.99-1.1-.33.37-.66.73-.99,1.1Z"/>
      <path class="cls-12" d="m278.31,263.1c.35-.34.7-.67,1.05-1.01-.35.34-.7.67-1.05,1.01Z"/>
      <path class="cls-12" d="m279.33,262.13c.24-.34.48-.69.72-1.03.15.62-.19.89-.72,1.03Z"/>
      <path class="cls-1" d="m295.36,229.2c.25-.37.51-.75.76-1.12.17.3.22.63.13.96-.3.03-.6.08-.89.15Z"/>
      <path class="cls-12" d="m275.34,267.17c.32-.37.63-.74.95-1.11-.32.37-.63.74-.95,1.11Z"/>
      <path class="cls-1" d="m296.3,226.05c-.04-.78.08-1.49.8-1.95.2.84.14,1.58-.8,1.95Z"/>
    </g>
  </g>
</svg>